<mxfile host="65bd71144e">
    <diagram id="RiYOtglTNPOarngJR4Ci" name="Page-1">
        <mxGraphModel dx="4822" dy="1542" grid="1" gridSize="10" guides="1" tooltips="1" connect="1" arrows="1" fold="1" page="1" pageScale="1" pageWidth="3300" pageHeight="4681" math="0" shadow="0">
            <root>
                <mxCell id="0"/>
                <mxCell id="1" parent="0"/>
                <mxCell id="2" value="" style="rounded=1;whiteSpace=wrap;html=1;fontColor=#FFFF00;fillColor=#1A1A1A;strokeColor=none;arcSize=1;fontSize=16;fontStyle=1;labelPosition=right;verticalLabelPosition=middle;align=left;verticalAlign=middle;" vertex="1" parent="1">
                    <mxGeometry x="-1090" y="630" width="1980" height="1470" as="geometry"/>
                </mxCell>
                <mxCell id="3" value="pull&lt;br&gt;request" style="edgeStyle=orthogonalEdgeStyle;curved=1;html=1;entryX=0.5;entryY=0;entryDx=0;entryDy=0;labelBackgroundColor=#1A1A1A;fontSize=12;fontColor=#E6E6E6;endArrow=open;endFill=0;strokeColor=#E6E6E6;" edge="1" parent="1" source="4" target="220">
                    <mxGeometry relative="1" as="geometry"/>
                </mxCell>
                <mxCell id="4" value="" style="rounded=1;whiteSpace=wrap;html=1;labelBackgroundColor=none;fontSize=12;fontColor=#E6E6E6;strokeColor=#E6E6E6;fillColor=none;arcSize=8;" vertex="1" parent="1">
                    <mxGeometry x="-230" y="1030.4199999999998" width="50" height="320" as="geometry"/>
                </mxCell>
                <mxCell id="5" value="push" style="edgeStyle=none;html=1;entryX=0.5;entryY=1;entryDx=0;entryDy=0;fontSize=12;fontColor=#E6E6E6;endArrow=open;endFill=0;strokeColor=#E6E6E6;labelBackgroundColor=#1A1A1A;" edge="1" parent="1" source="6" target="98">
                    <mxGeometry relative="1" as="geometry"/>
                </mxCell>
                <mxCell id="6" value="" style="rounded=1;whiteSpace=wrap;html=1;labelBackgroundColor=none;fontSize=12;fontColor=#E6E6E6;strokeColor=#E6E6E6;fillColor=none;arcSize=8;" vertex="1" parent="1">
                    <mxGeometry x="-775" y="1701.75" width="50" height="190" as="geometry"/>
                </mxCell>
                <mxCell id="7" value="push" style="edgeStyle=none;html=1;entryX=0.5;entryY=1;entryDx=0;entryDy=0;labelBackgroundColor=#1A1A1A;fontSize=12;fontColor=#E6E6E6;endArrow=open;endFill=0;strokeColor=#E6E6E6;" edge="1" parent="1" source="8" target="100">
                    <mxGeometry relative="1" as="geometry"/>
                </mxCell>
                <mxCell id="8" value="" style="rounded=1;whiteSpace=wrap;html=1;labelBackgroundColor=none;fontSize=12;fontColor=#E6E6E6;strokeColor=#E6E6E6;fillColor=none;arcSize=8;" vertex="1" parent="1">
                    <mxGeometry x="-845" y="1731.75" width="50" height="160" as="geometry"/>
                </mxCell>
                <mxCell id="77" value="&lt;span style=&quot;font-size: 16px&quot;&gt;R43&lt;br&gt;&lt;/span&gt;" style="ellipse;whiteSpace=wrap;html=1;aspect=fixed;strokeColor=none;fillColor=#007FFF;verticalAlign=middle;labelPosition=center;verticalLabelPosition=middle;align=center;fontSize=16;fontStyle=1;fontColor=#E6E6E6;" vertex="1" parent="1">
                    <mxGeometry x="-770" y="1721.75" width="40" height="40" as="geometry"/>
                </mxCell>
                <mxCell id="78" style="edgeStyle=none;html=1;fontSize=12;fontColor=#E6E6E6;endArrow=none;endFill=0;strokeColor=#E6E6E6;" edge="1" parent="1" source="79" target="84">
                    <mxGeometry relative="1" as="geometry"/>
                </mxCell>
                <mxCell id="79" value="&lt;span style=&quot;font-size: 16px&quot;&gt;&lt;br&gt;&lt;/span&gt;" style="ellipse;whiteSpace=wrap;html=1;aspect=fixed;strokeColor=none;fillColor=#007FFF;verticalAlign=middle;labelPosition=right;verticalLabelPosition=middle;align=left;fontSize=16;fontStyle=1;fontColor=#E6E6E6;" vertex="1" parent="1">
                    <mxGeometry x="-830" y="1801.75" width="20" height="20" as="geometry"/>
                </mxCell>
                <mxCell id="80" style="edgeStyle=none;html=1;fontSize=12;fontColor=#E6E6E6;endArrow=none;endFill=0;strokeColor=#E6E6E6;" edge="1" parent="1" source="81" target="79">
                    <mxGeometry relative="1" as="geometry"/>
                </mxCell>
                <mxCell id="81" value="&lt;span style=&quot;font-size: 16px&quot;&gt;&lt;br&gt;&lt;/span&gt;" style="ellipse;whiteSpace=wrap;html=1;aspect=fixed;strokeColor=none;fillColor=#007FFF;verticalAlign=middle;labelPosition=right;verticalLabelPosition=middle;align=left;fontSize=16;fontStyle=1;fontColor=#E6E6E6;" vertex="1" parent="1">
                    <mxGeometry x="-830" y="1831.75" width="20" height="20" as="geometry"/>
                </mxCell>
                <mxCell id="82" style="edgeStyle=none;html=1;fontSize=12;fontColor=#E6E6E6;endArrow=none;endFill=0;strokeColor=#E6E6E6;" edge="1" parent="1" source="83" target="81">
                    <mxGeometry relative="1" as="geometry"/>
                </mxCell>
                <mxCell id="83" value="&lt;span style=&quot;font-size: 16px&quot;&gt;&lt;br&gt;&lt;/span&gt;" style="ellipse;whiteSpace=wrap;html=1;aspect=fixed;strokeColor=none;fillColor=#007FFF;verticalAlign=middle;labelPosition=right;verticalLabelPosition=middle;align=left;fontSize=16;fontStyle=1;fontColor=#E6E6E6;" vertex="1" parent="1">
                    <mxGeometry x="-830" y="1861.75" width="20" height="20" as="geometry"/>
                </mxCell>
                <mxCell id="84" value="&lt;span style=&quot;font-size: 16px&quot;&gt;R11&lt;br&gt;&lt;/span&gt;" style="ellipse;whiteSpace=wrap;html=1;aspect=fixed;strokeColor=none;fillColor=#007FFF;verticalAlign=middle;labelPosition=center;verticalLabelPosition=middle;align=center;fontSize=16;fontStyle=1;fontColor=#E6E6E6;" vertex="1" parent="1">
                    <mxGeometry x="-840" y="1751.75" width="40" height="40" as="geometry"/>
                </mxCell>
                <mxCell id="85" value="R11" style="text;html=1;strokeColor=none;fillColor=none;align=center;verticalAlign=middle;whiteSpace=wrap;rounded=0;labelBackgroundColor=none;fontSize=12;fontColor=#E6E6E6;" vertex="1" parent="1">
                    <mxGeometry x="-845" y="1891.75" width="50" height="20" as="geometry"/>
                </mxCell>
                <mxCell id="86" value="R43" style="text;html=1;strokeColor=none;fillColor=none;align=center;verticalAlign=middle;whiteSpace=wrap;rounded=0;labelBackgroundColor=none;fontSize=12;fontColor=#E6E6E6;" vertex="1" parent="1">
                    <mxGeometry x="-775" y="1891.75" width="50" height="20" as="geometry"/>
                </mxCell>
                <mxCell id="87" style="edgeStyle=none;html=1;entryX=0.5;entryY=1;entryDx=0;entryDy=0;fontSize=12;fontColor=#E6E6E6;endArrow=none;endFill=0;strokeColor=#E6E6E6;" edge="1" parent="1" source="88" target="94">
                    <mxGeometry relative="1" as="geometry"/>
                </mxCell>
                <mxCell id="88" value="&lt;span style=&quot;font-size: 16px&quot;&gt;&lt;br&gt;&lt;/span&gt;" style="ellipse;whiteSpace=wrap;html=1;aspect=fixed;strokeColor=none;fillColor=#007FFF;verticalAlign=middle;labelPosition=right;verticalLabelPosition=middle;align=left;fontSize=16;fontStyle=1;fontColor=#E6E6E6;" vertex="1" parent="1">
                    <mxGeometry x="-760" y="1801.75" width="20" height="20" as="geometry"/>
                </mxCell>
                <mxCell id="89" style="edgeStyle=none;html=1;fontSize=12;fontColor=#E6E6E6;endArrow=none;endFill=0;strokeColor=#E6E6E6;" edge="1" parent="1" source="90" target="88">
                    <mxGeometry relative="1" as="geometry"/>
                </mxCell>
                <mxCell id="90" value="&lt;span style=&quot;font-size: 16px&quot;&gt;&lt;br&gt;&lt;/span&gt;" style="ellipse;whiteSpace=wrap;html=1;aspect=fixed;strokeColor=none;fillColor=#007FFF;verticalAlign=middle;labelPosition=right;verticalLabelPosition=middle;align=left;fontSize=16;fontStyle=1;fontColor=#E6E6E6;" vertex="1" parent="1">
                    <mxGeometry x="-760" y="1831.75" width="20" height="20" as="geometry"/>
                </mxCell>
                <mxCell id="91" style="edgeStyle=none;html=1;fontSize=12;fontColor=#E6E6E6;endArrow=none;endFill=0;strokeColor=#E6E6E6;" edge="1" parent="1" source="92" target="90">
                    <mxGeometry relative="1" as="geometry"/>
                </mxCell>
                <mxCell id="92" value="&lt;span style=&quot;font-size: 16px&quot;&gt;&lt;br&gt;&lt;/span&gt;" style="ellipse;whiteSpace=wrap;html=1;aspect=fixed;strokeColor=none;fillColor=#007FFF;verticalAlign=middle;labelPosition=right;verticalLabelPosition=middle;align=left;fontSize=16;fontStyle=1;fontColor=#E6E6E6;" vertex="1" parent="1">
                    <mxGeometry x="-760" y="1861.75" width="20" height="20" as="geometry"/>
                </mxCell>
                <mxCell id="93" style="edgeStyle=none;html=1;fontSize=12;fontColor=#E6E6E6;endArrow=none;endFill=0;strokeColor=#E6E6E6;" edge="1" parent="1" source="94" target="77">
                    <mxGeometry relative="1" as="geometry"/>
                </mxCell>
                <mxCell id="94" value="&lt;span style=&quot;font-size: 16px&quot;&gt;&lt;br&gt;&lt;/span&gt;" style="ellipse;whiteSpace=wrap;html=1;aspect=fixed;strokeColor=none;fillColor=#007FFF;verticalAlign=middle;labelPosition=right;verticalLabelPosition=middle;align=left;fontSize=16;fontStyle=1;fontColor=#E6E6E6;" vertex="1" parent="1">
                    <mxGeometry x="-760" y="1771.75" width="20" height="20" as="geometry"/>
                </mxCell>
                <mxCell id="95" value="checkout" style="edgeStyle=orthogonalEdgeStyle;curved=1;html=1;labelBackgroundColor=#1A1A1A;fontSize=12;fontColor=#E6E6E6;endArrow=open;endFill=0;strokeColor=#E6E6E6;" edge="1" parent="1" source="96" target="8">
                    <mxGeometry x="-0.3598" y="-5" relative="1" as="geometry">
                        <Array as="points">
                            <mxPoint x="-900" y="1811.75"/>
                        </Array>
                        <mxPoint as="offset"/>
                    </mxGeometry>
                </mxCell>
                <mxCell id="96" value="" style="rounded=1;whiteSpace=wrap;html=1;labelBackgroundColor=none;fontSize=12;fontColor=#E6E6E6;strokeColor=#E6E6E6;fillColor=none;arcSize=8;" vertex="1" parent="1">
                    <mxGeometry x="-925" y="1881.75" width="50" height="10" as="geometry"/>
                </mxCell>
                <mxCell id="97" value="release" style="text;html=1;strokeColor=none;fillColor=none;align=center;verticalAlign=middle;whiteSpace=wrap;rounded=0;labelBackgroundColor=none;fontSize=12;fontColor=#E6E6E6;" vertex="1" parent="1">
                    <mxGeometry x="-925" y="1891.75" width="50" height="20" as="geometry"/>
                </mxCell>
                <mxCell id="98" value="" style="rounded=1;whiteSpace=wrap;html=1;labelBackgroundColor=none;fontSize=12;fontColor=#E6E6E6;strokeColor=#E6E6E6;fillColor=none;arcSize=8;" vertex="1" parent="1">
                    <mxGeometry x="-775" y="1159.08" width="50" height="190" as="geometry"/>
                </mxCell>
                <mxCell id="99" value="pull&lt;br&gt;request" style="edgeStyle=orthogonalEdgeStyle;html=1;entryX=0.5;entryY=0;entryDx=0;entryDy=0;labelBackgroundColor=#1A1A1A;fontSize=12;fontColor=#E6E6E6;endArrow=open;endFill=0;strokeColor=#E6E6E6;curved=1;" edge="1" parent="1" source="100" target="119">
                    <mxGeometry x="0.2" y="15" relative="1" as="geometry">
                        <mxPoint as="offset"/>
                    </mxGeometry>
                </mxCell>
                <mxCell id="100" value="" style="rounded=1;whiteSpace=wrap;html=1;labelBackgroundColor=none;fontSize=12;fontColor=#E6E6E6;strokeColor=#E6E6E6;fillColor=none;arcSize=8;" vertex="1" parent="1">
                    <mxGeometry x="-845" y="1189.08" width="50" height="160" as="geometry"/>
                </mxCell>
                <mxCell id="101" value="&lt;span style=&quot;font-size: 16px&quot;&gt;R43&lt;br&gt;&lt;/span&gt;" style="ellipse;whiteSpace=wrap;html=1;aspect=fixed;strokeColor=none;fillColor=#007FFF;verticalAlign=middle;labelPosition=center;verticalLabelPosition=middle;align=center;fontSize=16;fontStyle=1;fontColor=#E6E6E6;" vertex="1" parent="1">
                    <mxGeometry x="-770" y="1179.08" width="40" height="40" as="geometry"/>
                </mxCell>
                <mxCell id="102" style="edgeStyle=none;html=1;fontSize=12;fontColor=#E6E6E6;endArrow=none;endFill=0;strokeColor=#E6E6E6;" edge="1" parent="1" source="103" target="108">
                    <mxGeometry relative="1" as="geometry"/>
                </mxCell>
                <mxCell id="103" value="&lt;span style=&quot;font-size: 16px&quot;&gt;&lt;br&gt;&lt;/span&gt;" style="ellipse;whiteSpace=wrap;html=1;aspect=fixed;strokeColor=none;fillColor=#007FFF;verticalAlign=middle;labelPosition=right;verticalLabelPosition=middle;align=left;fontSize=16;fontStyle=1;fontColor=#E6E6E6;" vertex="1" parent="1">
                    <mxGeometry x="-830" y="1259.08" width="20" height="20" as="geometry"/>
                </mxCell>
                <mxCell id="104" style="edgeStyle=none;html=1;fontSize=12;fontColor=#E6E6E6;endArrow=none;endFill=0;strokeColor=#E6E6E6;" edge="1" parent="1" source="105" target="103">
                    <mxGeometry relative="1" as="geometry"/>
                </mxCell>
                <mxCell id="105" value="&lt;span style=&quot;font-size: 16px&quot;&gt;&lt;br&gt;&lt;/span&gt;" style="ellipse;whiteSpace=wrap;html=1;aspect=fixed;strokeColor=none;fillColor=#007FFF;verticalAlign=middle;labelPosition=right;verticalLabelPosition=middle;align=left;fontSize=16;fontStyle=1;fontColor=#E6E6E6;" vertex="1" parent="1">
                    <mxGeometry x="-830" y="1289.08" width="20" height="20" as="geometry"/>
                </mxCell>
                <mxCell id="106" style="edgeStyle=none;html=1;fontSize=12;fontColor=#E6E6E6;endArrow=none;endFill=0;strokeColor=#E6E6E6;" edge="1" parent="1" source="107" target="105">
                    <mxGeometry relative="1" as="geometry"/>
                </mxCell>
                <mxCell id="107" value="&lt;span style=&quot;font-size: 16px&quot;&gt;&lt;br&gt;&lt;/span&gt;" style="ellipse;whiteSpace=wrap;html=1;aspect=fixed;strokeColor=none;fillColor=#007FFF;verticalAlign=middle;labelPosition=right;verticalLabelPosition=middle;align=left;fontSize=16;fontStyle=1;fontColor=#E6E6E6;" vertex="1" parent="1">
                    <mxGeometry x="-830" y="1319.08" width="20" height="20" as="geometry"/>
                </mxCell>
                <mxCell id="108" value="&lt;span style=&quot;font-size: 16px&quot;&gt;R11&lt;br&gt;&lt;/span&gt;" style="ellipse;whiteSpace=wrap;html=1;aspect=fixed;strokeColor=none;fillColor=#007FFF;verticalAlign=middle;labelPosition=center;verticalLabelPosition=middle;align=center;fontSize=16;fontStyle=1;fontColor=#E6E6E6;" vertex="1" parent="1">
                    <mxGeometry x="-840" y="1209.08" width="40" height="40" as="geometry"/>
                </mxCell>
                <mxCell id="109" value="R11" style="text;html=1;strokeColor=none;fillColor=none;align=center;verticalAlign=middle;whiteSpace=wrap;rounded=0;labelBackgroundColor=none;fontSize=12;fontColor=#E6E6E6;" vertex="1" parent="1">
                    <mxGeometry x="-845" y="1169.08" width="50" height="20" as="geometry"/>
                </mxCell>
                <mxCell id="110" value="R43" style="text;html=1;strokeColor=none;fillColor=none;align=center;verticalAlign=middle;whiteSpace=wrap;rounded=0;labelBackgroundColor=none;fontSize=12;fontColor=#E6E6E6;" vertex="1" parent="1">
                    <mxGeometry x="-775" y="1139.08" width="50" height="20" as="geometry"/>
                </mxCell>
                <mxCell id="111" style="edgeStyle=none;html=1;entryX=0.5;entryY=1;entryDx=0;entryDy=0;fontSize=12;fontColor=#E6E6E6;endArrow=none;endFill=0;strokeColor=#E6E6E6;" edge="1" parent="1" source="112" target="118">
                    <mxGeometry relative="1" as="geometry"/>
                </mxCell>
                <mxCell id="112" value="&lt;span style=&quot;font-size: 16px&quot;&gt;&lt;br&gt;&lt;/span&gt;" style="ellipse;whiteSpace=wrap;html=1;aspect=fixed;strokeColor=none;fillColor=#007FFF;verticalAlign=middle;labelPosition=right;verticalLabelPosition=middle;align=left;fontSize=16;fontStyle=1;fontColor=#E6E6E6;" vertex="1" parent="1">
                    <mxGeometry x="-760" y="1259.08" width="20" height="20" as="geometry"/>
                </mxCell>
                <mxCell id="113" style="edgeStyle=none;html=1;fontSize=12;fontColor=#E6E6E6;endArrow=none;endFill=0;strokeColor=#E6E6E6;" edge="1" parent="1" source="114" target="112">
                    <mxGeometry relative="1" as="geometry"/>
                </mxCell>
                <mxCell id="114" value="&lt;span style=&quot;font-size: 16px&quot;&gt;&lt;br&gt;&lt;/span&gt;" style="ellipse;whiteSpace=wrap;html=1;aspect=fixed;strokeColor=none;fillColor=#007FFF;verticalAlign=middle;labelPosition=right;verticalLabelPosition=middle;align=left;fontSize=16;fontStyle=1;fontColor=#E6E6E6;" vertex="1" parent="1">
                    <mxGeometry x="-760" y="1289.08" width="20" height="20" as="geometry"/>
                </mxCell>
                <mxCell id="115" style="edgeStyle=none;html=1;fontSize=12;fontColor=#E6E6E6;endArrow=none;endFill=0;strokeColor=#E6E6E6;" edge="1" parent="1" source="116" target="114">
                    <mxGeometry relative="1" as="geometry"/>
                </mxCell>
                <mxCell id="116" value="&lt;span style=&quot;font-size: 16px&quot;&gt;&lt;br&gt;&lt;/span&gt;" style="ellipse;whiteSpace=wrap;html=1;aspect=fixed;strokeColor=none;fillColor=#007FFF;verticalAlign=middle;labelPosition=right;verticalLabelPosition=middle;align=left;fontSize=16;fontStyle=1;fontColor=#E6E6E6;" vertex="1" parent="1">
                    <mxGeometry x="-760" y="1319.08" width="20" height="20" as="geometry"/>
                </mxCell>
                <mxCell id="117" style="edgeStyle=none;html=1;fontSize=12;fontColor=#E6E6E6;endArrow=none;endFill=0;strokeColor=#E6E6E6;" edge="1" parent="1" source="118" target="101">
                    <mxGeometry relative="1" as="geometry"/>
                </mxCell>
                <mxCell id="118" value="&lt;span style=&quot;font-size: 16px&quot;&gt;&lt;br&gt;&lt;/span&gt;" style="ellipse;whiteSpace=wrap;html=1;aspect=fixed;strokeColor=none;fillColor=#007FFF;verticalAlign=middle;labelPosition=right;verticalLabelPosition=middle;align=left;fontSize=16;fontStyle=1;fontColor=#E6E6E6;" vertex="1" parent="1">
                    <mxGeometry x="-760" y="1229.08" width="20" height="20" as="geometry"/>
                </mxCell>
                <mxCell id="119" value="" style="rounded=1;whiteSpace=wrap;html=1;labelBackgroundColor=none;fontSize=12;fontColor=#E6E6E6;strokeColor=#E6E6E6;fillColor=none;arcSize=8;" vertex="1" parent="1">
                    <mxGeometry x="-925" y="1339.08" width="50" height="10" as="geometry"/>
                </mxCell>
                <mxCell id="120" value="release" style="text;html=1;strokeColor=none;fillColor=none;align=center;verticalAlign=middle;whiteSpace=wrap;rounded=0;labelBackgroundColor=none;fontSize=12;fontColor=#E6E6E6;" vertex="1" parent="1">
                    <mxGeometry x="-925" y="1352.01" width="50" height="20" as="geometry"/>
                </mxCell>
                <mxCell id="121" value="" style="rounded=1;whiteSpace=wrap;html=1;labelBackgroundColor=none;fontSize=12;fontColor=#E6E6E6;strokeColor=#E6E6E6;fillColor=none;arcSize=8;" vertex="1" parent="1">
                    <mxGeometry x="-1005" y="1339.08" width="50" height="10" as="geometry"/>
                </mxCell>
                <mxCell id="122" value="" style="rounded=1;whiteSpace=wrap;html=1;labelBackgroundColor=none;fontSize=12;fontColor=#E6E6E6;strokeColor=#E6E6E6;fillColor=none;arcSize=8;" vertex="1" parent="1">
                    <mxGeometry x="-435" y="1701.75" width="50" height="190" as="geometry"/>
                </mxCell>
                <mxCell id="123" value="" style="rounded=1;whiteSpace=wrap;html=1;labelBackgroundColor=none;fontSize=12;fontColor=#E6E6E6;strokeColor=#E6E6E6;fillColor=none;arcSize=8;" vertex="1" parent="1">
                    <mxGeometry x="-505" y="1731.75" width="50" height="160" as="geometry"/>
                </mxCell>
                <mxCell id="124" value="&lt;span style=&quot;font-size: 16px&quot;&gt;R43&lt;br&gt;&lt;/span&gt;" style="ellipse;whiteSpace=wrap;html=1;aspect=fixed;strokeColor=none;fillColor=#007FFF;verticalAlign=middle;labelPosition=center;verticalLabelPosition=middle;align=center;fontSize=16;fontStyle=1;fontColor=#E6E6E6;" vertex="1" parent="1">
                    <mxGeometry x="-430" y="1721.75" width="40" height="40" as="geometry"/>
                </mxCell>
                <mxCell id="125" style="edgeStyle=none;html=1;fontSize=12;fontColor=#E6E6E6;endArrow=none;endFill=0;strokeColor=#E6E6E6;" edge="1" parent="1" source="126" target="131">
                    <mxGeometry relative="1" as="geometry"/>
                </mxCell>
                <mxCell id="126" value="&lt;span style=&quot;font-size: 16px&quot;&gt;&lt;br&gt;&lt;/span&gt;" style="ellipse;whiteSpace=wrap;html=1;aspect=fixed;strokeColor=none;fillColor=#007FFF;verticalAlign=middle;labelPosition=right;verticalLabelPosition=middle;align=left;fontSize=16;fontStyle=1;fontColor=#E6E6E6;" vertex="1" parent="1">
                    <mxGeometry x="-490" y="1801.75" width="20" height="20" as="geometry"/>
                </mxCell>
                <mxCell id="127" style="edgeStyle=none;html=1;fontSize=12;fontColor=#E6E6E6;endArrow=none;endFill=0;strokeColor=#E6E6E6;" edge="1" parent="1" source="128" target="126">
                    <mxGeometry relative="1" as="geometry"/>
                </mxCell>
                <mxCell id="128" value="&lt;span style=&quot;font-size: 16px&quot;&gt;&lt;br&gt;&lt;/span&gt;" style="ellipse;whiteSpace=wrap;html=1;aspect=fixed;strokeColor=none;fillColor=#007FFF;verticalAlign=middle;labelPosition=right;verticalLabelPosition=middle;align=left;fontSize=16;fontStyle=1;fontColor=#E6E6E6;" vertex="1" parent="1">
                    <mxGeometry x="-490" y="1831.75" width="20" height="20" as="geometry"/>
                </mxCell>
                <mxCell id="129" style="edgeStyle=none;html=1;fontSize=12;fontColor=#E6E6E6;endArrow=none;endFill=0;strokeColor=#E6E6E6;" edge="1" parent="1" source="130" target="128">
                    <mxGeometry relative="1" as="geometry"/>
                </mxCell>
                <mxCell id="130" value="&lt;span style=&quot;font-size: 16px&quot;&gt;&lt;br&gt;&lt;/span&gt;" style="ellipse;whiteSpace=wrap;html=1;aspect=fixed;strokeColor=none;fillColor=#007FFF;verticalAlign=middle;labelPosition=right;verticalLabelPosition=middle;align=left;fontSize=16;fontStyle=1;fontColor=#E6E6E6;" vertex="1" parent="1">
                    <mxGeometry x="-490" y="1861.75" width="20" height="20" as="geometry"/>
                </mxCell>
                <mxCell id="131" value="&lt;span style=&quot;font-size: 16px&quot;&gt;R11&lt;br&gt;&lt;/span&gt;" style="ellipse;whiteSpace=wrap;html=1;aspect=fixed;strokeColor=none;fillColor=#007FFF;verticalAlign=middle;labelPosition=center;verticalLabelPosition=middle;align=center;fontSize=16;fontStyle=1;fontColor=#E6E6E6;" vertex="1" parent="1">
                    <mxGeometry x="-500" y="1751.75" width="40" height="40" as="geometry"/>
                </mxCell>
                <mxCell id="132" value="R11" style="text;html=1;strokeColor=none;fillColor=none;align=center;verticalAlign=middle;whiteSpace=wrap;rounded=0;labelBackgroundColor=none;fontSize=12;fontColor=#E6E6E6;" vertex="1" parent="1">
                    <mxGeometry x="-505" y="1891.75" width="50" height="20" as="geometry"/>
                </mxCell>
                <mxCell id="133" value="R43" style="text;html=1;strokeColor=none;fillColor=none;align=center;verticalAlign=middle;whiteSpace=wrap;rounded=0;labelBackgroundColor=none;fontSize=12;fontColor=#E6E6E6;" vertex="1" parent="1">
                    <mxGeometry x="-435" y="1891.75" width="50" height="20" as="geometry"/>
                </mxCell>
                <mxCell id="134" style="edgeStyle=none;html=1;entryX=0.5;entryY=1;entryDx=0;entryDy=0;fontSize=12;fontColor=#E6E6E6;endArrow=none;endFill=0;strokeColor=#E6E6E6;" edge="1" parent="1" source="135" target="141">
                    <mxGeometry relative="1" as="geometry"/>
                </mxCell>
                <mxCell id="135" value="&lt;span style=&quot;font-size: 16px&quot;&gt;&lt;br&gt;&lt;/span&gt;" style="ellipse;whiteSpace=wrap;html=1;aspect=fixed;strokeColor=none;fillColor=#007FFF;verticalAlign=middle;labelPosition=right;verticalLabelPosition=middle;align=left;fontSize=16;fontStyle=1;fontColor=#E6E6E6;" vertex="1" parent="1">
                    <mxGeometry x="-420" y="1801.75" width="20" height="20" as="geometry"/>
                </mxCell>
                <mxCell id="136" style="edgeStyle=none;html=1;fontSize=12;fontColor=#E6E6E6;endArrow=none;endFill=0;strokeColor=#E6E6E6;" edge="1" parent="1" source="137" target="135">
                    <mxGeometry relative="1" as="geometry"/>
                </mxCell>
                <mxCell id="137" value="&lt;span style=&quot;font-size: 16px&quot;&gt;&lt;br&gt;&lt;/span&gt;" style="ellipse;whiteSpace=wrap;html=1;aspect=fixed;strokeColor=none;fillColor=#007FFF;verticalAlign=middle;labelPosition=right;verticalLabelPosition=middle;align=left;fontSize=16;fontStyle=1;fontColor=#E6E6E6;" vertex="1" parent="1">
                    <mxGeometry x="-420" y="1831.75" width="20" height="20" as="geometry"/>
                </mxCell>
                <mxCell id="138" style="edgeStyle=none;html=1;fontSize=12;fontColor=#E6E6E6;endArrow=none;endFill=0;strokeColor=#E6E6E6;" edge="1" parent="1" source="139" target="137">
                    <mxGeometry relative="1" as="geometry"/>
                </mxCell>
                <mxCell id="139" value="&lt;span style=&quot;font-size: 16px&quot;&gt;&lt;br&gt;&lt;/span&gt;" style="ellipse;whiteSpace=wrap;html=1;aspect=fixed;strokeColor=none;fillColor=#007FFF;verticalAlign=middle;labelPosition=right;verticalLabelPosition=middle;align=left;fontSize=16;fontStyle=1;fontColor=#E6E6E6;" vertex="1" parent="1">
                    <mxGeometry x="-420" y="1861.75" width="20" height="20" as="geometry"/>
                </mxCell>
                <mxCell id="140" style="edgeStyle=none;html=1;fontSize=12;fontColor=#E6E6E6;endArrow=none;endFill=0;strokeColor=#E6E6E6;" edge="1" parent="1" source="141" target="124">
                    <mxGeometry relative="1" as="geometry"/>
                </mxCell>
                <mxCell id="141" value="&lt;span style=&quot;font-size: 16px&quot;&gt;&lt;br&gt;&lt;/span&gt;" style="ellipse;whiteSpace=wrap;html=1;aspect=fixed;strokeColor=none;fillColor=#007FFF;verticalAlign=middle;labelPosition=right;verticalLabelPosition=middle;align=left;fontSize=16;fontStyle=1;fontColor=#E6E6E6;" vertex="1" parent="1">
                    <mxGeometry x="-420" y="1771.75" width="20" height="20" as="geometry"/>
                </mxCell>
                <mxCell id="142" value="" style="rounded=1;whiteSpace=wrap;html=1;labelBackgroundColor=none;fontSize=12;fontColor=#E6E6E6;strokeColor=#E6E6E6;fillColor=none;arcSize=8;" vertex="1" parent="1">
                    <mxGeometry x="-585" y="1881.75" width="50" height="10" as="geometry"/>
                </mxCell>
                <mxCell id="143" value="release" style="text;html=1;strokeColor=none;fillColor=none;align=center;verticalAlign=middle;whiteSpace=wrap;rounded=0;labelBackgroundColor=none;fontSize=12;fontColor=#E6E6E6;" vertex="1" parent="1">
                    <mxGeometry x="-585" y="1891.75" width="50" height="20" as="geometry"/>
                </mxCell>
                <mxCell id="144" value="pull&lt;br&gt;request" style="edgeStyle=orthogonalEdgeStyle;curved=1;html=1;entryX=0.5;entryY=0;entryDx=0;entryDy=0;labelBackgroundColor=#1A1A1A;fontSize=12;fontColor=#E6E6E6;endArrow=open;endFill=0;strokeColor=#E6E6E6;" edge="1" parent="1" source="145" target="168">
                    <mxGeometry x="-0.125" relative="1" as="geometry">
                        <Array as="points">
                            <mxPoint x="-410" y="1129.08"/>
                            <mxPoint x="-560" y="1129.08"/>
                        </Array>
                        <mxPoint as="offset"/>
                    </mxGeometry>
                </mxCell>
                <mxCell id="145" value="" style="rounded=1;whiteSpace=wrap;html=1;labelBackgroundColor=none;fontSize=12;fontColor=#E6E6E6;strokeColor=#E6E6E6;fillColor=none;arcSize=8;" vertex="1" parent="1">
                    <mxGeometry x="-435" y="1159.08" width="50" height="190" as="geometry"/>
                </mxCell>
                <mxCell id="146" value="" style="rounded=1;whiteSpace=wrap;html=1;labelBackgroundColor=none;fontSize=12;fontColor=#E6E6E6;strokeColor=#E6E6E6;fillColor=none;arcSize=8;" vertex="1" parent="1">
                    <mxGeometry x="-505" y="1189.08" width="50" height="160" as="geometry"/>
                </mxCell>
                <mxCell id="147" value="&lt;span style=&quot;font-size: 16px&quot;&gt;R43&lt;br&gt;&lt;/span&gt;" style="ellipse;whiteSpace=wrap;html=1;aspect=fixed;strokeColor=none;fillColor=#007FFF;verticalAlign=middle;labelPosition=center;verticalLabelPosition=middle;align=center;fontSize=16;fontStyle=1;fontColor=#E6E6E6;" vertex="1" parent="1">
                    <mxGeometry x="-430" y="1179.08" width="40" height="40" as="geometry"/>
                </mxCell>
                <mxCell id="148" style="edgeStyle=none;html=1;fontSize=12;fontColor=#E6E6E6;endArrow=none;endFill=0;strokeColor=#E6E6E6;" edge="1" parent="1" source="149" target="154">
                    <mxGeometry relative="1" as="geometry"/>
                </mxCell>
                <mxCell id="149" value="&lt;span style=&quot;font-size: 16px&quot;&gt;&lt;br&gt;&lt;/span&gt;" style="ellipse;whiteSpace=wrap;html=1;aspect=fixed;strokeColor=none;fillColor=#007FFF;verticalAlign=middle;labelPosition=right;verticalLabelPosition=middle;align=left;fontSize=16;fontStyle=1;fontColor=#E6E6E6;" vertex="1" parent="1">
                    <mxGeometry x="-490" y="1259.08" width="20" height="20" as="geometry"/>
                </mxCell>
                <mxCell id="150" style="edgeStyle=none;html=1;fontSize=12;fontColor=#E6E6E6;endArrow=none;endFill=0;strokeColor=#E6E6E6;" edge="1" parent="1" source="151" target="149">
                    <mxGeometry relative="1" as="geometry"/>
                </mxCell>
                <mxCell id="151" value="&lt;span style=&quot;font-size: 16px&quot;&gt;&lt;br&gt;&lt;/span&gt;" style="ellipse;whiteSpace=wrap;html=1;aspect=fixed;strokeColor=none;fillColor=#007FFF;verticalAlign=middle;labelPosition=right;verticalLabelPosition=middle;align=left;fontSize=16;fontStyle=1;fontColor=#E6E6E6;" vertex="1" parent="1">
                    <mxGeometry x="-490" y="1289.08" width="20" height="20" as="geometry"/>
                </mxCell>
                <mxCell id="152" style="edgeStyle=none;html=1;fontSize=12;fontColor=#E6E6E6;endArrow=none;endFill=0;strokeColor=#E6E6E6;" edge="1" parent="1" source="153" target="151">
                    <mxGeometry relative="1" as="geometry"/>
                </mxCell>
                <mxCell id="153" value="&lt;span style=&quot;font-size: 16px&quot;&gt;&lt;br&gt;&lt;/span&gt;" style="ellipse;whiteSpace=wrap;html=1;aspect=fixed;strokeColor=none;fillColor=#007FFF;verticalAlign=middle;labelPosition=right;verticalLabelPosition=middle;align=left;fontSize=16;fontStyle=1;fontColor=#E6E6E6;" vertex="1" parent="1">
                    <mxGeometry x="-490" y="1319.08" width="20" height="20" as="geometry"/>
                </mxCell>
                <mxCell id="154" value="&lt;span style=&quot;font-size: 16px&quot;&gt;R11&lt;br&gt;&lt;/span&gt;" style="ellipse;whiteSpace=wrap;html=1;aspect=fixed;strokeColor=none;fillColor=#007FFF;verticalAlign=middle;labelPosition=center;verticalLabelPosition=middle;align=center;fontSize=16;fontStyle=1;fontColor=#E6E6E6;" vertex="1" parent="1">
                    <mxGeometry x="-500" y="1209.08" width="40" height="40" as="geometry"/>
                </mxCell>
                <mxCell id="155" value="R11" style="text;html=1;strokeColor=none;fillColor=none;align=center;verticalAlign=middle;whiteSpace=wrap;rounded=0;labelBackgroundColor=none;fontSize=12;fontColor=#E6E6E6;" vertex="1" parent="1">
                    <mxGeometry x="-505" y="1169.08" width="50" height="20" as="geometry"/>
                </mxCell>
                <mxCell id="156" value="R43" style="text;html=1;strokeColor=none;fillColor=none;align=center;verticalAlign=middle;whiteSpace=wrap;rounded=0;labelBackgroundColor=none;fontSize=12;fontColor=#E6E6E6;" vertex="1" parent="1">
                    <mxGeometry x="-420" y="1139.08" width="50" height="20" as="geometry"/>
                </mxCell>
                <mxCell id="157" style="edgeStyle=none;html=1;entryX=0.5;entryY=1;entryDx=0;entryDy=0;fontSize=12;fontColor=#E6E6E6;endArrow=none;endFill=0;strokeColor=#E6E6E6;" edge="1" parent="1" source="158" target="164">
                    <mxGeometry relative="1" as="geometry"/>
                </mxCell>
                <mxCell id="158" value="&lt;span style=&quot;font-size: 16px&quot;&gt;&lt;br&gt;&lt;/span&gt;" style="ellipse;whiteSpace=wrap;html=1;aspect=fixed;strokeColor=none;fillColor=#007FFF;verticalAlign=middle;labelPosition=right;verticalLabelPosition=middle;align=left;fontSize=16;fontStyle=1;fontColor=#E6E6E6;" vertex="1" parent="1">
                    <mxGeometry x="-420" y="1259.08" width="20" height="20" as="geometry"/>
                </mxCell>
                <mxCell id="159" style="edgeStyle=none;html=1;fontSize=12;fontColor=#E6E6E6;endArrow=none;endFill=0;strokeColor=#E6E6E6;" edge="1" parent="1" source="160" target="158">
                    <mxGeometry relative="1" as="geometry"/>
                </mxCell>
                <mxCell id="160" value="&lt;span style=&quot;font-size: 16px&quot;&gt;&lt;br&gt;&lt;/span&gt;" style="ellipse;whiteSpace=wrap;html=1;aspect=fixed;strokeColor=none;fillColor=#007FFF;verticalAlign=middle;labelPosition=right;verticalLabelPosition=middle;align=left;fontSize=16;fontStyle=1;fontColor=#E6E6E6;" vertex="1" parent="1">
                    <mxGeometry x="-420" y="1289.08" width="20" height="20" as="geometry"/>
                </mxCell>
                <mxCell id="161" style="edgeStyle=none;html=1;fontSize=12;fontColor=#E6E6E6;endArrow=none;endFill=0;strokeColor=#E6E6E6;" edge="1" parent="1" source="162" target="160">
                    <mxGeometry relative="1" as="geometry"/>
                </mxCell>
                <mxCell id="162" value="&lt;span style=&quot;font-size: 16px&quot;&gt;&lt;br&gt;&lt;/span&gt;" style="ellipse;whiteSpace=wrap;html=1;aspect=fixed;strokeColor=none;fillColor=#007FFF;verticalAlign=middle;labelPosition=right;verticalLabelPosition=middle;align=left;fontSize=16;fontStyle=1;fontColor=#E6E6E6;" vertex="1" parent="1">
                    <mxGeometry x="-420" y="1319.08" width="20" height="20" as="geometry"/>
                </mxCell>
                <mxCell id="163" style="edgeStyle=none;html=1;fontSize=12;fontColor=#E6E6E6;endArrow=none;endFill=0;strokeColor=#E6E6E6;" edge="1" parent="1" source="164" target="147">
                    <mxGeometry relative="1" as="geometry"/>
                </mxCell>
                <mxCell id="164" value="&lt;span style=&quot;font-size: 16px&quot;&gt;&lt;br&gt;&lt;/span&gt;" style="ellipse;whiteSpace=wrap;html=1;aspect=fixed;strokeColor=none;fillColor=#007FFF;verticalAlign=middle;labelPosition=right;verticalLabelPosition=middle;align=left;fontSize=16;fontStyle=1;fontColor=#E6E6E6;" vertex="1" parent="1">
                    <mxGeometry x="-420" y="1229.08" width="20" height="20" as="geometry"/>
                </mxCell>
                <mxCell id="165" value="release" style="text;html=1;strokeColor=none;fillColor=none;align=center;verticalAlign=middle;whiteSpace=wrap;rounded=0;labelBackgroundColor=none;fontSize=12;fontColor=#E6E6E6;" vertex="1" parent="1">
                    <mxGeometry x="-585" y="1352.01" width="50" height="20" as="geometry"/>
                </mxCell>
                <mxCell id="166" value="" style="rounded=1;whiteSpace=wrap;html=1;labelBackgroundColor=none;fontSize=12;fontColor=#E6E6E6;strokeColor=#E6E6E6;fillColor=none;arcSize=8;" vertex="1" parent="1">
                    <mxGeometry x="-665" y="1339.08" width="50" height="10" as="geometry"/>
                </mxCell>
                <mxCell id="167" value="latest" style="text;html=1;strokeColor=none;fillColor=none;align=center;verticalAlign=middle;whiteSpace=wrap;rounded=0;labelBackgroundColor=none;fontSize=12;fontColor=#E6E6E6;" vertex="1" parent="1">
                    <mxGeometry x="-665" y="1352.35" width="50" height="20" as="geometry"/>
                </mxCell>
                <mxCell id="168" value="" style="rounded=1;whiteSpace=wrap;html=1;labelBackgroundColor=none;fontSize=12;fontColor=#E6E6E6;strokeColor=#E6E6E6;fillColor=none;arcSize=8;" vertex="1" parent="1">
                    <mxGeometry x="-585" y="1189.08" width="50" height="160" as="geometry"/>
                </mxCell>
                <mxCell id="169" style="edgeStyle=none;html=1;fontSize=12;fontColor=#E6E6E6;endArrow=none;endFill=0;strokeColor=#E6E6E6;" edge="1" parent="1" source="170" target="175">
                    <mxGeometry relative="1" as="geometry"/>
                </mxCell>
                <mxCell id="170" value="&lt;span style=&quot;font-size: 16px&quot;&gt;&lt;br&gt;&lt;/span&gt;" style="ellipse;whiteSpace=wrap;html=1;aspect=fixed;strokeColor=none;fillColor=#007FFF;verticalAlign=middle;labelPosition=right;verticalLabelPosition=middle;align=left;fontSize=16;fontStyle=1;fontColor=#E6E6E6;" vertex="1" parent="1">
                    <mxGeometry x="-570" y="1259.08" width="20" height="20" as="geometry"/>
                </mxCell>
                <mxCell id="171" style="edgeStyle=none;html=1;fontSize=12;fontColor=#E6E6E6;endArrow=none;endFill=0;strokeColor=#E6E6E6;" edge="1" parent="1" source="172" target="170">
                    <mxGeometry relative="1" as="geometry"/>
                </mxCell>
                <mxCell id="172" value="&lt;span style=&quot;font-size: 16px&quot;&gt;&lt;br&gt;&lt;/span&gt;" style="ellipse;whiteSpace=wrap;html=1;aspect=fixed;strokeColor=none;fillColor=#007FFF;verticalAlign=middle;labelPosition=right;verticalLabelPosition=middle;align=left;fontSize=16;fontStyle=1;fontColor=#E6E6E6;" vertex="1" parent="1">
                    <mxGeometry x="-570" y="1289.08" width="20" height="20" as="geometry"/>
                </mxCell>
                <mxCell id="173" style="edgeStyle=none;html=1;fontSize=12;fontColor=#E6E6E6;endArrow=none;endFill=0;strokeColor=#E6E6E6;" edge="1" parent="1" source="174" target="172">
                    <mxGeometry relative="1" as="geometry"/>
                </mxCell>
                <mxCell id="174" value="&lt;span style=&quot;font-size: 16px&quot;&gt;&lt;br&gt;&lt;/span&gt;" style="ellipse;whiteSpace=wrap;html=1;aspect=fixed;strokeColor=none;fillColor=#007FFF;verticalAlign=middle;labelPosition=right;verticalLabelPosition=middle;align=left;fontSize=16;fontStyle=1;fontColor=#E6E6E6;" vertex="1" parent="1">
                    <mxGeometry x="-570" y="1319.08" width="20" height="20" as="geometry"/>
                </mxCell>
                <mxCell id="175" value="&lt;span style=&quot;font-size: 16px&quot;&gt;R11&lt;br&gt;&lt;/span&gt;" style="ellipse;whiteSpace=wrap;html=1;aspect=fixed;strokeColor=none;fillColor=#007FFF;verticalAlign=middle;labelPosition=center;verticalLabelPosition=middle;align=center;fontSize=16;fontStyle=1;fontColor=#E6E6E6;" vertex="1" parent="1">
                    <mxGeometry x="-580" y="1209.08" width="40" height="40" as="geometry"/>
                </mxCell>
                <mxCell id="176" value="latest" style="text;html=1;strokeColor=none;fillColor=none;align=center;verticalAlign=middle;whiteSpace=wrap;rounded=0;labelBackgroundColor=none;fontSize=12;fontColor=#E6E6E6;" vertex="1" parent="1">
                    <mxGeometry x="-1005" y="1352.35" width="50" height="20" as="geometry"/>
                </mxCell>
                <mxCell id="177" value="" style="rounded=1;whiteSpace=wrap;html=1;labelBackgroundColor=none;fontSize=12;fontColor=#E6E6E6;strokeColor=#E6E6E6;fillColor=none;arcSize=8;" vertex="1" parent="1">
                    <mxGeometry x="-80" y="1703.09" width="50" height="190" as="geometry"/>
                </mxCell>
                <mxCell id="178" value="" style="rounded=1;whiteSpace=wrap;html=1;labelBackgroundColor=none;fontSize=12;fontColor=#E6E6E6;strokeColor=#E6E6E6;fillColor=none;arcSize=8;" vertex="1" parent="1">
                    <mxGeometry x="-150" y="1733.09" width="50" height="160" as="geometry"/>
                </mxCell>
                <mxCell id="179" value="&lt;span style=&quot;font-size: 16px&quot;&gt;R43&lt;br&gt;&lt;/span&gt;" style="ellipse;whiteSpace=wrap;html=1;aspect=fixed;strokeColor=none;fillColor=#007FFF;verticalAlign=middle;labelPosition=center;verticalLabelPosition=middle;align=center;fontSize=16;fontStyle=1;fontColor=#E6E6E6;" vertex="1" parent="1">
                    <mxGeometry x="-75" y="1723.09" width="40" height="40" as="geometry"/>
                </mxCell>
                <mxCell id="180" style="edgeStyle=none;html=1;fontSize=12;fontColor=#E6E6E6;endArrow=none;endFill=0;strokeColor=#E6E6E6;" edge="1" parent="1" source="181" target="186">
                    <mxGeometry relative="1" as="geometry"/>
                </mxCell>
                <mxCell id="181" value="&lt;span style=&quot;font-size: 16px&quot;&gt;&lt;br&gt;&lt;/span&gt;" style="ellipse;whiteSpace=wrap;html=1;aspect=fixed;strokeColor=none;fillColor=#007FFF;verticalAlign=middle;labelPosition=right;verticalLabelPosition=middle;align=left;fontSize=16;fontStyle=1;fontColor=#E6E6E6;" vertex="1" parent="1">
                    <mxGeometry x="-135" y="1803.09" width="20" height="20" as="geometry"/>
                </mxCell>
                <mxCell id="182" style="edgeStyle=none;html=1;fontSize=12;fontColor=#E6E6E6;endArrow=none;endFill=0;strokeColor=#E6E6E6;" edge="1" parent="1" source="183" target="181">
                    <mxGeometry relative="1" as="geometry"/>
                </mxCell>
                <mxCell id="183" value="&lt;span style=&quot;font-size: 16px&quot;&gt;&lt;br&gt;&lt;/span&gt;" style="ellipse;whiteSpace=wrap;html=1;aspect=fixed;strokeColor=none;fillColor=#007FFF;verticalAlign=middle;labelPosition=right;verticalLabelPosition=middle;align=left;fontSize=16;fontStyle=1;fontColor=#E6E6E6;" vertex="1" parent="1">
                    <mxGeometry x="-135" y="1833.09" width="20" height="20" as="geometry"/>
                </mxCell>
                <mxCell id="184" style="edgeStyle=none;html=1;fontSize=12;fontColor=#E6E6E6;endArrow=none;endFill=0;strokeColor=#E6E6E6;" edge="1" parent="1" source="185" target="183">
                    <mxGeometry relative="1" as="geometry"/>
                </mxCell>
                <mxCell id="185" value="&lt;span style=&quot;font-size: 16px&quot;&gt;&lt;br&gt;&lt;/span&gt;" style="ellipse;whiteSpace=wrap;html=1;aspect=fixed;strokeColor=none;fillColor=#007FFF;verticalAlign=middle;labelPosition=right;verticalLabelPosition=middle;align=left;fontSize=16;fontStyle=1;fontColor=#E6E6E6;" vertex="1" parent="1">
                    <mxGeometry x="-135" y="1863.09" width="20" height="20" as="geometry"/>
                </mxCell>
                <mxCell id="186" value="&lt;span style=&quot;font-size: 16px&quot;&gt;R11&lt;br&gt;&lt;/span&gt;" style="ellipse;whiteSpace=wrap;html=1;aspect=fixed;strokeColor=none;fillColor=#007FFF;verticalAlign=middle;labelPosition=center;verticalLabelPosition=middle;align=center;fontSize=16;fontStyle=1;fontColor=#E6E6E6;" vertex="1" parent="1">
                    <mxGeometry x="-145" y="1753.09" width="40" height="40" as="geometry"/>
                </mxCell>
                <mxCell id="187" value="R11" style="text;html=1;strokeColor=none;fillColor=none;align=center;verticalAlign=middle;whiteSpace=wrap;rounded=0;labelBackgroundColor=none;fontSize=12;fontColor=#E6E6E6;" vertex="1" parent="1">
                    <mxGeometry x="-150" y="1893.09" width="50" height="20" as="geometry"/>
                </mxCell>
                <mxCell id="188" value="R43" style="text;html=1;strokeColor=none;fillColor=none;align=center;verticalAlign=middle;whiteSpace=wrap;rounded=0;labelBackgroundColor=none;fontSize=12;fontColor=#E6E6E6;" vertex="1" parent="1">
                    <mxGeometry x="-80" y="1893.09" width="50" height="20" as="geometry"/>
                </mxCell>
                <mxCell id="189" style="edgeStyle=none;html=1;entryX=0.5;entryY=1;entryDx=0;entryDy=0;fontSize=12;fontColor=#E6E6E6;endArrow=none;endFill=0;strokeColor=#E6E6E6;" edge="1" parent="1" source="190" target="196">
                    <mxGeometry relative="1" as="geometry"/>
                </mxCell>
                <mxCell id="190" value="&lt;span style=&quot;font-size: 16px&quot;&gt;&lt;br&gt;&lt;/span&gt;" style="ellipse;whiteSpace=wrap;html=1;aspect=fixed;strokeColor=none;fillColor=#007FFF;verticalAlign=middle;labelPosition=right;verticalLabelPosition=middle;align=left;fontSize=16;fontStyle=1;fontColor=#E6E6E6;" vertex="1" parent="1">
                    <mxGeometry x="-65" y="1803.09" width="20" height="20" as="geometry"/>
                </mxCell>
                <mxCell id="191" style="edgeStyle=none;html=1;fontSize=12;fontColor=#E6E6E6;endArrow=none;endFill=0;strokeColor=#E6E6E6;" edge="1" parent="1" source="192" target="190">
                    <mxGeometry relative="1" as="geometry"/>
                </mxCell>
                <mxCell id="192" value="&lt;span style=&quot;font-size: 16px&quot;&gt;&lt;br&gt;&lt;/span&gt;" style="ellipse;whiteSpace=wrap;html=1;aspect=fixed;strokeColor=none;fillColor=#007FFF;verticalAlign=middle;labelPosition=right;verticalLabelPosition=middle;align=left;fontSize=16;fontStyle=1;fontColor=#E6E6E6;" vertex="1" parent="1">
                    <mxGeometry x="-65" y="1833.09" width="20" height="20" as="geometry"/>
                </mxCell>
                <mxCell id="193" style="edgeStyle=none;html=1;fontSize=12;fontColor=#E6E6E6;endArrow=none;endFill=0;strokeColor=#E6E6E6;" edge="1" parent="1" source="194" target="192">
                    <mxGeometry relative="1" as="geometry"/>
                </mxCell>
                <mxCell id="194" value="&lt;span style=&quot;font-size: 16px&quot;&gt;&lt;br&gt;&lt;/span&gt;" style="ellipse;whiteSpace=wrap;html=1;aspect=fixed;strokeColor=none;fillColor=#007FFF;verticalAlign=middle;labelPosition=right;verticalLabelPosition=middle;align=left;fontSize=16;fontStyle=1;fontColor=#E6E6E6;" vertex="1" parent="1">
                    <mxGeometry x="-65" y="1863.09" width="20" height="20" as="geometry"/>
                </mxCell>
                <mxCell id="195" style="edgeStyle=none;html=1;fontSize=12;fontColor=#E6E6E6;endArrow=none;endFill=0;strokeColor=#E6E6E6;" edge="1" parent="1" source="196" target="179">
                    <mxGeometry relative="1" as="geometry"/>
                </mxCell>
                <mxCell id="196" value="&lt;span style=&quot;font-size: 16px&quot;&gt;&lt;br&gt;&lt;/span&gt;" style="ellipse;whiteSpace=wrap;html=1;aspect=fixed;strokeColor=none;fillColor=#007FFF;verticalAlign=middle;labelPosition=right;verticalLabelPosition=middle;align=left;fontSize=16;fontStyle=1;fontColor=#E6E6E6;" vertex="1" parent="1">
                    <mxGeometry x="-65" y="1773.09" width="20" height="20" as="geometry"/>
                </mxCell>
                <mxCell id="197" value="" style="rounded=1;whiteSpace=wrap;html=1;labelBackgroundColor=none;fontSize=12;fontColor=#E6E6E6;strokeColor=#E6E6E6;fillColor=none;arcSize=8;" vertex="1" parent="1">
                    <mxGeometry x="-230" y="1883.09" width="50" height="10" as="geometry"/>
                </mxCell>
                <mxCell id="198" value="release" style="text;html=1;strokeColor=none;fillColor=none;align=center;verticalAlign=middle;whiteSpace=wrap;rounded=0;labelBackgroundColor=none;fontSize=12;fontColor=#E6E6E6;" vertex="1" parent="1">
                    <mxGeometry x="-230" y="1893.09" width="50" height="20" as="geometry"/>
                </mxCell>
                <mxCell id="199" value="" style="rounded=1;whiteSpace=wrap;html=1;labelBackgroundColor=none;fontSize=12;fontColor=#E6E6E6;strokeColor=#E6E6E6;fillColor=none;arcSize=8;" vertex="1" parent="1">
                    <mxGeometry x="-80" y="1160.4199999999998" width="50" height="190" as="geometry"/>
                </mxCell>
                <mxCell id="200" value="" style="rounded=1;whiteSpace=wrap;html=1;labelBackgroundColor=none;fontSize=12;fontColor=#E6E6E6;strokeColor=#E6E6E6;fillColor=none;arcSize=8;" vertex="1" parent="1">
                    <mxGeometry x="-150" y="1190.4199999999998" width="50" height="160" as="geometry"/>
                </mxCell>
                <mxCell id="201" value="&lt;span style=&quot;font-size: 16px&quot;&gt;R43&lt;br&gt;&lt;/span&gt;" style="ellipse;whiteSpace=wrap;html=1;aspect=fixed;strokeColor=none;fillColor=#007FFF;verticalAlign=middle;labelPosition=center;verticalLabelPosition=middle;align=center;fontSize=16;fontStyle=1;fontColor=#E6E6E6;" vertex="1" parent="1">
                    <mxGeometry x="-225" y="1040.4199999999998" width="40" height="40" as="geometry"/>
                </mxCell>
                <mxCell id="202" style="edgeStyle=none;html=1;fontSize=12;fontColor=#E6E6E6;endArrow=none;endFill=0;strokeColor=#E6E6E6;" edge="1" parent="1" source="203" target="208">
                    <mxGeometry relative="1" as="geometry"/>
                </mxCell>
                <mxCell id="203" value="&lt;span style=&quot;font-size: 16px&quot;&gt;&lt;br&gt;&lt;/span&gt;" style="ellipse;whiteSpace=wrap;html=1;aspect=fixed;strokeColor=none;fillColor=#007FFF;verticalAlign=middle;labelPosition=right;verticalLabelPosition=middle;align=left;fontSize=16;fontStyle=1;fontColor=#E6E6E6;" vertex="1" parent="1">
                    <mxGeometry x="-135" y="1260.4199999999998" width="20" height="20" as="geometry"/>
                </mxCell>
                <mxCell id="204" style="edgeStyle=none;html=1;fontSize=12;fontColor=#E6E6E6;endArrow=none;endFill=0;strokeColor=#E6E6E6;" edge="1" parent="1" source="205" target="203">
                    <mxGeometry relative="1" as="geometry"/>
                </mxCell>
                <mxCell id="205" value="&lt;span style=&quot;font-size: 16px&quot;&gt;&lt;br&gt;&lt;/span&gt;" style="ellipse;whiteSpace=wrap;html=1;aspect=fixed;strokeColor=none;fillColor=#007FFF;verticalAlign=middle;labelPosition=right;verticalLabelPosition=middle;align=left;fontSize=16;fontStyle=1;fontColor=#E6E6E6;" vertex="1" parent="1">
                    <mxGeometry x="-135" y="1290.4199999999998" width="20" height="20" as="geometry"/>
                </mxCell>
                <mxCell id="206" style="edgeStyle=none;html=1;fontSize=12;fontColor=#E6E6E6;endArrow=none;endFill=0;strokeColor=#E6E6E6;" edge="1" parent="1" source="207" target="205">
                    <mxGeometry relative="1" as="geometry"/>
                </mxCell>
                <mxCell id="207" value="&lt;span style=&quot;font-size: 16px&quot;&gt;&lt;br&gt;&lt;/span&gt;" style="ellipse;whiteSpace=wrap;html=1;aspect=fixed;strokeColor=none;fillColor=#007FFF;verticalAlign=middle;labelPosition=right;verticalLabelPosition=middle;align=left;fontSize=16;fontStyle=1;fontColor=#E6E6E6;" vertex="1" parent="1">
                    <mxGeometry x="-135" y="1320.4199999999998" width="20" height="20" as="geometry"/>
                </mxCell>
                <mxCell id="208" value="&lt;span style=&quot;font-size: 16px&quot;&gt;R11&lt;br&gt;&lt;/span&gt;" style="ellipse;whiteSpace=wrap;html=1;aspect=fixed;strokeColor=none;fillColor=#007FFF;verticalAlign=middle;labelPosition=center;verticalLabelPosition=middle;align=center;fontSize=16;fontStyle=1;fontColor=#E6E6E6;" vertex="1" parent="1">
                    <mxGeometry x="-145" y="1210.4199999999998" width="40" height="40" as="geometry"/>
                </mxCell>
                <mxCell id="209" value="R11" style="text;html=1;strokeColor=none;fillColor=none;align=center;verticalAlign=middle;whiteSpace=wrap;rounded=0;labelBackgroundColor=none;fontSize=12;fontColor=#E6E6E6;" vertex="1" parent="1">
                    <mxGeometry x="-150" y="1170.4199999999998" width="50" height="20" as="geometry"/>
                </mxCell>
                <mxCell id="210" value="R43" style="text;html=1;strokeColor=none;fillColor=none;align=center;verticalAlign=middle;whiteSpace=wrap;rounded=0;labelBackgroundColor=none;fontSize=12;fontColor=#E6E6E6;" vertex="1" parent="1">
                    <mxGeometry x="-65" y="1140.4199999999998" width="50" height="20" as="geometry"/>
                </mxCell>
                <mxCell id="211" style="edgeStyle=none;html=1;entryX=0.5;entryY=1;entryDx=0;entryDy=0;fontSize=12;fontColor=#E6E6E6;endArrow=none;endFill=0;strokeColor=#E6E6E6;" edge="1" parent="1" source="212" target="218">
                    <mxGeometry relative="1" as="geometry"/>
                </mxCell>
                <mxCell id="212" value="&lt;span style=&quot;font-size: 16px&quot;&gt;&lt;br&gt;&lt;/span&gt;" style="ellipse;whiteSpace=wrap;html=1;aspect=fixed;strokeColor=none;fillColor=#007FFF;verticalAlign=middle;labelPosition=right;verticalLabelPosition=middle;align=left;fontSize=16;fontStyle=1;fontColor=#E6E6E6;" vertex="1" parent="1">
                    <mxGeometry x="-215" y="1120.4199999999998" width="20" height="20" as="geometry"/>
                </mxCell>
                <mxCell id="213" style="edgeStyle=none;html=1;fontSize=12;fontColor=#E6E6E6;endArrow=none;endFill=0;strokeColor=#E6E6E6;" edge="1" parent="1" source="214" target="212">
                    <mxGeometry relative="1" as="geometry"/>
                </mxCell>
                <mxCell id="214" value="&lt;span style=&quot;font-size: 16px&quot;&gt;&lt;br&gt;&lt;/span&gt;" style="ellipse;whiteSpace=wrap;html=1;aspect=fixed;strokeColor=none;fillColor=#007FFF;verticalAlign=middle;labelPosition=right;verticalLabelPosition=middle;align=left;fontSize=16;fontStyle=1;fontColor=#E6E6E6;" vertex="1" parent="1">
                    <mxGeometry x="-215" y="1150.4199999999998" width="20" height="20" as="geometry"/>
                </mxCell>
                <mxCell id="215" style="edgeStyle=none;html=1;fontSize=12;fontColor=#E6E6E6;endArrow=none;endFill=0;strokeColor=#E6E6E6;" edge="1" parent="1" source="216" target="214">
                    <mxGeometry relative="1" as="geometry"/>
                </mxCell>
                <mxCell id="216" value="&lt;span style=&quot;font-size: 16px&quot;&gt;&lt;br&gt;&lt;/span&gt;" style="ellipse;whiteSpace=wrap;html=1;aspect=fixed;strokeColor=none;fillColor=#007FFF;verticalAlign=middle;labelPosition=right;verticalLabelPosition=middle;align=left;fontSize=16;fontStyle=1;fontColor=#E6E6E6;" vertex="1" parent="1">
                    <mxGeometry x="-215" y="1180.4199999999998" width="20" height="20" as="geometry"/>
                </mxCell>
                <mxCell id="217" style="edgeStyle=none;html=1;fontSize=12;fontColor=#E6E6E6;endArrow=none;endFill=0;strokeColor=#E6E6E6;" edge="1" parent="1" source="218" target="201">
                    <mxGeometry relative="1" as="geometry"/>
                </mxCell>
                <mxCell id="218" value="&lt;span style=&quot;font-size: 16px&quot;&gt;&lt;br&gt;&lt;/span&gt;" style="ellipse;whiteSpace=wrap;html=1;aspect=fixed;strokeColor=none;fillColor=#007FFF;verticalAlign=middle;labelPosition=right;verticalLabelPosition=middle;align=left;fontSize=16;fontStyle=1;fontColor=#E6E6E6;" vertex="1" parent="1">
                    <mxGeometry x="-215" y="1090.4199999999998" width="20" height="20" as="geometry"/>
                </mxCell>
                <mxCell id="219" value="release" style="text;html=1;strokeColor=none;fillColor=none;align=center;verticalAlign=middle;whiteSpace=wrap;rounded=0;labelBackgroundColor=none;fontSize=12;fontColor=#E6E6E6;" vertex="1" parent="1">
                    <mxGeometry x="-230" y="1353.35" width="50" height="20" as="geometry"/>
                </mxCell>
                <mxCell id="220" value="" style="rounded=1;whiteSpace=wrap;html=1;labelBackgroundColor=none;fontSize=12;fontColor=#E6E6E6;strokeColor=#E6E6E6;fillColor=none;arcSize=8;" vertex="1" parent="1">
                    <mxGeometry x="-310" y="1340.4199999999998" width="50" height="10" as="geometry"/>
                </mxCell>
                <mxCell id="221" value="latest" style="text;html=1;strokeColor=none;fillColor=none;align=center;verticalAlign=middle;whiteSpace=wrap;rounded=0;labelBackgroundColor=none;fontSize=12;fontColor=#E6E6E6;" vertex="1" parent="1">
                    <mxGeometry x="-310" y="1351.6699999999998" width="50" height="20" as="geometry"/>
                </mxCell>
                <mxCell id="222" style="edgeStyle=none;html=1;fontSize=12;fontColor=#E6E6E6;endArrow=none;endFill=0;strokeColor=#E6E6E6;" edge="1" parent="1" source="223" target="229">
                    <mxGeometry relative="1" as="geometry"/>
                </mxCell>
                <mxCell id="223" value="&lt;span style=&quot;font-size: 16px&quot;&gt;&lt;br&gt;&lt;/span&gt;" style="ellipse;whiteSpace=wrap;html=1;aspect=fixed;strokeColor=none;fillColor=#007FFF;verticalAlign=middle;labelPosition=right;verticalLabelPosition=middle;align=left;fontSize=16;fontStyle=1;fontColor=#E6E6E6;" vertex="1" parent="1">
                    <mxGeometry x="-215" y="1260.4199999999998" width="20" height="20" as="geometry"/>
                </mxCell>
                <mxCell id="224" style="edgeStyle=none;html=1;fontSize=12;fontColor=#E6E6E6;endArrow=none;endFill=0;strokeColor=#E6E6E6;" edge="1" parent="1" source="225" target="223">
                    <mxGeometry relative="1" as="geometry"/>
                </mxCell>
                <mxCell id="225" value="&lt;span style=&quot;font-size: 16px&quot;&gt;&lt;br&gt;&lt;/span&gt;" style="ellipse;whiteSpace=wrap;html=1;aspect=fixed;strokeColor=none;fillColor=#007FFF;verticalAlign=middle;labelPosition=right;verticalLabelPosition=middle;align=left;fontSize=16;fontStyle=1;fontColor=#E6E6E6;" vertex="1" parent="1">
                    <mxGeometry x="-215" y="1290.4199999999998" width="20" height="20" as="geometry"/>
                </mxCell>
                <mxCell id="226" style="edgeStyle=none;html=1;fontSize=12;fontColor=#E6E6E6;endArrow=none;endFill=0;strokeColor=#E6E6E6;" edge="1" parent="1" source="227" target="225">
                    <mxGeometry relative="1" as="geometry"/>
                </mxCell>
                <mxCell id="227" value="&lt;span style=&quot;font-size: 16px&quot;&gt;&lt;br&gt;&lt;/span&gt;" style="ellipse;whiteSpace=wrap;html=1;aspect=fixed;strokeColor=none;fillColor=#007FFF;verticalAlign=middle;labelPosition=right;verticalLabelPosition=middle;align=left;fontSize=16;fontStyle=1;fontColor=#E6E6E6;" vertex="1" parent="1">
                    <mxGeometry x="-215" y="1320.4199999999998" width="20" height="20" as="geometry"/>
                </mxCell>
                <mxCell id="228" style="edgeStyle=orthogonalEdgeStyle;curved=1;html=1;entryX=0.5;entryY=1;entryDx=0;entryDy=0;labelBackgroundColor=#1A1A1A;fontSize=12;fontColor=#E6E6E6;endArrow=none;endFill=0;strokeColor=#E6E6E6;" edge="1" parent="1" source="229" target="216">
                    <mxGeometry relative="1" as="geometry"/>
                </mxCell>
                <mxCell id="229" value="&lt;span style=&quot;font-size: 16px&quot;&gt;R11&lt;br&gt;&lt;/span&gt;" style="ellipse;whiteSpace=wrap;html=1;aspect=fixed;strokeColor=none;fillColor=#007FFF;verticalAlign=middle;labelPosition=center;verticalLabelPosition=middle;align=center;fontSize=16;fontStyle=1;fontColor=#E6E6E6;" vertex="1" parent="1">
                    <mxGeometry x="-225" y="1210.4199999999998" width="40" height="40" as="geometry"/>
                </mxCell>
                <mxCell id="230" value="&lt;span style=&quot;font-size: 16px&quot;&gt;R43&lt;br&gt;&lt;/span&gt;" style="ellipse;whiteSpace=wrap;html=1;aspect=fixed;strokeColor=none;fillColor=#007FFF;verticalAlign=middle;labelPosition=center;verticalLabelPosition=middle;align=center;fontSize=16;fontStyle=1;fontColor=#E6E6E6;" vertex="1" parent="1">
                    <mxGeometry x="-75" y="1180.4199999999998" width="40" height="40" as="geometry"/>
                </mxCell>
                <mxCell id="231" style="edgeStyle=none;html=1;entryX=0.5;entryY=1;entryDx=0;entryDy=0;fontSize=12;fontColor=#E6E6E6;endArrow=none;endFill=0;strokeColor=#E6E6E6;" edge="1" parent="1" source="232" target="238">
                    <mxGeometry relative="1" as="geometry"/>
                </mxCell>
                <mxCell id="232" value="&lt;span style=&quot;font-size: 16px&quot;&gt;&lt;br&gt;&lt;/span&gt;" style="ellipse;whiteSpace=wrap;html=1;aspect=fixed;strokeColor=none;fillColor=#007FFF;verticalAlign=middle;labelPosition=right;verticalLabelPosition=middle;align=left;fontSize=16;fontStyle=1;fontColor=#E6E6E6;" vertex="1" parent="1">
                    <mxGeometry x="-65" y="1260.4199999999998" width="20" height="20" as="geometry"/>
                </mxCell>
                <mxCell id="233" style="edgeStyle=none;html=1;fontSize=12;fontColor=#E6E6E6;endArrow=none;endFill=0;strokeColor=#E6E6E6;" edge="1" parent="1" source="234" target="232">
                    <mxGeometry relative="1" as="geometry"/>
                </mxCell>
                <mxCell id="234" value="&lt;span style=&quot;font-size: 16px&quot;&gt;&lt;br&gt;&lt;/span&gt;" style="ellipse;whiteSpace=wrap;html=1;aspect=fixed;strokeColor=none;fillColor=#007FFF;verticalAlign=middle;labelPosition=right;verticalLabelPosition=middle;align=left;fontSize=16;fontStyle=1;fontColor=#E6E6E6;" vertex="1" parent="1">
                    <mxGeometry x="-65" y="1290.4199999999998" width="20" height="20" as="geometry"/>
                </mxCell>
                <mxCell id="235" style="edgeStyle=none;html=1;fontSize=12;fontColor=#E6E6E6;endArrow=none;endFill=0;strokeColor=#E6E6E6;" edge="1" parent="1" source="236" target="234">
                    <mxGeometry relative="1" as="geometry"/>
                </mxCell>
                <mxCell id="236" value="&lt;span style=&quot;font-size: 16px&quot;&gt;&lt;br&gt;&lt;/span&gt;" style="ellipse;whiteSpace=wrap;html=1;aspect=fixed;strokeColor=none;fillColor=#007FFF;verticalAlign=middle;labelPosition=right;verticalLabelPosition=middle;align=left;fontSize=16;fontStyle=1;fontColor=#E6E6E6;" vertex="1" parent="1">
                    <mxGeometry x="-65" y="1320.4199999999998" width="20" height="20" as="geometry"/>
                </mxCell>
                <mxCell id="237" style="edgeStyle=none;html=1;fontSize=12;fontColor=#E6E6E6;endArrow=none;endFill=0;strokeColor=#E6E6E6;" edge="1" parent="1" source="238" target="230">
                    <mxGeometry relative="1" as="geometry"/>
                </mxCell>
                <mxCell id="238" value="&lt;span style=&quot;font-size: 16px&quot;&gt;&lt;br&gt;&lt;/span&gt;" style="ellipse;whiteSpace=wrap;html=1;aspect=fixed;strokeColor=none;fillColor=#007FFF;verticalAlign=middle;labelPosition=right;verticalLabelPosition=middle;align=left;fontSize=16;fontStyle=1;fontColor=#E6E6E6;" vertex="1" parent="1">
                    <mxGeometry x="-65" y="1230.4199999999998" width="20" height="20" as="geometry"/>
                </mxCell>
                <mxCell id="239" value="" style="rounded=1;whiteSpace=wrap;html=1;labelBackgroundColor=none;fontSize=12;fontColor=#E6E6E6;strokeColor=#E6E6E6;fillColor=none;arcSize=8;" vertex="1" parent="1">
                    <mxGeometry x="190" y="1029.08" width="50" height="320" as="geometry"/>
                </mxCell>
                <mxCell id="240" value="" style="rounded=1;whiteSpace=wrap;html=1;labelBackgroundColor=none;fontSize=12;fontColor=#CC0000;strokeColor=#CC0000;fillColor=none;arcSize=8;" vertex="1" parent="1">
                    <mxGeometry x="340" y="1701.75" width="50" height="190" as="geometry"/>
                </mxCell>
                <mxCell id="241" value="" style="rounded=1;whiteSpace=wrap;html=1;labelBackgroundColor=none;fontSize=12;fontColor=#CC0000;strokeColor=#CC0000;fillColor=none;arcSize=8;" vertex="1" parent="1">
                    <mxGeometry x="270" y="1731.75" width="50" height="160" as="geometry"/>
                </mxCell>
                <mxCell id="242" value="&lt;span style=&quot;font-size: 16px&quot;&gt;R43&lt;br&gt;&lt;/span&gt;" style="ellipse;whiteSpace=wrap;html=1;aspect=fixed;strokeColor=none;fillColor=#007FFF;verticalAlign=middle;labelPosition=center;verticalLabelPosition=middle;align=center;fontSize=16;fontStyle=1;fontColor=#E6E6E6;" vertex="1" parent="1">
                    <mxGeometry x="345" y="1721.75" width="40" height="40" as="geometry"/>
                </mxCell>
                <mxCell id="243" style="edgeStyle=none;html=1;fontSize=12;fontColor=#E6E6E6;endArrow=none;endFill=0;strokeColor=#E6E6E6;" edge="1" parent="1" source="244" target="249">
                    <mxGeometry relative="1" as="geometry"/>
                </mxCell>
                <mxCell id="244" value="&lt;span style=&quot;font-size: 16px&quot;&gt;&lt;br&gt;&lt;/span&gt;" style="ellipse;whiteSpace=wrap;html=1;aspect=fixed;strokeColor=none;fillColor=#007FFF;verticalAlign=middle;labelPosition=right;verticalLabelPosition=middle;align=left;fontSize=16;fontStyle=1;fontColor=#E6E6E6;" vertex="1" parent="1">
                    <mxGeometry x="285" y="1801.75" width="20" height="20" as="geometry"/>
                </mxCell>
                <mxCell id="245" style="edgeStyle=none;html=1;fontSize=12;fontColor=#E6E6E6;endArrow=none;endFill=0;strokeColor=#E6E6E6;" edge="1" parent="1" source="246" target="244">
                    <mxGeometry relative="1" as="geometry"/>
                </mxCell>
                <mxCell id="246" value="&lt;span style=&quot;font-size: 16px&quot;&gt;&lt;br&gt;&lt;/span&gt;" style="ellipse;whiteSpace=wrap;html=1;aspect=fixed;strokeColor=none;fillColor=#007FFF;verticalAlign=middle;labelPosition=right;verticalLabelPosition=middle;align=left;fontSize=16;fontStyle=1;fontColor=#E6E6E6;" vertex="1" parent="1">
                    <mxGeometry x="285" y="1831.75" width="20" height="20" as="geometry"/>
                </mxCell>
                <mxCell id="247" style="edgeStyle=none;html=1;fontSize=12;fontColor=#E6E6E6;endArrow=none;endFill=0;strokeColor=#E6E6E6;" edge="1" parent="1" source="248" target="246">
                    <mxGeometry relative="1" as="geometry"/>
                </mxCell>
                <mxCell id="248" value="&lt;span style=&quot;font-size: 16px&quot;&gt;&lt;br&gt;&lt;/span&gt;" style="ellipse;whiteSpace=wrap;html=1;aspect=fixed;strokeColor=none;fillColor=#007FFF;verticalAlign=middle;labelPosition=right;verticalLabelPosition=middle;align=left;fontSize=16;fontStyle=1;fontColor=#E6E6E6;" vertex="1" parent="1">
                    <mxGeometry x="285" y="1861.75" width="20" height="20" as="geometry"/>
                </mxCell>
                <mxCell id="249" value="&lt;span style=&quot;font-size: 16px&quot;&gt;R11&lt;br&gt;&lt;/span&gt;" style="ellipse;whiteSpace=wrap;html=1;aspect=fixed;strokeColor=none;fillColor=#007FFF;verticalAlign=middle;labelPosition=center;verticalLabelPosition=middle;align=center;fontSize=16;fontStyle=1;fontColor=#E6E6E6;" vertex="1" parent="1">
                    <mxGeometry x="275" y="1751.75" width="40" height="40" as="geometry"/>
                </mxCell>
                <mxCell id="250" value="R11" style="text;html=1;strokeColor=none;fillColor=none;align=center;verticalAlign=middle;whiteSpace=wrap;rounded=0;labelBackgroundColor=none;fontSize=12;fontColor=#CC0000;" vertex="1" parent="1">
                    <mxGeometry x="270" y="1891.75" width="50" height="20" as="geometry"/>
                </mxCell>
                <mxCell id="251" value="R43" style="text;html=1;strokeColor=none;fillColor=none;align=center;verticalAlign=middle;whiteSpace=wrap;rounded=0;labelBackgroundColor=none;fontSize=12;fontColor=#CC0000;" vertex="1" parent="1">
                    <mxGeometry x="340" y="1891.75" width="50" height="20" as="geometry"/>
                </mxCell>
                <mxCell id="252" style="edgeStyle=none;html=1;entryX=0.5;entryY=1;entryDx=0;entryDy=0;fontSize=12;fontColor=#E6E6E6;endArrow=none;endFill=0;strokeColor=#E6E6E6;" edge="1" parent="1" source="253" target="259">
                    <mxGeometry relative="1" as="geometry"/>
                </mxCell>
                <mxCell id="253" value="&lt;span style=&quot;font-size: 16px&quot;&gt;&lt;br&gt;&lt;/span&gt;" style="ellipse;whiteSpace=wrap;html=1;aspect=fixed;strokeColor=none;fillColor=#007FFF;verticalAlign=middle;labelPosition=right;verticalLabelPosition=middle;align=left;fontSize=16;fontStyle=1;fontColor=#E6E6E6;" vertex="1" parent="1">
                    <mxGeometry x="355" y="1801.75" width="20" height="20" as="geometry"/>
                </mxCell>
                <mxCell id="254" style="edgeStyle=none;html=1;fontSize=12;fontColor=#E6E6E6;endArrow=none;endFill=0;strokeColor=#E6E6E6;" edge="1" parent="1" source="255" target="253">
                    <mxGeometry relative="1" as="geometry"/>
                </mxCell>
                <mxCell id="255" value="&lt;span style=&quot;font-size: 16px&quot;&gt;&lt;br&gt;&lt;/span&gt;" style="ellipse;whiteSpace=wrap;html=1;aspect=fixed;strokeColor=none;fillColor=#007FFF;verticalAlign=middle;labelPosition=right;verticalLabelPosition=middle;align=left;fontSize=16;fontStyle=1;fontColor=#E6E6E6;" vertex="1" parent="1">
                    <mxGeometry x="355" y="1831.75" width="20" height="20" as="geometry"/>
                </mxCell>
                <mxCell id="256" style="edgeStyle=none;html=1;fontSize=12;fontColor=#E6E6E6;endArrow=none;endFill=0;strokeColor=#E6E6E6;" edge="1" parent="1" source="257" target="255">
                    <mxGeometry relative="1" as="geometry"/>
                </mxCell>
                <mxCell id="257" value="&lt;span style=&quot;font-size: 16px&quot;&gt;&lt;br&gt;&lt;/span&gt;" style="ellipse;whiteSpace=wrap;html=1;aspect=fixed;strokeColor=none;fillColor=#007FFF;verticalAlign=middle;labelPosition=right;verticalLabelPosition=middle;align=left;fontSize=16;fontStyle=1;fontColor=#E6E6E6;" vertex="1" parent="1">
                    <mxGeometry x="355" y="1861.75" width="20" height="20" as="geometry"/>
                </mxCell>
                <mxCell id="258" style="edgeStyle=none;html=1;fontSize=12;fontColor=#E6E6E6;endArrow=none;endFill=0;strokeColor=#E6E6E6;" edge="1" parent="1" source="259" target="242">
                    <mxGeometry relative="1" as="geometry"/>
                </mxCell>
                <mxCell id="259" value="&lt;span style=&quot;font-size: 16px&quot;&gt;&lt;br&gt;&lt;/span&gt;" style="ellipse;whiteSpace=wrap;html=1;aspect=fixed;strokeColor=none;fillColor=#007FFF;verticalAlign=middle;labelPosition=right;verticalLabelPosition=middle;align=left;fontSize=16;fontStyle=1;fontColor=#E6E6E6;" vertex="1" parent="1">
                    <mxGeometry x="355" y="1771.75" width="20" height="20" as="geometry"/>
                </mxCell>
                <mxCell id="260" value="" style="rounded=1;whiteSpace=wrap;html=1;labelBackgroundColor=none;fontSize=12;fontColor=#E6E6E6;strokeColor=#E6E6E6;fillColor=none;arcSize=8;" vertex="1" parent="1">
                    <mxGeometry x="190" y="1881.75" width="50" height="10" as="geometry"/>
                </mxCell>
                <mxCell id="261" value="release" style="text;html=1;strokeColor=none;fillColor=none;align=center;verticalAlign=middle;whiteSpace=wrap;rounded=0;labelBackgroundColor=none;fontSize=12;fontColor=#E6E6E6;" vertex="1" parent="1">
                    <mxGeometry x="190" y="1891.75" width="50" height="20" as="geometry"/>
                </mxCell>
                <mxCell id="262" value="" style="rounded=1;whiteSpace=wrap;html=1;labelBackgroundColor=none;fontSize=12;fontColor=#CC0000;strokeColor=#CC0000;fillColor=none;arcSize=8;" vertex="1" parent="1">
                    <mxGeometry x="340" y="1159.08" width="50" height="190" as="geometry"/>
                </mxCell>
                <mxCell id="263" value="" style="rounded=1;whiteSpace=wrap;html=1;labelBackgroundColor=none;fontSize=12;fontColor=#CC0000;strokeColor=#CC0000;fillColor=none;arcSize=8;" vertex="1" parent="1">
                    <mxGeometry x="270" y="1189.08" width="50" height="160" as="geometry"/>
                </mxCell>
                <mxCell id="264" value="&lt;span style=&quot;font-size: 16px&quot;&gt;R43&lt;br&gt;&lt;/span&gt;" style="ellipse;whiteSpace=wrap;html=1;aspect=fixed;strokeColor=none;fillColor=#007FFF;verticalAlign=middle;labelPosition=center;verticalLabelPosition=middle;align=center;fontSize=16;fontStyle=1;fontColor=#E6E6E6;" vertex="1" parent="1">
                    <mxGeometry x="195" y="1039.08" width="40" height="40" as="geometry"/>
                </mxCell>
                <mxCell id="265" style="edgeStyle=none;html=1;fontSize=12;fontColor=#E6E6E6;endArrow=none;endFill=0;strokeColor=#E6E6E6;" edge="1" parent="1" source="266" target="271">
                    <mxGeometry relative="1" as="geometry"/>
                </mxCell>
                <mxCell id="266" value="&lt;span style=&quot;font-size: 16px&quot;&gt;&lt;br&gt;&lt;/span&gt;" style="ellipse;whiteSpace=wrap;html=1;aspect=fixed;strokeColor=none;fillColor=#007FFF;verticalAlign=middle;labelPosition=right;verticalLabelPosition=middle;align=left;fontSize=16;fontStyle=1;fontColor=#E6E6E6;" vertex="1" parent="1">
                    <mxGeometry x="285" y="1259.08" width="20" height="20" as="geometry"/>
                </mxCell>
                <mxCell id="267" style="edgeStyle=none;html=1;fontSize=12;fontColor=#E6E6E6;endArrow=none;endFill=0;strokeColor=#E6E6E6;" edge="1" parent="1" source="268" target="266">
                    <mxGeometry relative="1" as="geometry"/>
                </mxCell>
                <mxCell id="268" value="&lt;span style=&quot;font-size: 16px&quot;&gt;&lt;br&gt;&lt;/span&gt;" style="ellipse;whiteSpace=wrap;html=1;aspect=fixed;strokeColor=none;fillColor=#007FFF;verticalAlign=middle;labelPosition=right;verticalLabelPosition=middle;align=left;fontSize=16;fontStyle=1;fontColor=#E6E6E6;" vertex="1" parent="1">
                    <mxGeometry x="285" y="1289.08" width="20" height="20" as="geometry"/>
                </mxCell>
                <mxCell id="269" style="edgeStyle=none;html=1;fontSize=12;fontColor=#E6E6E6;endArrow=none;endFill=0;strokeColor=#E6E6E6;" edge="1" parent="1" source="270" target="268">
                    <mxGeometry relative="1" as="geometry"/>
                </mxCell>
                <mxCell id="270" value="&lt;span style=&quot;font-size: 16px&quot;&gt;&lt;br&gt;&lt;/span&gt;" style="ellipse;whiteSpace=wrap;html=1;aspect=fixed;strokeColor=none;fillColor=#007FFF;verticalAlign=middle;labelPosition=right;verticalLabelPosition=middle;align=left;fontSize=16;fontStyle=1;fontColor=#E6E6E6;" vertex="1" parent="1">
                    <mxGeometry x="285" y="1319.08" width="20" height="20" as="geometry"/>
                </mxCell>
                <mxCell id="271" value="&lt;span style=&quot;font-size: 16px&quot;&gt;R11&lt;br&gt;&lt;/span&gt;" style="ellipse;whiteSpace=wrap;html=1;aspect=fixed;strokeColor=none;fillColor=#007FFF;verticalAlign=middle;labelPosition=center;verticalLabelPosition=middle;align=center;fontSize=16;fontStyle=1;fontColor=#E6E6E6;" vertex="1" parent="1">
                    <mxGeometry x="275" y="1209.08" width="40" height="40" as="geometry"/>
                </mxCell>
                <mxCell id="272" value="R11" style="text;html=1;strokeColor=none;fillColor=none;align=center;verticalAlign=middle;whiteSpace=wrap;rounded=0;labelBackgroundColor=none;fontSize=12;fontColor=#CC0000;" vertex="1" parent="1">
                    <mxGeometry x="270" y="1169.08" width="50" height="20" as="geometry"/>
                </mxCell>
                <mxCell id="273" value="R43" style="text;html=1;strokeColor=none;fillColor=none;align=center;verticalAlign=middle;whiteSpace=wrap;rounded=0;labelBackgroundColor=none;fontSize=12;fontColor=#CC0000;" vertex="1" parent="1">
                    <mxGeometry x="340" y="1139.08" width="50" height="20" as="geometry"/>
                </mxCell>
                <mxCell id="274" style="edgeStyle=none;html=1;entryX=0.5;entryY=1;entryDx=0;entryDy=0;fontSize=12;fontColor=#E6E6E6;endArrow=none;endFill=0;strokeColor=#E6E6E6;" edge="1" parent="1" source="275" target="281">
                    <mxGeometry relative="1" as="geometry"/>
                </mxCell>
                <mxCell id="275" value="&lt;span style=&quot;font-size: 16px&quot;&gt;&lt;br&gt;&lt;/span&gt;" style="ellipse;whiteSpace=wrap;html=1;aspect=fixed;strokeColor=none;fillColor=#007FFF;verticalAlign=middle;labelPosition=right;verticalLabelPosition=middle;align=left;fontSize=16;fontStyle=1;fontColor=#E6E6E6;" vertex="1" parent="1">
                    <mxGeometry x="205" y="1119.08" width="20" height="20" as="geometry"/>
                </mxCell>
                <mxCell id="276" style="edgeStyle=none;html=1;fontSize=12;fontColor=#E6E6E6;endArrow=none;endFill=0;strokeColor=#E6E6E6;" edge="1" parent="1" source="277" target="275">
                    <mxGeometry relative="1" as="geometry"/>
                </mxCell>
                <mxCell id="277" value="&lt;span style=&quot;font-size: 16px&quot;&gt;&lt;br&gt;&lt;/span&gt;" style="ellipse;whiteSpace=wrap;html=1;aspect=fixed;strokeColor=none;fillColor=#007FFF;verticalAlign=middle;labelPosition=right;verticalLabelPosition=middle;align=left;fontSize=16;fontStyle=1;fontColor=#E6E6E6;" vertex="1" parent="1">
                    <mxGeometry x="205" y="1149.08" width="20" height="20" as="geometry"/>
                </mxCell>
                <mxCell id="278" style="edgeStyle=none;html=1;fontSize=12;fontColor=#E6E6E6;endArrow=none;endFill=0;strokeColor=#E6E6E6;" edge="1" parent="1" source="279" target="277">
                    <mxGeometry relative="1" as="geometry"/>
                </mxCell>
                <mxCell id="279" value="&lt;span style=&quot;font-size: 16px&quot;&gt;&lt;br&gt;&lt;/span&gt;" style="ellipse;whiteSpace=wrap;html=1;aspect=fixed;strokeColor=none;fillColor=#007FFF;verticalAlign=middle;labelPosition=right;verticalLabelPosition=middle;align=left;fontSize=16;fontStyle=1;fontColor=#E6E6E6;" vertex="1" parent="1">
                    <mxGeometry x="205" y="1179.08" width="20" height="20" as="geometry"/>
                </mxCell>
                <mxCell id="280" style="edgeStyle=none;html=1;fontSize=12;fontColor=#E6E6E6;endArrow=none;endFill=0;strokeColor=#E6E6E6;" edge="1" parent="1" source="281" target="264">
                    <mxGeometry relative="1" as="geometry"/>
                </mxCell>
                <mxCell id="281" value="&lt;span style=&quot;font-size: 16px&quot;&gt;&lt;br&gt;&lt;/span&gt;" style="ellipse;whiteSpace=wrap;html=1;aspect=fixed;strokeColor=none;fillColor=#007FFF;verticalAlign=middle;labelPosition=right;verticalLabelPosition=middle;align=left;fontSize=16;fontStyle=1;fontColor=#E6E6E6;" vertex="1" parent="1">
                    <mxGeometry x="205" y="1089.08" width="20" height="20" as="geometry"/>
                </mxCell>
                <mxCell id="282" value="release" style="text;html=1;strokeColor=none;fillColor=none;align=center;verticalAlign=middle;whiteSpace=wrap;rounded=0;labelBackgroundColor=none;fontSize=12;fontColor=#E6E6E6;" vertex="1" parent="1">
                    <mxGeometry x="190" y="1352.01" width="50" height="20" as="geometry"/>
                </mxCell>
                <mxCell id="283" value="latest" style="text;html=1;strokeColor=none;fillColor=none;align=center;verticalAlign=middle;whiteSpace=wrap;rounded=0;labelBackgroundColor=none;fontSize=12;fontColor=#E6E6E6;" vertex="1" parent="1">
                    <mxGeometry x="100" y="1353.01" width="50" height="20" as="geometry"/>
                </mxCell>
                <mxCell id="284" style="edgeStyle=none;html=1;fontSize=12;fontColor=#E6E6E6;endArrow=none;endFill=0;strokeColor=#E6E6E6;" edge="1" parent="1" source="285" target="291">
                    <mxGeometry relative="1" as="geometry"/>
                </mxCell>
                <mxCell id="285" value="&lt;span style=&quot;font-size: 16px&quot;&gt;&lt;br&gt;&lt;/span&gt;" style="ellipse;whiteSpace=wrap;html=1;aspect=fixed;strokeColor=none;fillColor=#007FFF;verticalAlign=middle;labelPosition=right;verticalLabelPosition=middle;align=left;fontSize=16;fontStyle=1;fontColor=#E6E6E6;" vertex="1" parent="1">
                    <mxGeometry x="205" y="1259.08" width="20" height="20" as="geometry"/>
                </mxCell>
                <mxCell id="286" style="edgeStyle=none;html=1;fontSize=12;fontColor=#E6E6E6;endArrow=none;endFill=0;strokeColor=#E6E6E6;" edge="1" parent="1" source="287" target="285">
                    <mxGeometry relative="1" as="geometry"/>
                </mxCell>
                <mxCell id="287" value="&lt;span style=&quot;font-size: 16px&quot;&gt;&lt;br&gt;&lt;/span&gt;" style="ellipse;whiteSpace=wrap;html=1;aspect=fixed;strokeColor=none;fillColor=#007FFF;verticalAlign=middle;labelPosition=right;verticalLabelPosition=middle;align=left;fontSize=16;fontStyle=1;fontColor=#E6E6E6;" vertex="1" parent="1">
                    <mxGeometry x="205" y="1289.08" width="20" height="20" as="geometry"/>
                </mxCell>
                <mxCell id="288" style="edgeStyle=none;html=1;fontSize=12;fontColor=#E6E6E6;endArrow=none;endFill=0;strokeColor=#E6E6E6;" edge="1" parent="1" source="289" target="287">
                    <mxGeometry relative="1" as="geometry"/>
                </mxCell>
                <mxCell id="289" value="&lt;span style=&quot;font-size: 16px&quot;&gt;&lt;br&gt;&lt;/span&gt;" style="ellipse;whiteSpace=wrap;html=1;aspect=fixed;strokeColor=none;fillColor=#007FFF;verticalAlign=middle;labelPosition=right;verticalLabelPosition=middle;align=left;fontSize=16;fontStyle=1;fontColor=#E6E6E6;" vertex="1" parent="1">
                    <mxGeometry x="205" y="1319.08" width="20" height="20" as="geometry"/>
                </mxCell>
                <mxCell id="290" style="edgeStyle=orthogonalEdgeStyle;curved=1;html=1;entryX=0.5;entryY=1;entryDx=0;entryDy=0;labelBackgroundColor=#1A1A1A;fontSize=12;fontColor=#E6E6E6;endArrow=none;endFill=0;strokeColor=#E6E6E6;" edge="1" parent="1" source="291" target="279">
                    <mxGeometry relative="1" as="geometry"/>
                </mxCell>
                <mxCell id="291" value="&lt;span style=&quot;font-size: 16px&quot;&gt;R11&lt;br&gt;&lt;/span&gt;" style="ellipse;whiteSpace=wrap;html=1;aspect=fixed;strokeColor=none;fillColor=#007FFF;verticalAlign=middle;labelPosition=center;verticalLabelPosition=middle;align=center;fontSize=16;fontStyle=1;fontColor=#E6E6E6;" vertex="1" parent="1">
                    <mxGeometry x="195" y="1209.08" width="40" height="40" as="geometry"/>
                </mxCell>
                <mxCell id="292" value="&lt;span style=&quot;font-size: 16px&quot;&gt;R43&lt;br&gt;&lt;/span&gt;" style="ellipse;whiteSpace=wrap;html=1;aspect=fixed;strokeColor=none;fillColor=#007FFF;verticalAlign=middle;labelPosition=center;verticalLabelPosition=middle;align=center;fontSize=16;fontStyle=1;fontColor=#E6E6E6;" vertex="1" parent="1">
                    <mxGeometry x="345" y="1179.08" width="40" height="40" as="geometry"/>
                </mxCell>
                <mxCell id="293" style="edgeStyle=none;html=1;entryX=0.5;entryY=1;entryDx=0;entryDy=0;fontSize=12;fontColor=#E6E6E6;endArrow=none;endFill=0;strokeColor=#E6E6E6;" edge="1" parent="1" source="294" target="300">
                    <mxGeometry relative="1" as="geometry"/>
                </mxCell>
                <mxCell id="294" value="&lt;span style=&quot;font-size: 16px&quot;&gt;&lt;br&gt;&lt;/span&gt;" style="ellipse;whiteSpace=wrap;html=1;aspect=fixed;strokeColor=none;fillColor=#007FFF;verticalAlign=middle;labelPosition=right;verticalLabelPosition=middle;align=left;fontSize=16;fontStyle=1;fontColor=#E6E6E6;" vertex="1" parent="1">
                    <mxGeometry x="355" y="1259.08" width="20" height="20" as="geometry"/>
                </mxCell>
                <mxCell id="295" style="edgeStyle=none;html=1;fontSize=12;fontColor=#E6E6E6;endArrow=none;endFill=0;strokeColor=#E6E6E6;" edge="1" parent="1" source="296" target="294">
                    <mxGeometry relative="1" as="geometry"/>
                </mxCell>
                <mxCell id="296" value="&lt;span style=&quot;font-size: 16px&quot;&gt;&lt;br&gt;&lt;/span&gt;" style="ellipse;whiteSpace=wrap;html=1;aspect=fixed;strokeColor=none;fillColor=#007FFF;verticalAlign=middle;labelPosition=right;verticalLabelPosition=middle;align=left;fontSize=16;fontStyle=1;fontColor=#E6E6E6;" vertex="1" parent="1">
                    <mxGeometry x="355" y="1289.08" width="20" height="20" as="geometry"/>
                </mxCell>
                <mxCell id="297" style="edgeStyle=none;html=1;fontSize=12;fontColor=#E6E6E6;endArrow=none;endFill=0;strokeColor=#E6E6E6;" edge="1" parent="1" source="298" target="296">
                    <mxGeometry relative="1" as="geometry"/>
                </mxCell>
                <mxCell id="298" value="&lt;span style=&quot;font-size: 16px&quot;&gt;&lt;br&gt;&lt;/span&gt;" style="ellipse;whiteSpace=wrap;html=1;aspect=fixed;strokeColor=none;fillColor=#007FFF;verticalAlign=middle;labelPosition=right;verticalLabelPosition=middle;align=left;fontSize=16;fontStyle=1;fontColor=#E6E6E6;" vertex="1" parent="1">
                    <mxGeometry x="355" y="1319.08" width="20" height="20" as="geometry"/>
                </mxCell>
                <mxCell id="299" style="edgeStyle=none;html=1;fontSize=12;fontColor=#E6E6E6;endArrow=none;endFill=0;strokeColor=#E6E6E6;" edge="1" parent="1" source="300" target="292">
                    <mxGeometry relative="1" as="geometry"/>
                </mxCell>
                <mxCell id="300" value="&lt;span style=&quot;font-size: 16px&quot;&gt;&lt;br&gt;&lt;/span&gt;" style="ellipse;whiteSpace=wrap;html=1;aspect=fixed;strokeColor=none;fillColor=#007FFF;verticalAlign=middle;labelPosition=right;verticalLabelPosition=middle;align=left;fontSize=16;fontStyle=1;fontColor=#E6E6E6;" vertex="1" parent="1">
                    <mxGeometry x="355" y="1229.08" width="20" height="20" as="geometry"/>
                </mxCell>
                <mxCell id="301" value="" style="rounded=1;whiteSpace=wrap;html=1;labelBackgroundColor=none;fontSize=12;fontColor=#E6E6E6;strokeColor=#E6E6E6;fillColor=none;arcSize=8;" vertex="1" parent="1">
                    <mxGeometry x="100" y="1030.42" width="50" height="320" as="geometry"/>
                </mxCell>
                <mxCell id="302" value="&lt;span style=&quot;font-size: 16px&quot;&gt;R43&lt;br&gt;&lt;/span&gt;" style="ellipse;whiteSpace=wrap;html=1;aspect=fixed;strokeColor=none;fillColor=#007FFF;verticalAlign=middle;labelPosition=center;verticalLabelPosition=middle;align=center;fontSize=16;fontStyle=1;fontColor=#E6E6E6;" vertex="1" parent="1">
                    <mxGeometry x="105" y="1040.42" width="40" height="40" as="geometry"/>
                </mxCell>
                <mxCell id="303" style="edgeStyle=none;html=1;entryX=0.5;entryY=1;entryDx=0;entryDy=0;fontSize=12;fontColor=#E6E6E6;endArrow=none;endFill=0;strokeColor=#E6E6E6;" edge="1" parent="1" source="304" target="310">
                    <mxGeometry relative="1" as="geometry"/>
                </mxCell>
                <mxCell id="304" value="&lt;span style=&quot;font-size: 16px&quot;&gt;&lt;br&gt;&lt;/span&gt;" style="ellipse;whiteSpace=wrap;html=1;aspect=fixed;strokeColor=none;fillColor=#007FFF;verticalAlign=middle;labelPosition=right;verticalLabelPosition=middle;align=left;fontSize=16;fontStyle=1;fontColor=#E6E6E6;" vertex="1" parent="1">
                    <mxGeometry x="115" y="1120.42" width="20" height="20" as="geometry"/>
                </mxCell>
                <mxCell id="305" style="edgeStyle=none;html=1;fontSize=12;fontColor=#E6E6E6;endArrow=none;endFill=0;strokeColor=#E6E6E6;" edge="1" parent="1" source="306" target="304">
                    <mxGeometry relative="1" as="geometry"/>
                </mxCell>
                <mxCell id="306" value="&lt;span style=&quot;font-size: 16px&quot;&gt;&lt;br&gt;&lt;/span&gt;" style="ellipse;whiteSpace=wrap;html=1;aspect=fixed;strokeColor=none;fillColor=#007FFF;verticalAlign=middle;labelPosition=right;verticalLabelPosition=middle;align=left;fontSize=16;fontStyle=1;fontColor=#E6E6E6;" vertex="1" parent="1">
                    <mxGeometry x="115" y="1150.42" width="20" height="20" as="geometry"/>
                </mxCell>
                <mxCell id="307" style="edgeStyle=none;html=1;fontSize=12;fontColor=#E6E6E6;endArrow=none;endFill=0;strokeColor=#E6E6E6;" edge="1" parent="1" source="308" target="306">
                    <mxGeometry relative="1" as="geometry"/>
                </mxCell>
                <mxCell id="308" value="&lt;span style=&quot;font-size: 16px&quot;&gt;&lt;br&gt;&lt;/span&gt;" style="ellipse;whiteSpace=wrap;html=1;aspect=fixed;strokeColor=none;fillColor=#007FFF;verticalAlign=middle;labelPosition=right;verticalLabelPosition=middle;align=left;fontSize=16;fontStyle=1;fontColor=#E6E6E6;" vertex="1" parent="1">
                    <mxGeometry x="115" y="1180.42" width="20" height="20" as="geometry"/>
                </mxCell>
                <mxCell id="309" style="edgeStyle=none;html=1;fontSize=12;fontColor=#E6E6E6;endArrow=none;endFill=0;strokeColor=#E6E6E6;" edge="1" parent="1" source="310" target="302">
                    <mxGeometry relative="1" as="geometry"/>
                </mxCell>
                <mxCell id="310" value="&lt;span style=&quot;font-size: 16px&quot;&gt;&lt;br&gt;&lt;/span&gt;" style="ellipse;whiteSpace=wrap;html=1;aspect=fixed;strokeColor=none;fillColor=#007FFF;verticalAlign=middle;labelPosition=right;verticalLabelPosition=middle;align=left;fontSize=16;fontStyle=1;fontColor=#E6E6E6;" vertex="1" parent="1">
                    <mxGeometry x="115" y="1090.42" width="20" height="20" as="geometry"/>
                </mxCell>
                <mxCell id="311" style="edgeStyle=none;html=1;fontSize=12;fontColor=#E6E6E6;endArrow=none;endFill=0;strokeColor=#E6E6E6;" edge="1" parent="1" source="312" target="318">
                    <mxGeometry relative="1" as="geometry"/>
                </mxCell>
                <mxCell id="312" value="&lt;span style=&quot;font-size: 16px&quot;&gt;&lt;br&gt;&lt;/span&gt;" style="ellipse;whiteSpace=wrap;html=1;aspect=fixed;strokeColor=none;fillColor=#007FFF;verticalAlign=middle;labelPosition=right;verticalLabelPosition=middle;align=left;fontSize=16;fontStyle=1;fontColor=#E6E6E6;" vertex="1" parent="1">
                    <mxGeometry x="115" y="1260.42" width="20" height="20" as="geometry"/>
                </mxCell>
                <mxCell id="313" style="edgeStyle=none;html=1;fontSize=12;fontColor=#E6E6E6;endArrow=none;endFill=0;strokeColor=#E6E6E6;" edge="1" parent="1" source="314" target="312">
                    <mxGeometry relative="1" as="geometry"/>
                </mxCell>
                <mxCell id="314" value="&lt;span style=&quot;font-size: 16px&quot;&gt;&lt;br&gt;&lt;/span&gt;" style="ellipse;whiteSpace=wrap;html=1;aspect=fixed;strokeColor=none;fillColor=#007FFF;verticalAlign=middle;labelPosition=right;verticalLabelPosition=middle;align=left;fontSize=16;fontStyle=1;fontColor=#E6E6E6;" vertex="1" parent="1">
                    <mxGeometry x="115" y="1290.42" width="20" height="20" as="geometry"/>
                </mxCell>
                <mxCell id="315" style="edgeStyle=none;html=1;fontSize=12;fontColor=#E6E6E6;endArrow=none;endFill=0;strokeColor=#E6E6E6;" edge="1" parent="1" source="316" target="314">
                    <mxGeometry relative="1" as="geometry"/>
                </mxCell>
                <mxCell id="316" value="&lt;span style=&quot;font-size: 16px&quot;&gt;&lt;br&gt;&lt;/span&gt;" style="ellipse;whiteSpace=wrap;html=1;aspect=fixed;strokeColor=none;fillColor=#007FFF;verticalAlign=middle;labelPosition=right;verticalLabelPosition=middle;align=left;fontSize=16;fontStyle=1;fontColor=#E6E6E6;" vertex="1" parent="1">
                    <mxGeometry x="115" y="1320.42" width="20" height="20" as="geometry"/>
                </mxCell>
                <mxCell id="317" style="edgeStyle=orthogonalEdgeStyle;curved=1;html=1;entryX=0.5;entryY=1;entryDx=0;entryDy=0;labelBackgroundColor=#1A1A1A;fontSize=12;fontColor=#E6E6E6;endArrow=none;endFill=0;strokeColor=#E6E6E6;" edge="1" parent="1" source="318" target="308">
                    <mxGeometry relative="1" as="geometry"/>
                </mxCell>
                <mxCell id="318" value="&lt;span style=&quot;font-size: 16px&quot;&gt;R11&lt;br&gt;&lt;/span&gt;" style="ellipse;whiteSpace=wrap;html=1;aspect=fixed;strokeColor=none;fillColor=#007FFF;verticalAlign=middle;labelPosition=center;verticalLabelPosition=middle;align=center;fontSize=16;fontStyle=1;fontColor=#E6E6E6;" vertex="1" parent="1">
                    <mxGeometry x="105" y="1210.42" width="40" height="40" as="geometry"/>
                </mxCell>
                <mxCell id="319" value="U1" style="sketch=0;outlineConnect=0;fontColor=#E6E6E6;gradientColor=none;fillColor=#E6E6E6;strokeColor=none;dashed=0;verticalLabelPosition=bottom;verticalAlign=top;align=center;html=1;fontSize=12;fontStyle=0;aspect=fixed;pointerEvents=1;shape=mxgraph.aws4.user;labelBackgroundColor=none;" vertex="1" parent="1">
                    <mxGeometry x="-840" y="1921.75" width="40" height="40" as="geometry"/>
                </mxCell>
                <mxCell id="320" value="U2" style="sketch=0;outlineConnect=0;fontColor=#E6E6E6;gradientColor=none;fillColor=#E6E6E6;strokeColor=none;dashed=0;verticalLabelPosition=bottom;verticalAlign=top;align=center;html=1;fontSize=12;fontStyle=0;aspect=fixed;pointerEvents=1;shape=mxgraph.aws4.user;labelBackgroundColor=none;" vertex="1" parent="1">
                    <mxGeometry x="-770" y="1921.75" width="40" height="40" as="geometry"/>
                </mxCell>
                <mxCell id="321" value="U1" style="sketch=0;outlineConnect=0;fontColor=#E6E6E6;gradientColor=none;fillColor=#E6E6E6;strokeColor=none;dashed=0;verticalLabelPosition=bottom;verticalAlign=top;align=center;html=1;fontSize=12;fontStyle=0;aspect=fixed;pointerEvents=1;shape=mxgraph.aws4.user;labelBackgroundColor=none;" vertex="1" parent="1">
                    <mxGeometry x="-500" y="1921.75" width="40" height="40" as="geometry"/>
                </mxCell>
                <mxCell id="322" value="U2" style="sketch=0;outlineConnect=0;fontColor=#E6E6E6;gradientColor=none;fillColor=#E6E6E6;strokeColor=none;dashed=0;verticalLabelPosition=bottom;verticalAlign=top;align=center;html=1;fontSize=12;fontStyle=0;aspect=fixed;pointerEvents=1;shape=mxgraph.aws4.user;labelBackgroundColor=none;" vertex="1" parent="1">
                    <mxGeometry x="-430" y="1921.75" width="40" height="40" as="geometry"/>
                </mxCell>
                <mxCell id="323" value="U1" style="sketch=0;outlineConnect=0;fontColor=#E6E6E6;gradientColor=none;fillColor=#E6E6E6;strokeColor=none;dashed=0;verticalLabelPosition=bottom;verticalAlign=top;align=center;html=1;fontSize=12;fontStyle=0;aspect=fixed;pointerEvents=1;shape=mxgraph.aws4.user;labelBackgroundColor=none;" vertex="1" parent="1">
                    <mxGeometry x="275" y="1921.75" width="40" height="40" as="geometry"/>
                </mxCell>
                <mxCell id="324" value="U2" style="sketch=0;outlineConnect=0;fontColor=#E6E6E6;gradientColor=none;fillColor=#E6E6E6;strokeColor=none;dashed=0;verticalLabelPosition=bottom;verticalAlign=top;align=center;html=1;fontSize=12;fontStyle=0;aspect=fixed;pointerEvents=1;shape=mxgraph.aws4.user;labelBackgroundColor=none;" vertex="1" parent="1">
                    <mxGeometry x="345" y="1921.75" width="40" height="40" as="geometry"/>
                </mxCell>
                <mxCell id="325" value="U1" style="sketch=0;outlineConnect=0;fontColor=#E6E6E6;gradientColor=none;fillColor=#E6E6E6;strokeColor=none;dashed=0;verticalLabelPosition=bottom;verticalAlign=top;align=center;html=1;fontSize=12;fontStyle=0;aspect=fixed;pointerEvents=1;shape=mxgraph.aws4.user;labelBackgroundColor=none;" vertex="1" parent="1">
                    <mxGeometry x="-145" y="1923.09" width="40" height="40" as="geometry"/>
                </mxCell>
                <mxCell id="326" value="U2" style="sketch=0;outlineConnect=0;fontColor=#E6E6E6;gradientColor=none;fillColor=#E6E6E6;strokeColor=none;dashed=0;verticalLabelPosition=bottom;verticalAlign=top;align=center;html=1;fontSize=12;fontStyle=0;aspect=fixed;pointerEvents=1;shape=mxgraph.aws4.user;labelBackgroundColor=none;" vertex="1" parent="1">
                    <mxGeometry x="-75" y="1923.09" width="40" height="40" as="geometry"/>
                </mxCell>
                <mxCell id="327" value="pull" style="edgeStyle=orthogonalEdgeStyle;curved=1;html=1;entryX=0.5;entryY=0;entryDx=0;entryDy=0;labelBackgroundColor=#1A1A1A;fontSize=12;fontColor=#E6E6E6;endArrow=open;endFill=0;strokeColor=#E6E6E6;" edge="1" parent="1" source="328" target="330">
                    <mxGeometry relative="1" as="geometry"/>
                </mxCell>
                <mxCell id="328" value="" style="rounded=1;whiteSpace=wrap;html=1;labelBackgroundColor=none;fontSize=12;fontColor=#E6E6E6;strokeColor=#E6E6E6;fillColor=none;arcSize=8;" vertex="1" parent="1">
                    <mxGeometry x="550" y="1030.67" width="50" height="320" as="geometry"/>
                </mxCell>
                <mxCell id="329" value="checkout" style="edgeStyle=orthogonalEdgeStyle;curved=1;html=1;entryX=0.027;entryY=0.761;entryDx=0;entryDy=0;entryPerimeter=0;labelBackgroundColor=#1A1A1A;fontSize=12;fontColor=#E6E6E6;endArrow=open;endFill=0;strokeColor=#E6E6E6;" edge="1" parent="1" source="330" target="371">
                    <mxGeometry x="-0.1697" y="-27" relative="1" as="geometry">
                        <Array as="points">
                            <mxPoint x="575.5" y="1791.67"/>
                        </Array>
                        <mxPoint as="offset"/>
                    </mxGeometry>
                </mxCell>
                <mxCell id="330" value="" style="rounded=1;whiteSpace=wrap;html=1;labelBackgroundColor=none;fontSize=12;fontColor=#E6E6E6;strokeColor=#E6E6E6;fillColor=none;arcSize=8;" vertex="1" parent="1">
                    <mxGeometry x="550" y="1891.67" width="50" height="10" as="geometry"/>
                </mxCell>
                <mxCell id="331" value="release" style="text;html=1;strokeColor=none;fillColor=none;align=center;verticalAlign=middle;whiteSpace=wrap;rounded=0;labelBackgroundColor=none;fontSize=12;fontColor=#E6E6E6;" vertex="1" parent="1">
                    <mxGeometry x="550" y="1901.67" width="50" height="20" as="geometry"/>
                </mxCell>
                <mxCell id="332" value="&lt;span style=&quot;font-size: 16px&quot;&gt;R43&lt;br&gt;&lt;/span&gt;" style="ellipse;whiteSpace=wrap;html=1;aspect=fixed;strokeColor=none;fillColor=#007FFF;verticalAlign=middle;labelPosition=center;verticalLabelPosition=middle;align=center;fontSize=16;fontStyle=1;fontColor=#E6E6E6;" vertex="1" parent="1">
                    <mxGeometry x="555" y="1040.67" width="40" height="40" as="geometry"/>
                </mxCell>
                <mxCell id="333" style="edgeStyle=none;html=1;entryX=0.5;entryY=1;entryDx=0;entryDy=0;fontSize=12;fontColor=#E6E6E6;endArrow=none;endFill=0;strokeColor=#E6E6E6;" edge="1" parent="1" source="334" target="340">
                    <mxGeometry relative="1" as="geometry"/>
                </mxCell>
                <mxCell id="334" value="&lt;span style=&quot;font-size: 16px&quot;&gt;&lt;br&gt;&lt;/span&gt;" style="ellipse;whiteSpace=wrap;html=1;aspect=fixed;strokeColor=none;fillColor=#007FFF;verticalAlign=middle;labelPosition=right;verticalLabelPosition=middle;align=left;fontSize=16;fontStyle=1;fontColor=#E6E6E6;" vertex="1" parent="1">
                    <mxGeometry x="565" y="1120.67" width="20" height="20" as="geometry"/>
                </mxCell>
                <mxCell id="335" style="edgeStyle=none;html=1;fontSize=12;fontColor=#E6E6E6;endArrow=none;endFill=0;strokeColor=#E6E6E6;" edge="1" parent="1" source="336" target="334">
                    <mxGeometry relative="1" as="geometry"/>
                </mxCell>
                <mxCell id="336" value="&lt;span style=&quot;font-size: 16px&quot;&gt;&lt;br&gt;&lt;/span&gt;" style="ellipse;whiteSpace=wrap;html=1;aspect=fixed;strokeColor=none;fillColor=#007FFF;verticalAlign=middle;labelPosition=right;verticalLabelPosition=middle;align=left;fontSize=16;fontStyle=1;fontColor=#E6E6E6;" vertex="1" parent="1">
                    <mxGeometry x="565" y="1150.67" width="20" height="20" as="geometry"/>
                </mxCell>
                <mxCell id="337" style="edgeStyle=none;html=1;fontSize=12;fontColor=#E6E6E6;endArrow=none;endFill=0;strokeColor=#E6E6E6;" edge="1" parent="1" source="338" target="336">
                    <mxGeometry relative="1" as="geometry"/>
                </mxCell>
                <mxCell id="338" value="&lt;span style=&quot;font-size: 16px&quot;&gt;&lt;br&gt;&lt;/span&gt;" style="ellipse;whiteSpace=wrap;html=1;aspect=fixed;strokeColor=none;fillColor=#007FFF;verticalAlign=middle;labelPosition=right;verticalLabelPosition=middle;align=left;fontSize=16;fontStyle=1;fontColor=#E6E6E6;" vertex="1" parent="1">
                    <mxGeometry x="565" y="1180.67" width="20" height="20" as="geometry"/>
                </mxCell>
                <mxCell id="339" style="edgeStyle=none;html=1;fontSize=12;fontColor=#E6E6E6;endArrow=none;endFill=0;strokeColor=#E6E6E6;" edge="1" parent="1" source="340" target="332">
                    <mxGeometry relative="1" as="geometry"/>
                </mxCell>
                <mxCell id="340" value="&lt;span style=&quot;font-size: 16px&quot;&gt;&lt;br&gt;&lt;/span&gt;" style="ellipse;whiteSpace=wrap;html=1;aspect=fixed;strokeColor=none;fillColor=#007FFF;verticalAlign=middle;labelPosition=right;verticalLabelPosition=middle;align=left;fontSize=16;fontStyle=1;fontColor=#E6E6E6;" vertex="1" parent="1">
                    <mxGeometry x="565" y="1090.67" width="20" height="20" as="geometry"/>
                </mxCell>
                <mxCell id="342" value="latest" style="text;html=1;strokeColor=none;fillColor=none;align=center;verticalAlign=middle;whiteSpace=wrap;rounded=0;labelBackgroundColor=none;fontSize=12;fontColor=#E6E6E6;" vertex="1" parent="1">
                    <mxGeometry x="460" y="1351.67" width="50" height="20" as="geometry"/>
                </mxCell>
                <mxCell id="343" style="edgeStyle=none;html=1;fontSize=12;fontColor=#E6E6E6;endArrow=none;endFill=0;strokeColor=#E6E6E6;" edge="1" parent="1" source="344" target="350">
                    <mxGeometry relative="1" as="geometry"/>
                </mxCell>
                <mxCell id="344" value="&lt;span style=&quot;font-size: 16px&quot;&gt;&lt;br&gt;&lt;/span&gt;" style="ellipse;whiteSpace=wrap;html=1;aspect=fixed;strokeColor=none;fillColor=#007FFF;verticalAlign=middle;labelPosition=right;verticalLabelPosition=middle;align=left;fontSize=16;fontStyle=1;fontColor=#E6E6E6;" vertex="1" parent="1">
                    <mxGeometry x="565" y="1260.67" width="20" height="20" as="geometry"/>
                </mxCell>
                <mxCell id="345" style="edgeStyle=none;html=1;fontSize=12;fontColor=#E6E6E6;endArrow=none;endFill=0;strokeColor=#E6E6E6;" edge="1" parent="1" source="346" target="344">
                    <mxGeometry relative="1" as="geometry"/>
                </mxCell>
                <mxCell id="346" value="&lt;span style=&quot;font-size: 16px&quot;&gt;&lt;br&gt;&lt;/span&gt;" style="ellipse;whiteSpace=wrap;html=1;aspect=fixed;strokeColor=none;fillColor=#007FFF;verticalAlign=middle;labelPosition=right;verticalLabelPosition=middle;align=left;fontSize=16;fontStyle=1;fontColor=#E6E6E6;" vertex="1" parent="1">
                    <mxGeometry x="565" y="1290.67" width="20" height="20" as="geometry"/>
                </mxCell>
                <mxCell id="347" style="edgeStyle=none;html=1;fontSize=12;fontColor=#E6E6E6;endArrow=none;endFill=0;strokeColor=#E6E6E6;" edge="1" parent="1" source="348" target="346">
                    <mxGeometry relative="1" as="geometry"/>
                </mxCell>
                <mxCell id="348" value="&lt;span style=&quot;font-size: 16px&quot;&gt;&lt;br&gt;&lt;/span&gt;" style="ellipse;whiteSpace=wrap;html=1;aspect=fixed;strokeColor=none;fillColor=#007FFF;verticalAlign=middle;labelPosition=right;verticalLabelPosition=middle;align=left;fontSize=16;fontStyle=1;fontColor=#E6E6E6;" vertex="1" parent="1">
                    <mxGeometry x="565" y="1320.67" width="20" height="20" as="geometry"/>
                </mxCell>
                <mxCell id="349" style="edgeStyle=orthogonalEdgeStyle;curved=1;html=1;entryX=0.5;entryY=1;entryDx=0;entryDy=0;labelBackgroundColor=#1A1A1A;fontSize=12;fontColor=#E6E6E6;endArrow=none;endFill=0;strokeColor=#E6E6E6;" edge="1" parent="1" source="350" target="338">
                    <mxGeometry relative="1" as="geometry"/>
                </mxCell>
                <mxCell id="350" value="&lt;span style=&quot;font-size: 16px&quot;&gt;R11&lt;br&gt;&lt;/span&gt;" style="ellipse;whiteSpace=wrap;html=1;aspect=fixed;strokeColor=none;fillColor=#007FFF;verticalAlign=middle;labelPosition=center;verticalLabelPosition=middle;align=center;fontSize=16;fontStyle=1;fontColor=#E6E6E6;" vertex="1" parent="1">
                    <mxGeometry x="555" y="1210.67" width="40" height="40" as="geometry"/>
                </mxCell>
                <mxCell id="351" value="" style="rounded=1;whiteSpace=wrap;html=1;labelBackgroundColor=none;fontSize=12;fontColor=#E6E6E6;strokeColor=#E6E6E6;fillColor=none;arcSize=8;" vertex="1" parent="1">
                    <mxGeometry x="460" y="1032.0100000000002" width="50" height="320" as="geometry"/>
                </mxCell>
                <mxCell id="352" value="&lt;span style=&quot;font-size: 16px&quot;&gt;R43&lt;br&gt;&lt;/span&gt;" style="ellipse;whiteSpace=wrap;html=1;aspect=fixed;strokeColor=none;fillColor=#007FFF;verticalAlign=middle;labelPosition=center;verticalLabelPosition=middle;align=center;fontSize=16;fontStyle=1;fontColor=#E6E6E6;" vertex="1" parent="1">
                    <mxGeometry x="465" y="1042.0100000000002" width="40" height="40" as="geometry"/>
                </mxCell>
                <mxCell id="353" style="edgeStyle=none;html=1;entryX=0.5;entryY=1;entryDx=0;entryDy=0;fontSize=12;fontColor=#E6E6E6;endArrow=none;endFill=0;strokeColor=#E6E6E6;" edge="1" parent="1" source="354" target="360">
                    <mxGeometry relative="1" as="geometry"/>
                </mxCell>
                <mxCell id="354" value="&lt;span style=&quot;font-size: 16px&quot;&gt;&lt;br&gt;&lt;/span&gt;" style="ellipse;whiteSpace=wrap;html=1;aspect=fixed;strokeColor=none;fillColor=#007FFF;verticalAlign=middle;labelPosition=right;verticalLabelPosition=middle;align=left;fontSize=16;fontStyle=1;fontColor=#E6E6E6;" vertex="1" parent="1">
                    <mxGeometry x="475" y="1122.0100000000002" width="20" height="20" as="geometry"/>
                </mxCell>
                <mxCell id="355" style="edgeStyle=none;html=1;fontSize=12;fontColor=#E6E6E6;endArrow=none;endFill=0;strokeColor=#E6E6E6;" edge="1" parent="1" source="356" target="354">
                    <mxGeometry relative="1" as="geometry"/>
                </mxCell>
                <mxCell id="356" value="&lt;span style=&quot;font-size: 16px&quot;&gt;&lt;br&gt;&lt;/span&gt;" style="ellipse;whiteSpace=wrap;html=1;aspect=fixed;strokeColor=none;fillColor=#007FFF;verticalAlign=middle;labelPosition=right;verticalLabelPosition=middle;align=left;fontSize=16;fontStyle=1;fontColor=#E6E6E6;" vertex="1" parent="1">
                    <mxGeometry x="475" y="1152.0100000000002" width="20" height="20" as="geometry"/>
                </mxCell>
                <mxCell id="357" style="edgeStyle=none;html=1;fontSize=12;fontColor=#E6E6E6;endArrow=none;endFill=0;strokeColor=#E6E6E6;" edge="1" parent="1" source="358" target="356">
                    <mxGeometry relative="1" as="geometry"/>
                </mxCell>
                <mxCell id="358" value="&lt;span style=&quot;font-size: 16px&quot;&gt;&lt;br&gt;&lt;/span&gt;" style="ellipse;whiteSpace=wrap;html=1;aspect=fixed;strokeColor=none;fillColor=#007FFF;verticalAlign=middle;labelPosition=right;verticalLabelPosition=middle;align=left;fontSize=16;fontStyle=1;fontColor=#E6E6E6;" vertex="1" parent="1">
                    <mxGeometry x="475" y="1182.0100000000002" width="20" height="20" as="geometry"/>
                </mxCell>
                <mxCell id="359" style="edgeStyle=none;html=1;fontSize=12;fontColor=#E6E6E6;endArrow=none;endFill=0;strokeColor=#E6E6E6;" edge="1" parent="1" source="360" target="352">
                    <mxGeometry relative="1" as="geometry"/>
                </mxCell>
                <mxCell id="360" value="&lt;span style=&quot;font-size: 16px&quot;&gt;&lt;br&gt;&lt;/span&gt;" style="ellipse;whiteSpace=wrap;html=1;aspect=fixed;strokeColor=none;fillColor=#007FFF;verticalAlign=middle;labelPosition=right;verticalLabelPosition=middle;align=left;fontSize=16;fontStyle=1;fontColor=#E6E6E6;" vertex="1" parent="1">
                    <mxGeometry x="475" y="1092.0100000000002" width="20" height="20" as="geometry"/>
                </mxCell>
                <mxCell id="361" style="edgeStyle=none;html=1;fontSize=12;fontColor=#E6E6E6;endArrow=none;endFill=0;strokeColor=#E6E6E6;" edge="1" parent="1" source="362" target="368">
                    <mxGeometry relative="1" as="geometry"/>
                </mxCell>
                <mxCell id="362" value="&lt;span style=&quot;font-size: 16px&quot;&gt;&lt;br&gt;&lt;/span&gt;" style="ellipse;whiteSpace=wrap;html=1;aspect=fixed;strokeColor=none;fillColor=#007FFF;verticalAlign=middle;labelPosition=right;verticalLabelPosition=middle;align=left;fontSize=16;fontStyle=1;fontColor=#E6E6E6;" vertex="1" parent="1">
                    <mxGeometry x="475" y="1262.0100000000002" width="20" height="20" as="geometry"/>
                </mxCell>
                <mxCell id="363" style="edgeStyle=none;html=1;fontSize=12;fontColor=#E6E6E6;endArrow=none;endFill=0;strokeColor=#E6E6E6;" edge="1" parent="1" source="364" target="362">
                    <mxGeometry relative="1" as="geometry"/>
                </mxCell>
                <mxCell id="364" value="&lt;span style=&quot;font-size: 16px&quot;&gt;&lt;br&gt;&lt;/span&gt;" style="ellipse;whiteSpace=wrap;html=1;aspect=fixed;strokeColor=none;fillColor=#007FFF;verticalAlign=middle;labelPosition=right;verticalLabelPosition=middle;align=left;fontSize=16;fontStyle=1;fontColor=#E6E6E6;" vertex="1" parent="1">
                    <mxGeometry x="475" y="1292.0100000000002" width="20" height="20" as="geometry"/>
                </mxCell>
                <mxCell id="365" style="edgeStyle=none;html=1;fontSize=12;fontColor=#E6E6E6;endArrow=none;endFill=0;strokeColor=#E6E6E6;" edge="1" parent="1" source="366" target="364">
                    <mxGeometry relative="1" as="geometry"/>
                </mxCell>
                <mxCell id="366" value="&lt;span style=&quot;font-size: 16px&quot;&gt;&lt;br&gt;&lt;/span&gt;" style="ellipse;whiteSpace=wrap;html=1;aspect=fixed;strokeColor=none;fillColor=#007FFF;verticalAlign=middle;labelPosition=right;verticalLabelPosition=middle;align=left;fontSize=16;fontStyle=1;fontColor=#E6E6E6;" vertex="1" parent="1">
                    <mxGeometry x="475" y="1322.0100000000002" width="20" height="20" as="geometry"/>
                </mxCell>
                <mxCell id="367" style="edgeStyle=orthogonalEdgeStyle;curved=1;html=1;entryX=0.5;entryY=1;entryDx=0;entryDy=0;labelBackgroundColor=#1A1A1A;fontSize=12;fontColor=#E6E6E6;endArrow=none;endFill=0;strokeColor=#E6E6E6;" edge="1" parent="1" source="368" target="358">
                    <mxGeometry relative="1" as="geometry"/>
                </mxCell>
                <mxCell id="368" value="&lt;span style=&quot;font-size: 16px&quot;&gt;R11&lt;br&gt;&lt;/span&gt;" style="ellipse;whiteSpace=wrap;html=1;aspect=fixed;strokeColor=none;fillColor=#007FFF;verticalAlign=middle;labelPosition=center;verticalLabelPosition=middle;align=center;fontSize=16;fontStyle=1;fontColor=#E6E6E6;" vertex="1" parent="1">
                    <mxGeometry x="465" y="1212.0100000000002" width="40" height="40" as="geometry"/>
                </mxCell>
                <mxCell id="369" value="R0" style="text;html=1;strokeColor=none;fillColor=none;align=center;verticalAlign=middle;whiteSpace=wrap;rounded=0;labelBackgroundColor=none;fontSize=12;fontColor=#E6E6E6;" vertex="1" parent="1">
                    <mxGeometry x="642.5" y="1901.5" width="50" height="20" as="geometry"/>
                </mxCell>
                <mxCell id="370" value="push" style="edgeStyle=orthogonalEdgeStyle;curved=1;html=1;labelBackgroundColor=#1A1A1A;fontSize=12;fontColor=#E6E6E6;endArrow=open;endFill=0;strokeColor=#E6E6E6;" edge="1" parent="1" source="371" target="425">
                    <mxGeometry relative="1" as="geometry"/>
                </mxCell>
                <mxCell id="371" value="" style="rounded=1;whiteSpace=wrap;html=1;labelBackgroundColor=none;fontSize=12;fontColor=#E6E6E6;strokeColor=#E6E6E6;fillColor=none;arcSize=8;" vertex="1" parent="1">
                    <mxGeometry x="642.5" y="1441.67" width="50" height="460.17" as="geometry"/>
                </mxCell>
                <mxCell id="372" style="edgeStyle=orthogonalEdgeStyle;curved=1;html=1;labelBackgroundColor=#1A1A1A;fontSize=16;fontColor=#FF0000;strokeColor=#E6E6E6;endArrow=none;endFill=0;" edge="1" parent="1" source="373" target="395">
                    <mxGeometry relative="1" as="geometry"/>
                </mxCell>
                <mxCell id="373" value="&lt;span style=&quot;font-size: 16px&quot;&gt;R43&lt;br&gt;&lt;/span&gt;" style="ellipse;whiteSpace=wrap;html=1;aspect=fixed;strokeColor=none;fillColor=#007FFF;verticalAlign=middle;labelPosition=center;verticalLabelPosition=middle;align=center;fontSize=16;fontStyle=1;fontColor=#E6E6E6;" vertex="1" parent="1">
                    <mxGeometry x="647.5" y="1591.8400000000001" width="40" height="40" as="geometry"/>
                </mxCell>
                <mxCell id="374" style="edgeStyle=none;html=1;entryX=0.5;entryY=1;entryDx=0;entryDy=0;fontSize=12;fontColor=#E6E6E6;endArrow=none;endFill=0;strokeColor=#E6E6E6;" edge="1" parent="1" source="375" target="381">
                    <mxGeometry relative="1" as="geometry"/>
                </mxCell>
                <mxCell id="375" value="&lt;span style=&quot;font-size: 16px&quot;&gt;&lt;br&gt;&lt;/span&gt;" style="ellipse;whiteSpace=wrap;html=1;aspect=fixed;strokeColor=none;fillColor=#007FFF;verticalAlign=middle;labelPosition=right;verticalLabelPosition=middle;align=left;fontSize=16;fontStyle=1;fontColor=#E6E6E6;" vertex="1" parent="1">
                    <mxGeometry x="657.5" y="1671.8400000000001" width="20" height="20" as="geometry"/>
                </mxCell>
                <mxCell id="376" style="edgeStyle=none;html=1;fontSize=12;fontColor=#E6E6E6;endArrow=none;endFill=0;strokeColor=#E6E6E6;" edge="1" parent="1" source="377" target="375">
                    <mxGeometry relative="1" as="geometry"/>
                </mxCell>
                <mxCell id="377" value="&lt;span style=&quot;font-size: 16px&quot;&gt;&lt;br&gt;&lt;/span&gt;" style="ellipse;whiteSpace=wrap;html=1;aspect=fixed;strokeColor=none;fillColor=#007FFF;verticalAlign=middle;labelPosition=right;verticalLabelPosition=middle;align=left;fontSize=16;fontStyle=1;fontColor=#E6E6E6;" vertex="1" parent="1">
                    <mxGeometry x="657.5" y="1701.8400000000001" width="20" height="20" as="geometry"/>
                </mxCell>
                <mxCell id="378" style="edgeStyle=none;html=1;fontSize=12;fontColor=#E6E6E6;endArrow=none;endFill=0;strokeColor=#E6E6E6;" edge="1" parent="1" source="379" target="377">
                    <mxGeometry relative="1" as="geometry"/>
                </mxCell>
                <mxCell id="379" value="&lt;span style=&quot;font-size: 16px&quot;&gt;&lt;br&gt;&lt;/span&gt;" style="ellipse;whiteSpace=wrap;html=1;aspect=fixed;strokeColor=none;fillColor=#007FFF;verticalAlign=middle;labelPosition=right;verticalLabelPosition=middle;align=left;fontSize=16;fontStyle=1;fontColor=#E6E6E6;" vertex="1" parent="1">
                    <mxGeometry x="657.5" y="1731.8400000000001" width="20" height="20" as="geometry"/>
                </mxCell>
                <mxCell id="380" style="edgeStyle=none;html=1;fontSize=12;fontColor=#E6E6E6;endArrow=none;endFill=0;strokeColor=#E6E6E6;" edge="1" parent="1" source="381" target="373">
                    <mxGeometry relative="1" as="geometry"/>
                </mxCell>
                <mxCell id="381" value="&lt;span style=&quot;font-size: 16px&quot;&gt;&lt;br&gt;&lt;/span&gt;" style="ellipse;whiteSpace=wrap;html=1;aspect=fixed;strokeColor=none;fillColor=#007FFF;verticalAlign=middle;labelPosition=right;verticalLabelPosition=middle;align=left;fontSize=16;fontStyle=1;fontColor=#E6E6E6;" vertex="1" parent="1">
                    <mxGeometry x="657.5" y="1641.8400000000001" width="20" height="20" as="geometry"/>
                </mxCell>
                <mxCell id="382" style="edgeStyle=none;html=1;fontSize=12;fontColor=#E6E6E6;endArrow=none;endFill=0;strokeColor=#E6E6E6;" edge="1" parent="1" source="383" target="389">
                    <mxGeometry relative="1" as="geometry"/>
                </mxCell>
                <mxCell id="383" value="&lt;span style=&quot;font-size: 16px&quot;&gt;&lt;br&gt;&lt;/span&gt;" style="ellipse;whiteSpace=wrap;html=1;aspect=fixed;strokeColor=none;fillColor=#007FFF;verticalAlign=middle;labelPosition=right;verticalLabelPosition=middle;align=left;fontSize=16;fontStyle=1;fontColor=#E6E6E6;" vertex="1" parent="1">
                    <mxGeometry x="657.5" y="1811.8400000000001" width="20" height="20" as="geometry"/>
                </mxCell>
                <mxCell id="384" style="edgeStyle=none;html=1;fontSize=12;fontColor=#E6E6E6;endArrow=none;endFill=0;strokeColor=#E6E6E6;" edge="1" parent="1" source="385" target="383">
                    <mxGeometry relative="1" as="geometry"/>
                </mxCell>
                <mxCell id="385" value="&lt;span style=&quot;font-size: 16px&quot;&gt;&lt;br&gt;&lt;/span&gt;" style="ellipse;whiteSpace=wrap;html=1;aspect=fixed;strokeColor=none;fillColor=#007FFF;verticalAlign=middle;labelPosition=right;verticalLabelPosition=middle;align=left;fontSize=16;fontStyle=1;fontColor=#E6E6E6;" vertex="1" parent="1">
                    <mxGeometry x="657.5" y="1841.8400000000001" width="20" height="20" as="geometry"/>
                </mxCell>
                <mxCell id="386" style="edgeStyle=none;html=1;fontSize=12;fontColor=#E6E6E6;endArrow=none;endFill=0;strokeColor=#E6E6E6;" edge="1" parent="1" source="387" target="385">
                    <mxGeometry relative="1" as="geometry"/>
                </mxCell>
                <mxCell id="387" value="&lt;span style=&quot;font-size: 16px&quot;&gt;&lt;br&gt;&lt;/span&gt;" style="ellipse;whiteSpace=wrap;html=1;aspect=fixed;strokeColor=none;fillColor=#007FFF;verticalAlign=middle;labelPosition=right;verticalLabelPosition=middle;align=left;fontSize=16;fontStyle=1;fontColor=#E6E6E6;" vertex="1" parent="1">
                    <mxGeometry x="657.5" y="1871.8400000000001" width="20" height="20" as="geometry"/>
                </mxCell>
                <mxCell id="388" style="edgeStyle=orthogonalEdgeStyle;curved=1;html=1;entryX=0.5;entryY=1;entryDx=0;entryDy=0;labelBackgroundColor=#1A1A1A;fontSize=12;fontColor=#E6E6E6;endArrow=none;endFill=0;strokeColor=#E6E6E6;" edge="1" parent="1" source="389" target="379">
                    <mxGeometry relative="1" as="geometry"/>
                </mxCell>
                <mxCell id="389" value="&lt;span style=&quot;font-size: 16px&quot;&gt;R11&lt;br&gt;&lt;/span&gt;" style="ellipse;whiteSpace=wrap;html=1;aspect=fixed;strokeColor=none;fillColor=#007FFF;verticalAlign=middle;labelPosition=center;verticalLabelPosition=middle;align=center;fontSize=16;fontStyle=1;fontColor=#E6E6E6;" vertex="1" parent="1">
                    <mxGeometry x="647.5" y="1761.8400000000001" width="40" height="40" as="geometry"/>
                </mxCell>
                <mxCell id="390" style="edgeStyle=none;html=1;fontSize=12;fontColor=#E6E6E6;endArrow=none;endFill=0;strokeColor=#E6E6E6;" edge="1" parent="1" source="391" target="396">
                    <mxGeometry relative="1" as="geometry"/>
                </mxCell>
                <mxCell id="391" value="&lt;span style=&quot;font-size: 16px&quot;&gt;&lt;br&gt;&lt;/span&gt;" style="ellipse;whiteSpace=wrap;html=1;aspect=fixed;strokeColor=none;fillColor=#007FFF;verticalAlign=middle;labelPosition=right;verticalLabelPosition=middle;align=left;fontSize=16;fontStyle=1;fontColor=#E6E6E6;" vertex="1" parent="1">
                    <mxGeometry x="657.5" y="1503.0100000000002" width="20" height="20" as="geometry"/>
                </mxCell>
                <mxCell id="392" style="edgeStyle=none;html=1;fontSize=12;fontColor=#E6E6E6;endArrow=none;endFill=0;strokeColor=#E6E6E6;" edge="1" parent="1" source="393" target="391">
                    <mxGeometry relative="1" as="geometry"/>
                </mxCell>
                <mxCell id="393" value="&lt;span style=&quot;font-size: 16px&quot;&gt;&lt;br&gt;&lt;/span&gt;" style="ellipse;whiteSpace=wrap;html=1;aspect=fixed;strokeColor=none;fillColor=#007FFF;verticalAlign=middle;labelPosition=right;verticalLabelPosition=middle;align=left;fontSize=16;fontStyle=1;fontColor=#E6E6E6;" vertex="1" parent="1">
                    <mxGeometry x="657.5" y="1533.0100000000002" width="20" height="20" as="geometry"/>
                </mxCell>
                <mxCell id="394" style="edgeStyle=none;html=1;fontSize=12;fontColor=#E6E6E6;endArrow=none;endFill=0;strokeColor=#E6E6E6;" edge="1" parent="1" source="395" target="393">
                    <mxGeometry relative="1" as="geometry"/>
                </mxCell>
                <mxCell id="395" value="&lt;span style=&quot;font-size: 16px&quot;&gt;&lt;br&gt;&lt;/span&gt;" style="ellipse;whiteSpace=wrap;html=1;aspect=fixed;strokeColor=none;fillColor=#007FFF;verticalAlign=middle;labelPosition=right;verticalLabelPosition=middle;align=left;fontSize=16;fontStyle=1;fontColor=#E6E6E6;" vertex="1" parent="1">
                    <mxGeometry x="657.5" y="1563.0100000000002" width="20" height="20" as="geometry"/>
                </mxCell>
                <mxCell id="396" value="&lt;span style=&quot;font-size: 16px&quot;&gt;R0&lt;br&gt;&lt;/span&gt;" style="ellipse;whiteSpace=wrap;html=1;aspect=fixed;strokeColor=none;fillColor=#007FFF;verticalAlign=middle;labelPosition=center;verticalLabelPosition=middle;align=center;fontSize=16;fontStyle=1;fontColor=#E6E6E6;" vertex="1" parent="1">
                    <mxGeometry x="647.5" y="1453.0100000000002" width="40" height="40" as="geometry"/>
                </mxCell>
                <mxCell id="397" value="R12" style="text;html=1;strokeColor=none;fillColor=none;align=center;verticalAlign=middle;whiteSpace=wrap;rounded=0;labelBackgroundColor=none;fontSize=12;fontColor=#E6E6E6;" vertex="1" parent="1">
                    <mxGeometry x="712.5" y="1901.75" width="50" height="20" as="geometry"/>
                </mxCell>
                <mxCell id="398" value="push" style="edgeStyle=orthogonalEdgeStyle;curved=1;html=1;entryX=0.5;entryY=1;entryDx=0;entryDy=0;labelBackgroundColor=#1A1A1A;fontSize=12;fontColor=#E6E6E6;endArrow=open;endFill=0;strokeColor=#E6E6E6;" edge="1" parent="1" source="399" target="451">
                    <mxGeometry relative="1" as="geometry"/>
                </mxCell>
                <mxCell id="399" value="" style="rounded=1;whiteSpace=wrap;html=1;labelBackgroundColor=none;fontSize=12;fontColor=#E6E6E6;strokeColor=#E6E6E6;fillColor=none;arcSize=8;" vertex="1" parent="1">
                    <mxGeometry x="712.5" y="1471.67" width="50" height="430.42" as="geometry"/>
                </mxCell>
                <mxCell id="400" style="edgeStyle=orthogonalEdgeStyle;curved=1;html=1;labelBackgroundColor=#1A1A1A;fontSize=16;fontColor=#FF0000;strokeColor=#E6E6E6;endArrow=none;endFill=0;" edge="1" parent="1" source="401" target="421">
                    <mxGeometry relative="1" as="geometry"/>
                </mxCell>
                <mxCell id="401" value="&lt;span style=&quot;font-size: 16px&quot;&gt;R43&lt;br&gt;&lt;/span&gt;" style="ellipse;whiteSpace=wrap;html=1;aspect=fixed;strokeColor=none;fillColor=#007FFF;verticalAlign=middle;labelPosition=center;verticalLabelPosition=middle;align=center;fontSize=16;fontStyle=1;fontColor=#E6E6E6;" vertex="1" parent="1">
                    <mxGeometry x="717.5" y="1592.0900000000001" width="40" height="40" as="geometry"/>
                </mxCell>
                <mxCell id="402" style="edgeStyle=none;html=1;entryX=0.5;entryY=1;entryDx=0;entryDy=0;fontSize=12;fontColor=#E6E6E6;endArrow=none;endFill=0;strokeColor=#E6E6E6;" edge="1" parent="1" source="403" target="409">
                    <mxGeometry relative="1" as="geometry"/>
                </mxCell>
                <mxCell id="403" value="&lt;span style=&quot;font-size: 16px&quot;&gt;&lt;br&gt;&lt;/span&gt;" style="ellipse;whiteSpace=wrap;html=1;aspect=fixed;strokeColor=none;fillColor=#007FFF;verticalAlign=middle;labelPosition=right;verticalLabelPosition=middle;align=left;fontSize=16;fontStyle=1;fontColor=#E6E6E6;" vertex="1" parent="1">
                    <mxGeometry x="727.5" y="1672.0900000000001" width="20" height="20" as="geometry"/>
                </mxCell>
                <mxCell id="404" style="edgeStyle=none;html=1;fontSize=12;fontColor=#E6E6E6;endArrow=none;endFill=0;strokeColor=#E6E6E6;" edge="1" parent="1" source="405" target="403">
                    <mxGeometry relative="1" as="geometry"/>
                </mxCell>
                <mxCell id="405" value="&lt;span style=&quot;font-size: 16px&quot;&gt;&lt;br&gt;&lt;/span&gt;" style="ellipse;whiteSpace=wrap;html=1;aspect=fixed;strokeColor=none;fillColor=#007FFF;verticalAlign=middle;labelPosition=right;verticalLabelPosition=middle;align=left;fontSize=16;fontStyle=1;fontColor=#E6E6E6;" vertex="1" parent="1">
                    <mxGeometry x="727.5" y="1702.0900000000001" width="20" height="20" as="geometry"/>
                </mxCell>
                <mxCell id="406" style="edgeStyle=none;html=1;fontSize=12;fontColor=#E6E6E6;endArrow=none;endFill=0;strokeColor=#E6E6E6;" edge="1" parent="1" source="407" target="405">
                    <mxGeometry relative="1" as="geometry"/>
                </mxCell>
                <mxCell id="407" value="&lt;span style=&quot;font-size: 16px&quot;&gt;&lt;br&gt;&lt;/span&gt;" style="ellipse;whiteSpace=wrap;html=1;aspect=fixed;strokeColor=none;fillColor=#007FFF;verticalAlign=middle;labelPosition=right;verticalLabelPosition=middle;align=left;fontSize=16;fontStyle=1;fontColor=#E6E6E6;" vertex="1" parent="1">
                    <mxGeometry x="727.5" y="1732.0900000000001" width="20" height="20" as="geometry"/>
                </mxCell>
                <mxCell id="408" style="edgeStyle=none;html=1;fontSize=12;fontColor=#E6E6E6;endArrow=none;endFill=0;strokeColor=#E6E6E6;" edge="1" parent="1" source="409" target="401">
                    <mxGeometry relative="1" as="geometry"/>
                </mxCell>
                <mxCell id="409" value="&lt;span style=&quot;font-size: 16px&quot;&gt;&lt;br&gt;&lt;/span&gt;" style="ellipse;whiteSpace=wrap;html=1;aspect=fixed;strokeColor=none;fillColor=#007FFF;verticalAlign=middle;labelPosition=right;verticalLabelPosition=middle;align=left;fontSize=16;fontStyle=1;fontColor=#E6E6E6;" vertex="1" parent="1">
                    <mxGeometry x="727.5" y="1642.0900000000001" width="20" height="20" as="geometry"/>
                </mxCell>
                <mxCell id="410" style="edgeStyle=none;html=1;fontSize=12;fontColor=#E6E6E6;endArrow=none;endFill=0;strokeColor=#E6E6E6;" edge="1" parent="1" source="411" target="417">
                    <mxGeometry relative="1" as="geometry"/>
                </mxCell>
                <mxCell id="411" value="&lt;span style=&quot;font-size: 16px&quot;&gt;&lt;br&gt;&lt;/span&gt;" style="ellipse;whiteSpace=wrap;html=1;aspect=fixed;strokeColor=none;fillColor=#007FFF;verticalAlign=middle;labelPosition=right;verticalLabelPosition=middle;align=left;fontSize=16;fontStyle=1;fontColor=#E6E6E6;" vertex="1" parent="1">
                    <mxGeometry x="727.5" y="1812.0900000000001" width="20" height="20" as="geometry"/>
                </mxCell>
                <mxCell id="412" style="edgeStyle=none;html=1;fontSize=12;fontColor=#E6E6E6;endArrow=none;endFill=0;strokeColor=#E6E6E6;" edge="1" parent="1" source="413" target="411">
                    <mxGeometry relative="1" as="geometry"/>
                </mxCell>
                <mxCell id="413" value="&lt;span style=&quot;font-size: 16px&quot;&gt;&lt;br&gt;&lt;/span&gt;" style="ellipse;whiteSpace=wrap;html=1;aspect=fixed;strokeColor=none;fillColor=#007FFF;verticalAlign=middle;labelPosition=right;verticalLabelPosition=middle;align=left;fontSize=16;fontStyle=1;fontColor=#E6E6E6;" vertex="1" parent="1">
                    <mxGeometry x="727.5" y="1842.0900000000001" width="20" height="20" as="geometry"/>
                </mxCell>
                <mxCell id="414" style="edgeStyle=none;html=1;fontSize=12;fontColor=#E6E6E6;endArrow=none;endFill=0;strokeColor=#E6E6E6;" edge="1" parent="1" source="415" target="413">
                    <mxGeometry relative="1" as="geometry"/>
                </mxCell>
                <mxCell id="415" value="&lt;span style=&quot;font-size: 16px&quot;&gt;&lt;br&gt;&lt;/span&gt;" style="ellipse;whiteSpace=wrap;html=1;aspect=fixed;strokeColor=none;fillColor=#007FFF;verticalAlign=middle;labelPosition=right;verticalLabelPosition=middle;align=left;fontSize=16;fontStyle=1;fontColor=#E6E6E6;" vertex="1" parent="1">
                    <mxGeometry x="727.5" y="1872.0900000000001" width="20" height="20" as="geometry"/>
                </mxCell>
                <mxCell id="416" style="edgeStyle=orthogonalEdgeStyle;curved=1;html=1;entryX=0.5;entryY=1;entryDx=0;entryDy=0;labelBackgroundColor=#1A1A1A;fontSize=12;fontColor=#E6E6E6;endArrow=none;endFill=0;strokeColor=#E6E6E6;" edge="1" parent="1" source="417" target="407">
                    <mxGeometry relative="1" as="geometry"/>
                </mxCell>
                <mxCell id="417" value="&lt;span style=&quot;font-size: 16px&quot;&gt;R11&lt;br&gt;&lt;/span&gt;" style="ellipse;whiteSpace=wrap;html=1;aspect=fixed;strokeColor=none;fillColor=#007FFF;verticalAlign=middle;labelPosition=center;verticalLabelPosition=middle;align=center;fontSize=16;fontStyle=1;fontColor=#E6E6E6;" vertex="1" parent="1">
                    <mxGeometry x="717.5" y="1762.0900000000001" width="40" height="40" as="geometry"/>
                </mxCell>
                <mxCell id="418" style="edgeStyle=none;html=1;fontSize=12;fontColor=#E6E6E6;endArrow=none;endFill=0;strokeColor=#E6E6E6;entryX=0.5;entryY=1;entryDx=0;entryDy=0;" edge="1" parent="1" source="419" target="422">
                    <mxGeometry relative="1" as="geometry">
                        <mxPoint x="737.5" y="1523.2600000000002" as="targetPoint"/>
                    </mxGeometry>
                </mxCell>
                <mxCell id="419" value="&lt;span style=&quot;font-size: 16px&quot;&gt;&lt;br&gt;&lt;/span&gt;" style="ellipse;whiteSpace=wrap;html=1;aspect=fixed;strokeColor=none;fillColor=#007FFF;verticalAlign=middle;labelPosition=right;verticalLabelPosition=middle;align=left;fontSize=16;fontStyle=1;fontColor=#E6E6E6;" vertex="1" parent="1">
                    <mxGeometry x="727.5" y="1533.2600000000002" width="20" height="20" as="geometry"/>
                </mxCell>
                <mxCell id="420" style="edgeStyle=none;html=1;fontSize=12;fontColor=#E6E6E6;endArrow=none;endFill=0;strokeColor=#E6E6E6;" edge="1" parent="1" source="421" target="419">
                    <mxGeometry relative="1" as="geometry"/>
                </mxCell>
                <mxCell id="421" value="&lt;span style=&quot;font-size: 16px&quot;&gt;&lt;br&gt;&lt;/span&gt;" style="ellipse;whiteSpace=wrap;html=1;aspect=fixed;strokeColor=none;fillColor=#007FFF;verticalAlign=middle;labelPosition=right;verticalLabelPosition=middle;align=left;fontSize=16;fontStyle=1;fontColor=#E6E6E6;" vertex="1" parent="1">
                    <mxGeometry x="727.5" y="1563.2600000000002" width="20" height="20" as="geometry"/>
                </mxCell>
                <mxCell id="422" value="&lt;span style=&quot;font-size: 16px&quot;&gt;R12&lt;br&gt;&lt;/span&gt;" style="ellipse;whiteSpace=wrap;html=1;aspect=fixed;strokeColor=none;fillColor=#007FFF;verticalAlign=middle;labelPosition=center;verticalLabelPosition=middle;align=center;fontSize=16;fontStyle=1;fontColor=#E6E6E6;" vertex="1" parent="1">
                    <mxGeometry x="717.5" y="1481.6700000000003" width="40" height="40" as="geometry"/>
                </mxCell>
                <mxCell id="423" value="U1" style="sketch=0;outlineConnect=0;fontColor=#E6E6E6;gradientColor=none;fillColor=#E6E6E6;strokeColor=none;dashed=0;verticalLabelPosition=bottom;verticalAlign=top;align=center;html=1;fontSize=12;fontStyle=0;aspect=fixed;pointerEvents=1;shape=mxgraph.aws4.user;labelBackgroundColor=none;" vertex="1" parent="1">
                    <mxGeometry x="647.5" y="1921.75" width="40" height="40" as="geometry"/>
                </mxCell>
                <mxCell id="424" value="U2" style="sketch=0;outlineConnect=0;fontColor=#E6E6E6;gradientColor=none;fillColor=#E6E6E6;strokeColor=none;dashed=0;verticalLabelPosition=bottom;verticalAlign=top;align=center;html=1;fontSize=12;fontStyle=0;aspect=fixed;pointerEvents=1;shape=mxgraph.aws4.user;labelBackgroundColor=none;" vertex="1" parent="1">
                    <mxGeometry x="717.5" y="1921.75" width="40" height="40" as="geometry"/>
                </mxCell>
                <mxCell id="580" value="pull&lt;br&gt;request" style="edgeStyle=orthogonalEdgeStyle;curved=1;html=1;entryX=0.5;entryY=0;entryDx=0;entryDy=0;labelBackgroundColor=#1A1A1A;fontColor=#E6E6E6;endArrow=open;endFill=0;strokeColor=#E6E6E6;" edge="1" parent="1" source="425" target="328">
                    <mxGeometry x="0.2064" y="5" relative="1" as="geometry">
                        <Array as="points">
                            <mxPoint x="575" y="920"/>
                        </Array>
                        <mxPoint as="offset"/>
                    </mxGeometry>
                </mxCell>
                <mxCell id="425" value="" style="rounded=1;whiteSpace=wrap;html=1;labelBackgroundColor=none;fontSize=12;fontColor=#E6E6E6;strokeColor=#E6E6E6;fillColor=none;arcSize=8;" vertex="1" parent="1">
                    <mxGeometry x="642.5" y="890.25" width="50" height="460.17" as="geometry"/>
                </mxCell>
                <mxCell id="426" style="edgeStyle=orthogonalEdgeStyle;curved=1;html=1;labelBackgroundColor=#1A1A1A;fontSize=16;fontColor=#FF0000;strokeColor=#E6E6E6;endArrow=none;endFill=0;" edge="1" parent="1" source="427" target="449">
                    <mxGeometry relative="1" as="geometry"/>
                </mxCell>
                <mxCell id="427" value="&lt;span style=&quot;font-size: 16px&quot;&gt;R43&lt;br&gt;&lt;/span&gt;" style="ellipse;whiteSpace=wrap;html=1;aspect=fixed;strokeColor=none;fillColor=#007FFF;verticalAlign=middle;labelPosition=center;verticalLabelPosition=middle;align=center;fontSize=16;fontStyle=1;fontColor=#E6E6E6;" vertex="1" parent="1">
                    <mxGeometry x="647.5" y="1040.42" width="40" height="40" as="geometry"/>
                </mxCell>
                <mxCell id="428" style="edgeStyle=none;html=1;entryX=0.5;entryY=1;entryDx=0;entryDy=0;fontSize=12;fontColor=#E6E6E6;endArrow=none;endFill=0;strokeColor=#E6E6E6;" edge="1" parent="1" source="429" target="435">
                    <mxGeometry relative="1" as="geometry"/>
                </mxCell>
                <mxCell id="429" value="&lt;span style=&quot;font-size: 16px&quot;&gt;&lt;br&gt;&lt;/span&gt;" style="ellipse;whiteSpace=wrap;html=1;aspect=fixed;strokeColor=none;fillColor=#007FFF;verticalAlign=middle;labelPosition=right;verticalLabelPosition=middle;align=left;fontSize=16;fontStyle=1;fontColor=#E6E6E6;" vertex="1" parent="1">
                    <mxGeometry x="657.5" y="1120.42" width="20" height="20" as="geometry"/>
                </mxCell>
                <mxCell id="430" style="edgeStyle=none;html=1;fontSize=12;fontColor=#E6E6E6;endArrow=none;endFill=0;strokeColor=#E6E6E6;" edge="1" parent="1" source="431" target="429">
                    <mxGeometry relative="1" as="geometry"/>
                </mxCell>
                <mxCell id="431" value="&lt;span style=&quot;font-size: 16px&quot;&gt;&lt;br&gt;&lt;/span&gt;" style="ellipse;whiteSpace=wrap;html=1;aspect=fixed;strokeColor=none;fillColor=#007FFF;verticalAlign=middle;labelPosition=right;verticalLabelPosition=middle;align=left;fontSize=16;fontStyle=1;fontColor=#E6E6E6;" vertex="1" parent="1">
                    <mxGeometry x="657.5" y="1150.42" width="20" height="20" as="geometry"/>
                </mxCell>
                <mxCell id="432" style="edgeStyle=none;html=1;fontSize=12;fontColor=#E6E6E6;endArrow=none;endFill=0;strokeColor=#E6E6E6;" edge="1" parent="1" source="433" target="431">
                    <mxGeometry relative="1" as="geometry"/>
                </mxCell>
                <mxCell id="433" value="&lt;span style=&quot;font-size: 16px&quot;&gt;&lt;br&gt;&lt;/span&gt;" style="ellipse;whiteSpace=wrap;html=1;aspect=fixed;strokeColor=none;fillColor=#007FFF;verticalAlign=middle;labelPosition=right;verticalLabelPosition=middle;align=left;fontSize=16;fontStyle=1;fontColor=#E6E6E6;" vertex="1" parent="1">
                    <mxGeometry x="657.5" y="1180.42" width="20" height="20" as="geometry"/>
                </mxCell>
                <mxCell id="434" style="edgeStyle=none;html=1;fontSize=12;fontColor=#E6E6E6;endArrow=none;endFill=0;strokeColor=#E6E6E6;" edge="1" parent="1" source="435" target="427">
                    <mxGeometry relative="1" as="geometry"/>
                </mxCell>
                <mxCell id="435" value="&lt;span style=&quot;font-size: 16px&quot;&gt;&lt;br&gt;&lt;/span&gt;" style="ellipse;whiteSpace=wrap;html=1;aspect=fixed;strokeColor=none;fillColor=#007FFF;verticalAlign=middle;labelPosition=right;verticalLabelPosition=middle;align=left;fontSize=16;fontStyle=1;fontColor=#E6E6E6;" vertex="1" parent="1">
                    <mxGeometry x="657.5" y="1090.42" width="20" height="20" as="geometry"/>
                </mxCell>
                <mxCell id="436" style="edgeStyle=none;html=1;fontSize=12;fontColor=#E6E6E6;endArrow=none;endFill=0;strokeColor=#E6E6E6;" edge="1" parent="1" source="437" target="443">
                    <mxGeometry relative="1" as="geometry"/>
                </mxCell>
                <mxCell id="437" value="&lt;span style=&quot;font-size: 16px&quot;&gt;&lt;br&gt;&lt;/span&gt;" style="ellipse;whiteSpace=wrap;html=1;aspect=fixed;strokeColor=none;fillColor=#007FFF;verticalAlign=middle;labelPosition=right;verticalLabelPosition=middle;align=left;fontSize=16;fontStyle=1;fontColor=#E6E6E6;" vertex="1" parent="1">
                    <mxGeometry x="657.5" y="1260.42" width="20" height="20" as="geometry"/>
                </mxCell>
                <mxCell id="438" style="edgeStyle=none;html=1;fontSize=12;fontColor=#E6E6E6;endArrow=none;endFill=0;strokeColor=#E6E6E6;" edge="1" parent="1" source="439" target="437">
                    <mxGeometry relative="1" as="geometry"/>
                </mxCell>
                <mxCell id="439" value="&lt;span style=&quot;font-size: 16px&quot;&gt;&lt;br&gt;&lt;/span&gt;" style="ellipse;whiteSpace=wrap;html=1;aspect=fixed;strokeColor=none;fillColor=#007FFF;verticalAlign=middle;labelPosition=right;verticalLabelPosition=middle;align=left;fontSize=16;fontStyle=1;fontColor=#E6E6E6;" vertex="1" parent="1">
                    <mxGeometry x="657.5" y="1290.42" width="20" height="20" as="geometry"/>
                </mxCell>
                <mxCell id="440" style="edgeStyle=none;html=1;fontSize=12;fontColor=#E6E6E6;endArrow=none;endFill=0;strokeColor=#E6E6E6;" edge="1" parent="1" source="441" target="439">
                    <mxGeometry relative="1" as="geometry"/>
                </mxCell>
                <mxCell id="441" value="&lt;span style=&quot;font-size: 16px&quot;&gt;&lt;br&gt;&lt;/span&gt;" style="ellipse;whiteSpace=wrap;html=1;aspect=fixed;strokeColor=none;fillColor=#007FFF;verticalAlign=middle;labelPosition=right;verticalLabelPosition=middle;align=left;fontSize=16;fontStyle=1;fontColor=#E6E6E6;" vertex="1" parent="1">
                    <mxGeometry x="657.5" y="1320.42" width="20" height="20" as="geometry"/>
                </mxCell>
                <mxCell id="442" style="edgeStyle=orthogonalEdgeStyle;curved=1;html=1;entryX=0.5;entryY=1;entryDx=0;entryDy=0;labelBackgroundColor=#1A1A1A;fontSize=12;fontColor=#E6E6E6;endArrow=none;endFill=0;strokeColor=#E6E6E6;" edge="1" parent="1" source="443" target="433">
                    <mxGeometry relative="1" as="geometry"/>
                </mxCell>
                <mxCell id="443" value="&lt;span style=&quot;font-size: 16px&quot;&gt;R11&lt;br&gt;&lt;/span&gt;" style="ellipse;whiteSpace=wrap;html=1;aspect=fixed;strokeColor=none;fillColor=#007FFF;verticalAlign=middle;labelPosition=center;verticalLabelPosition=middle;align=center;fontSize=16;fontStyle=1;fontColor=#E6E6E6;" vertex="1" parent="1">
                    <mxGeometry x="647.5" y="1210.42" width="40" height="40" as="geometry"/>
                </mxCell>
                <mxCell id="444" style="edgeStyle=none;html=1;fontSize=12;fontColor=#E6E6E6;endArrow=none;endFill=0;strokeColor=#E6E6E6;" edge="1" parent="1" source="445" target="450">
                    <mxGeometry relative="1" as="geometry"/>
                </mxCell>
                <mxCell id="445" value="&lt;span style=&quot;font-size: 16px&quot;&gt;&lt;br&gt;&lt;/span&gt;" style="ellipse;whiteSpace=wrap;html=1;aspect=fixed;strokeColor=none;fillColor=#007FFF;verticalAlign=middle;labelPosition=right;verticalLabelPosition=middle;align=left;fontSize=16;fontStyle=1;fontColor=#E6E6E6;" vertex="1" parent="1">
                    <mxGeometry x="657.5" y="951.5900000000001" width="20" height="20" as="geometry"/>
                </mxCell>
                <mxCell id="446" style="edgeStyle=none;html=1;fontSize=12;fontColor=#E6E6E6;endArrow=none;endFill=0;strokeColor=#E6E6E6;" edge="1" parent="1" source="447" target="445">
                    <mxGeometry relative="1" as="geometry"/>
                </mxCell>
                <mxCell id="447" value="&lt;span style=&quot;font-size: 16px&quot;&gt;&lt;br&gt;&lt;/span&gt;" style="ellipse;whiteSpace=wrap;html=1;aspect=fixed;strokeColor=none;fillColor=#007FFF;verticalAlign=middle;labelPosition=right;verticalLabelPosition=middle;align=left;fontSize=16;fontStyle=1;fontColor=#E6E6E6;" vertex="1" parent="1">
                    <mxGeometry x="657.5" y="981.5900000000001" width="20" height="20" as="geometry"/>
                </mxCell>
                <mxCell id="448" style="edgeStyle=none;html=1;fontSize=12;fontColor=#E6E6E6;endArrow=none;endFill=0;strokeColor=#E6E6E6;" edge="1" parent="1" source="449" target="447">
                    <mxGeometry relative="1" as="geometry"/>
                </mxCell>
                <mxCell id="449" value="&lt;span style=&quot;font-size: 16px&quot;&gt;&lt;br&gt;&lt;/span&gt;" style="ellipse;whiteSpace=wrap;html=1;aspect=fixed;strokeColor=none;fillColor=#007FFF;verticalAlign=middle;labelPosition=right;verticalLabelPosition=middle;align=left;fontSize=16;fontStyle=1;fontColor=#E6E6E6;" vertex="1" parent="1">
                    <mxGeometry x="657.5" y="1011.5900000000001" width="20" height="20" as="geometry"/>
                </mxCell>
                <mxCell id="450" value="&lt;span style=&quot;font-size: 16px&quot;&gt;R0&lt;br&gt;&lt;/span&gt;" style="ellipse;whiteSpace=wrap;html=1;aspect=fixed;strokeColor=none;fillColor=#007FFF;verticalAlign=middle;labelPosition=center;verticalLabelPosition=middle;align=center;fontSize=16;fontStyle=1;fontColor=#E6E6E6;" vertex="1" parent="1">
                    <mxGeometry x="647.5" y="901.5900000000001" width="40" height="40" as="geometry"/>
                </mxCell>
                <mxCell id="451" value="" style="rounded=1;whiteSpace=wrap;html=1;labelBackgroundColor=none;fontSize=12;fontColor=#E6E6E6;strokeColor=#E6E6E6;fillColor=none;arcSize=8;" vertex="1" parent="1">
                    <mxGeometry x="712.5" y="920.25" width="50" height="430.42" as="geometry"/>
                </mxCell>
                <mxCell id="452" style="edgeStyle=orthogonalEdgeStyle;curved=1;html=1;labelBackgroundColor=#1A1A1A;fontSize=16;fontColor=#FF0000;strokeColor=#E6E6E6;endArrow=none;endFill=0;" edge="1" parent="1" source="453" target="473">
                    <mxGeometry relative="1" as="geometry"/>
                </mxCell>
                <mxCell id="453" value="&lt;span style=&quot;font-size: 16px&quot;&gt;R43&lt;br&gt;&lt;/span&gt;" style="ellipse;whiteSpace=wrap;html=1;aspect=fixed;strokeColor=none;fillColor=#007FFF;verticalAlign=middle;labelPosition=center;verticalLabelPosition=middle;align=center;fontSize=16;fontStyle=1;fontColor=#E6E6E6;" vertex="1" parent="1">
                    <mxGeometry x="717.5" y="1040.67" width="40" height="40" as="geometry"/>
                </mxCell>
                <mxCell id="454" style="edgeStyle=none;html=1;entryX=0.5;entryY=1;entryDx=0;entryDy=0;fontSize=12;fontColor=#E6E6E6;endArrow=none;endFill=0;strokeColor=#E6E6E6;" edge="1" parent="1" source="455" target="461">
                    <mxGeometry relative="1" as="geometry"/>
                </mxCell>
                <mxCell id="455" value="&lt;span style=&quot;font-size: 16px&quot;&gt;&lt;br&gt;&lt;/span&gt;" style="ellipse;whiteSpace=wrap;html=1;aspect=fixed;strokeColor=none;fillColor=#007FFF;verticalAlign=middle;labelPosition=right;verticalLabelPosition=middle;align=left;fontSize=16;fontStyle=1;fontColor=#E6E6E6;" vertex="1" parent="1">
                    <mxGeometry x="727.5" y="1120.67" width="20" height="20" as="geometry"/>
                </mxCell>
                <mxCell id="456" style="edgeStyle=none;html=1;fontSize=12;fontColor=#E6E6E6;endArrow=none;endFill=0;strokeColor=#E6E6E6;" edge="1" parent="1" source="457" target="455">
                    <mxGeometry relative="1" as="geometry"/>
                </mxCell>
                <mxCell id="457" value="&lt;span style=&quot;font-size: 16px&quot;&gt;&lt;br&gt;&lt;/span&gt;" style="ellipse;whiteSpace=wrap;html=1;aspect=fixed;strokeColor=none;fillColor=#007FFF;verticalAlign=middle;labelPosition=right;verticalLabelPosition=middle;align=left;fontSize=16;fontStyle=1;fontColor=#E6E6E6;" vertex="1" parent="1">
                    <mxGeometry x="727.5" y="1150.67" width="20" height="20" as="geometry"/>
                </mxCell>
                <mxCell id="458" style="edgeStyle=none;html=1;fontSize=12;fontColor=#E6E6E6;endArrow=none;endFill=0;strokeColor=#E6E6E6;" edge="1" parent="1" source="459" target="457">
                    <mxGeometry relative="1" as="geometry"/>
                </mxCell>
                <mxCell id="459" value="&lt;span style=&quot;font-size: 16px&quot;&gt;&lt;br&gt;&lt;/span&gt;" style="ellipse;whiteSpace=wrap;html=1;aspect=fixed;strokeColor=none;fillColor=#007FFF;verticalAlign=middle;labelPosition=right;verticalLabelPosition=middle;align=left;fontSize=16;fontStyle=1;fontColor=#E6E6E6;" vertex="1" parent="1">
                    <mxGeometry x="727.5" y="1180.67" width="20" height="20" as="geometry"/>
                </mxCell>
                <mxCell id="460" style="edgeStyle=none;html=1;fontSize=12;fontColor=#E6E6E6;endArrow=none;endFill=0;strokeColor=#E6E6E6;" edge="1" parent="1" source="461" target="453">
                    <mxGeometry relative="1" as="geometry"/>
                </mxCell>
                <mxCell id="461" value="&lt;span style=&quot;font-size: 16px&quot;&gt;&lt;br&gt;&lt;/span&gt;" style="ellipse;whiteSpace=wrap;html=1;aspect=fixed;strokeColor=none;fillColor=#007FFF;verticalAlign=middle;labelPosition=right;verticalLabelPosition=middle;align=left;fontSize=16;fontStyle=1;fontColor=#E6E6E6;" vertex="1" parent="1">
                    <mxGeometry x="727.5" y="1090.67" width="20" height="20" as="geometry"/>
                </mxCell>
                <mxCell id="462" style="edgeStyle=none;html=1;fontSize=12;fontColor=#E6E6E6;endArrow=none;endFill=0;strokeColor=#E6E6E6;" edge="1" parent="1" source="463" target="469">
                    <mxGeometry relative="1" as="geometry"/>
                </mxCell>
                <mxCell id="463" value="&lt;span style=&quot;font-size: 16px&quot;&gt;&lt;br&gt;&lt;/span&gt;" style="ellipse;whiteSpace=wrap;html=1;aspect=fixed;strokeColor=none;fillColor=#007FFF;verticalAlign=middle;labelPosition=right;verticalLabelPosition=middle;align=left;fontSize=16;fontStyle=1;fontColor=#E6E6E6;" vertex="1" parent="1">
                    <mxGeometry x="727.5" y="1260.67" width="20" height="20" as="geometry"/>
                </mxCell>
                <mxCell id="464" style="edgeStyle=none;html=1;fontSize=12;fontColor=#E6E6E6;endArrow=none;endFill=0;strokeColor=#E6E6E6;" edge="1" parent="1" source="465" target="463">
                    <mxGeometry relative="1" as="geometry"/>
                </mxCell>
                <mxCell id="465" value="&lt;span style=&quot;font-size: 16px&quot;&gt;&lt;br&gt;&lt;/span&gt;" style="ellipse;whiteSpace=wrap;html=1;aspect=fixed;strokeColor=none;fillColor=#007FFF;verticalAlign=middle;labelPosition=right;verticalLabelPosition=middle;align=left;fontSize=16;fontStyle=1;fontColor=#E6E6E6;" vertex="1" parent="1">
                    <mxGeometry x="727.5" y="1290.67" width="20" height="20" as="geometry"/>
                </mxCell>
                <mxCell id="466" style="edgeStyle=none;html=1;fontSize=12;fontColor=#E6E6E6;endArrow=none;endFill=0;strokeColor=#E6E6E6;" edge="1" parent="1" source="467" target="465">
                    <mxGeometry relative="1" as="geometry"/>
                </mxCell>
                <mxCell id="467" value="&lt;span style=&quot;font-size: 16px&quot;&gt;&lt;br&gt;&lt;/span&gt;" style="ellipse;whiteSpace=wrap;html=1;aspect=fixed;strokeColor=none;fillColor=#007FFF;verticalAlign=middle;labelPosition=right;verticalLabelPosition=middle;align=left;fontSize=16;fontStyle=1;fontColor=#E6E6E6;" vertex="1" parent="1">
                    <mxGeometry x="727.5" y="1320.67" width="20" height="20" as="geometry"/>
                </mxCell>
                <mxCell id="468" style="edgeStyle=orthogonalEdgeStyle;curved=1;html=1;entryX=0.5;entryY=1;entryDx=0;entryDy=0;labelBackgroundColor=#1A1A1A;fontSize=12;fontColor=#E6E6E6;endArrow=none;endFill=0;strokeColor=#E6E6E6;" edge="1" parent="1" source="469" target="459">
                    <mxGeometry relative="1" as="geometry"/>
                </mxCell>
                <mxCell id="469" value="&lt;span style=&quot;font-size: 16px&quot;&gt;R11&lt;br&gt;&lt;/span&gt;" style="ellipse;whiteSpace=wrap;html=1;aspect=fixed;strokeColor=none;fillColor=#007FFF;verticalAlign=middle;labelPosition=center;verticalLabelPosition=middle;align=center;fontSize=16;fontStyle=1;fontColor=#E6E6E6;" vertex="1" parent="1">
                    <mxGeometry x="717.5" y="1210.67" width="40" height="40" as="geometry"/>
                </mxCell>
                <mxCell id="470" style="edgeStyle=none;html=1;fontSize=12;fontColor=#E6E6E6;endArrow=none;endFill=0;strokeColor=#E6E6E6;entryX=0.5;entryY=1;entryDx=0;entryDy=0;" edge="1" parent="1" source="471" target="474">
                    <mxGeometry relative="1" as="geometry">
                        <mxPoint x="737.5" y="971.8400000000001" as="targetPoint"/>
                    </mxGeometry>
                </mxCell>
                <mxCell id="471" value="&lt;span style=&quot;font-size: 16px&quot;&gt;&lt;br&gt;&lt;/span&gt;" style="ellipse;whiteSpace=wrap;html=1;aspect=fixed;strokeColor=none;fillColor=#007FFF;verticalAlign=middle;labelPosition=right;verticalLabelPosition=middle;align=left;fontSize=16;fontStyle=1;fontColor=#E6E6E6;" vertex="1" parent="1">
                    <mxGeometry x="727.5" y="981.8400000000001" width="20" height="20" as="geometry"/>
                </mxCell>
                <mxCell id="472" style="edgeStyle=none;html=1;fontSize=12;fontColor=#E6E6E6;endArrow=none;endFill=0;strokeColor=#E6E6E6;" edge="1" parent="1" source="473" target="471">
                    <mxGeometry relative="1" as="geometry"/>
                </mxCell>
                <mxCell id="473" value="&lt;span style=&quot;font-size: 16px&quot;&gt;&lt;br&gt;&lt;/span&gt;" style="ellipse;whiteSpace=wrap;html=1;aspect=fixed;strokeColor=none;fillColor=#007FFF;verticalAlign=middle;labelPosition=right;verticalLabelPosition=middle;align=left;fontSize=16;fontStyle=1;fontColor=#E6E6E6;" vertex="1" parent="1">
                    <mxGeometry x="727.5" y="1011.8400000000001" width="20" height="20" as="geometry"/>
                </mxCell>
                <mxCell id="474" value="&lt;span style=&quot;font-size: 16px&quot;&gt;R12&lt;br&gt;&lt;/span&gt;" style="ellipse;whiteSpace=wrap;html=1;aspect=fixed;strokeColor=none;fillColor=#007FFF;verticalAlign=middle;labelPosition=center;verticalLabelPosition=middle;align=center;fontSize=16;fontStyle=1;fontColor=#E6E6E6;" vertex="1" parent="1">
                    <mxGeometry x="717.5" y="930.2500000000005" width="40" height="40" as="geometry"/>
                </mxCell>
                <mxCell id="475" value="R12" style="text;html=1;strokeColor=none;fillColor=none;align=center;verticalAlign=middle;whiteSpace=wrap;rounded=0;labelBackgroundColor=none;fontSize=12;fontColor=#E6E6E6;" vertex="1" parent="1">
                    <mxGeometry x="712.5" y="900.25" width="50" height="20" as="geometry"/>
                </mxCell>
                <mxCell id="476" value="R0" style="text;html=1;strokeColor=none;fillColor=none;align=center;verticalAlign=middle;whiteSpace=wrap;rounded=0;labelBackgroundColor=none;fontSize=12;fontColor=#E6E6E6;" vertex="1" parent="1">
                    <mxGeometry x="642.5" y="870" width="50" height="20" as="geometry"/>
                </mxCell>
                <mxCell id="487" value="release" style="text;html=1;strokeColor=none;fillColor=none;align=center;verticalAlign=middle;whiteSpace=wrap;rounded=0;labelBackgroundColor=none;fontSize=12;fontColor=#E6E6E6;" vertex="1" parent="1">
                    <mxGeometry x="580" y="1353.35" width="50" height="20" as="geometry"/>
                </mxCell>
                <mxCell id="489" value="creates&lt;br&gt;PR" style="edgeStyle=orthogonalEdgeStyle;html=1;entryX=0.5;entryY=0;entryDx=0;entryDy=0;labelBackgroundColor=#1A1A1A;fontSize=12;fontColor=#E6E6E6;endArrow=open;endFill=0;strokeColor=#E6E6E6;curved=1;exitX=0;exitY=0.5;exitDx=0;exitDy=0;" edge="1" parent="1" source="490" target="509">
                    <mxGeometry x="0.4526" y="25" relative="1" as="geometry">
                        <mxPoint as="offset"/>
                    </mxGeometry>
                </mxCell>
                <mxCell id="490" value="" style="rounded=1;whiteSpace=wrap;html=1;labelBackgroundColor=none;fontSize=12;fontColor=#E6E6E6;strokeColor=#E6E6E6;fillColor=none;arcSize=8;" vertex="1" parent="1">
                    <mxGeometry x="-980" y="732.9300000000001" width="50" height="98.32" as="geometry"/>
                </mxCell>
                <mxCell id="493" value="&lt;span style=&quot;font-size: 16px&quot;&gt;&lt;br&gt;&lt;/span&gt;" style="ellipse;whiteSpace=wrap;html=1;aspect=fixed;strokeColor=none;fillColor=#007FFF;verticalAlign=middle;labelPosition=right;verticalLabelPosition=middle;align=left;fontSize=16;fontStyle=1;fontColor=#E6E6E6;" vertex="1" parent="1">
                    <mxGeometry x="-965" y="741.25" width="20" height="20" as="geometry"/>
                </mxCell>
                <mxCell id="494" style="edgeStyle=none;html=1;fontSize=12;fontColor=#E6E6E6;endArrow=none;endFill=0;strokeColor=#E6E6E6;" edge="1" parent="1" source="495" target="493">
                    <mxGeometry relative="1" as="geometry"/>
                </mxCell>
                <mxCell id="495" value="&lt;span style=&quot;font-size: 16px&quot;&gt;&lt;br&gt;&lt;/span&gt;" style="ellipse;whiteSpace=wrap;html=1;aspect=fixed;strokeColor=none;fillColor=#007FFF;verticalAlign=middle;labelPosition=right;verticalLabelPosition=middle;align=left;fontSize=16;fontStyle=1;fontColor=#E6E6E6;" vertex="1" parent="1">
                    <mxGeometry x="-965" y="771.25" width="20" height="20" as="geometry"/>
                </mxCell>
                <mxCell id="496" style="edgeStyle=none;html=1;fontSize=12;fontColor=#E6E6E6;endArrow=none;endFill=0;strokeColor=#E6E6E6;" edge="1" parent="1" source="497" target="495">
                    <mxGeometry relative="1" as="geometry"/>
                </mxCell>
                <mxCell id="497" value="&lt;span style=&quot;font-size: 16px&quot;&gt;&lt;br&gt;&lt;/span&gt;" style="ellipse;whiteSpace=wrap;html=1;aspect=fixed;strokeColor=none;fillColor=#007FFF;verticalAlign=middle;labelPosition=right;verticalLabelPosition=middle;align=left;fontSize=16;fontStyle=1;fontColor=#E6E6E6;" vertex="1" parent="1">
                    <mxGeometry x="-965" y="801.25" width="20" height="20" as="geometry"/>
                </mxCell>
                <mxCell id="509" value="" style="rounded=1;whiteSpace=wrap;html=1;labelBackgroundColor=none;fontSize=12;fontColor=#E6E6E6;strokeColor=#E6E6E6;fillColor=none;arcSize=8;" vertex="1" parent="1">
                    <mxGeometry x="-1060" y="821.25" width="50" height="10" as="geometry"/>
                </mxCell>
                <mxCell id="560" value="push" style="edgeStyle=orthogonalEdgeStyle;curved=1;html=1;entryX=0.5;entryY=1;entryDx=0;entryDy=0;labelBackgroundColor=#1A1A1A;fontColor=#E6E6E6;endArrow=open;endFill=0;strokeColor=#E6E6E6;" edge="1" parent="1" source="516" target="490">
                    <mxGeometry relative="1" as="geometry"/>
                </mxCell>
                <mxCell id="516" value="" style="rounded=1;whiteSpace=wrap;html=1;labelBackgroundColor=none;fontSize=12;fontColor=#E6E6E6;strokeColor=#E6E6E6;fillColor=none;arcSize=19;" vertex="1" parent="1">
                    <mxGeometry x="-980" y="932.9300000000001" width="50" height="99.08" as="geometry"/>
                </mxCell>
                <mxCell id="518" value="&lt;span style=&quot;font-size: 16px&quot;&gt;&lt;br&gt;&lt;/span&gt;" style="ellipse;whiteSpace=wrap;html=1;aspect=fixed;strokeColor=none;fillColor=#007FFF;verticalAlign=middle;labelPosition=right;verticalLabelPosition=middle;align=left;fontSize=16;fontStyle=1;fontColor=#E6E6E6;" vertex="1" parent="1">
                    <mxGeometry x="-965" y="942.01" width="20" height="20" as="geometry"/>
                </mxCell>
                <mxCell id="519" style="edgeStyle=none;html=1;fontSize=12;fontColor=#E6E6E6;endArrow=none;endFill=0;strokeColor=#E6E6E6;" edge="1" parent="1" source="520" target="518">
                    <mxGeometry relative="1" as="geometry"/>
                </mxCell>
                <mxCell id="520" value="&lt;span style=&quot;font-size: 16px&quot;&gt;&lt;br&gt;&lt;/span&gt;" style="ellipse;whiteSpace=wrap;html=1;aspect=fixed;strokeColor=none;fillColor=#007FFF;verticalAlign=middle;labelPosition=right;verticalLabelPosition=middle;align=left;fontSize=16;fontStyle=1;fontColor=#E6E6E6;" vertex="1" parent="1">
                    <mxGeometry x="-965" y="972.01" width="20" height="20" as="geometry"/>
                </mxCell>
                <mxCell id="521" style="edgeStyle=none;html=1;fontSize=12;fontColor=#E6E6E6;endArrow=none;endFill=0;strokeColor=#E6E6E6;" edge="1" parent="1" source="522" target="520">
                    <mxGeometry relative="1" as="geometry"/>
                </mxCell>
                <mxCell id="522" value="&lt;span style=&quot;font-size: 16px&quot;&gt;&lt;br&gt;&lt;/span&gt;" style="ellipse;whiteSpace=wrap;html=1;aspect=fixed;strokeColor=none;fillColor=#007FFF;verticalAlign=middle;labelPosition=right;verticalLabelPosition=middle;align=left;fontSize=16;fontStyle=1;fontColor=#E6E6E6;" vertex="1" parent="1">
                    <mxGeometry x="-965" y="1002.01" width="20" height="20" as="geometry"/>
                </mxCell>
                <mxCell id="540" value="to PR" style="edgeStyle=orthogonalEdgeStyle;html=1;entryX=0.5;entryY=0;entryDx=0;entryDy=0;labelBackgroundColor=#1A1A1A;fontSize=12;fontColor=#E6E6E6;endArrow=open;endFill=0;strokeColor=#E6E6E6;curved=1;" edge="1" parent="1" source="549" target="550">
                    <mxGeometry x="0.1963" y="10" relative="1" as="geometry">
                        <mxPoint as="offset"/>
                    </mxGeometry>
                </mxCell>
                <mxCell id="541" value="" style="rounded=1;whiteSpace=wrap;html=1;labelBackgroundColor=none;fontSize=12;fontColor=#E6E6E6;strokeColor=#E6E6E6;fillColor=none;arcSize=8;" vertex="1" parent="1">
                    <mxGeometry x="-735" y="671.25" width="50" height="160" as="geometry"/>
                </mxCell>
                <mxCell id="542" style="edgeStyle=none;html=1;fontSize=12;fontColor=#E6E6E6;endArrow=none;endFill=0;strokeColor=#E6E6E6;" edge="1" parent="1" source="543" target="549">
                    <mxGeometry relative="1" as="geometry"/>
                </mxCell>
                <mxCell id="543" value="&lt;span style=&quot;font-size: 16px&quot;&gt;&lt;br&gt;&lt;/span&gt;" style="ellipse;whiteSpace=wrap;html=1;aspect=fixed;strokeColor=none;fillColor=#007FFF;verticalAlign=middle;labelPosition=right;verticalLabelPosition=middle;align=left;fontSize=16;fontStyle=1;fontColor=#E6E6E6;" vertex="1" parent="1">
                    <mxGeometry x="-720" y="741.25" width="20" height="20" as="geometry"/>
                </mxCell>
                <mxCell id="544" style="edgeStyle=none;html=1;fontSize=12;fontColor=#E6E6E6;endArrow=none;endFill=0;strokeColor=#E6E6E6;" edge="1" parent="1" source="545" target="543">
                    <mxGeometry relative="1" as="geometry"/>
                </mxCell>
                <mxCell id="545" value="&lt;span style=&quot;font-size: 16px&quot;&gt;&lt;br&gt;&lt;/span&gt;" style="ellipse;whiteSpace=wrap;html=1;aspect=fixed;strokeColor=none;fillColor=#007FFF;verticalAlign=middle;labelPosition=right;verticalLabelPosition=middle;align=left;fontSize=16;fontStyle=1;fontColor=#E6E6E6;" vertex="1" parent="1">
                    <mxGeometry x="-720" y="771.25" width="20" height="20" as="geometry"/>
                </mxCell>
                <mxCell id="546" style="edgeStyle=none;html=1;fontSize=12;fontColor=#E6E6E6;endArrow=none;endFill=0;strokeColor=#E6E6E6;" edge="1" parent="1" source="547" target="545">
                    <mxGeometry relative="1" as="geometry"/>
                </mxCell>
                <mxCell id="547" value="&lt;span style=&quot;font-size: 16px&quot;&gt;&lt;br&gt;&lt;/span&gt;" style="ellipse;whiteSpace=wrap;html=1;aspect=fixed;strokeColor=none;fillColor=#007FFF;verticalAlign=middle;labelPosition=right;verticalLabelPosition=middle;align=left;fontSize=16;fontStyle=1;fontColor=#E6E6E6;" vertex="1" parent="1">
                    <mxGeometry x="-720" y="801.25" width="20" height="20" as="geometry"/>
                </mxCell>
                <mxCell id="548" value="adds&amp;nbsp;PR code&lt;br&gt;to PR documentation" style="edgeStyle=orthogonalEdgeStyle;html=1;fontColor=#E6E6E6;endArrow=open;endFill=0;strokeColor=#E6E6E6;labelBackgroundColor=#1A1A1A;curved=1;exitX=0;exitY=0.5;exitDx=0;exitDy=0;" edge="1" parent="1" source="559" target="551">
                    <mxGeometry x="0.2795" y="-23" relative="1" as="geometry">
                        <mxPoint as="offset"/>
                    </mxGeometry>
                </mxCell>
                <mxCell id="549" value="&lt;span style=&quot;font-size: 16px&quot;&gt;R11&lt;br&gt;&lt;/span&gt;" style="ellipse;whiteSpace=wrap;html=1;aspect=fixed;strokeColor=none;fillColor=#007FFF;verticalAlign=middle;labelPosition=center;verticalLabelPosition=middle;align=center;fontSize=16;fontStyle=1;fontColor=#E6E6E6;" vertex="1" parent="1">
                    <mxGeometry x="-730" y="691.25" width="40" height="40" as="geometry"/>
                </mxCell>
                <mxCell id="550" value="" style="rounded=1;whiteSpace=wrap;html=1;labelBackgroundColor=none;fontSize=12;fontColor=#E6E6E6;strokeColor=#E6E6E6;fillColor=none;arcSize=8;" vertex="1" parent="1">
                    <mxGeometry x="-815" y="821.25" width="50" height="10" as="geometry"/>
                </mxCell>
                <mxCell id="551" value="&lt;div style=&quot;text-align: left&quot;&gt;&lt;span&gt;- title&lt;/span&gt;&lt;/div&gt;&lt;div style=&quot;text-align: left&quot;&gt;&lt;span&gt;- code&lt;/span&gt;&lt;/div&gt;&lt;div style=&quot;text-align: left&quot;&gt;&lt;span&gt;- description&lt;/span&gt;&lt;/div&gt;&lt;div style=&quot;text-align: left&quot;&gt;&lt;span&gt;- ...&lt;/span&gt;&lt;/div&gt;" style="shape=note;whiteSpace=wrap;html=1;backgroundOutline=1;darkOpacity=0.05;fillColor=#990099;size=13;gradientColor=#FF33FF;gradientDirection=south;strokeColor=#990099;fontColor=#E6E6E6;labelPosition=center;verticalLabelPosition=middle;align=center;verticalAlign=middle;" vertex="1" parent="1">
                    <mxGeometry x="-880" y="741.5" width="75" height="61.68" as="geometry"/>
                </mxCell>
                <mxCell id="561" value="push" style="edgeStyle=orthogonalEdgeStyle;curved=1;html=1;entryX=0.5;entryY=1;entryDx=0;entryDy=0;labelBackgroundColor=#1A1A1A;fontColor=#E6E6E6;endArrow=open;endFill=0;strokeColor=#E6E6E6;" edge="1" parent="1" source="552" target="541">
                    <mxGeometry relative="1" as="geometry"/>
                </mxCell>
                <mxCell id="552" value="" style="rounded=1;whiteSpace=wrap;html=1;labelBackgroundColor=none;fontSize=12;fontColor=#E6E6E6;strokeColor=#E6E6E6;fillColor=none;arcSize=8;" vertex="1" parent="1">
                    <mxGeometry x="-735" y="872.01" width="50" height="160" as="geometry"/>
                </mxCell>
                <mxCell id="553" style="edgeStyle=none;html=1;fontSize=12;fontColor=#E6E6E6;endArrow=none;endFill=0;strokeColor=#E6E6E6;" edge="1" parent="1" source="554" target="559">
                    <mxGeometry relative="1" as="geometry"/>
                </mxCell>
                <mxCell id="554" value="&lt;span style=&quot;font-size: 16px&quot;&gt;&lt;br&gt;&lt;/span&gt;" style="ellipse;whiteSpace=wrap;html=1;aspect=fixed;strokeColor=none;fillColor=#007FFF;verticalAlign=middle;labelPosition=right;verticalLabelPosition=middle;align=left;fontSize=16;fontStyle=1;fontColor=#E6E6E6;" vertex="1" parent="1">
                    <mxGeometry x="-720" y="942.01" width="20" height="20" as="geometry"/>
                </mxCell>
                <mxCell id="555" style="edgeStyle=none;html=1;fontSize=12;fontColor=#E6E6E6;endArrow=none;endFill=0;strokeColor=#E6E6E6;" edge="1" parent="1" source="556" target="554">
                    <mxGeometry relative="1" as="geometry"/>
                </mxCell>
                <mxCell id="556" value="&lt;span style=&quot;font-size: 16px&quot;&gt;&lt;br&gt;&lt;/span&gt;" style="ellipse;whiteSpace=wrap;html=1;aspect=fixed;strokeColor=none;fillColor=#007FFF;verticalAlign=middle;labelPosition=right;verticalLabelPosition=middle;align=left;fontSize=16;fontStyle=1;fontColor=#E6E6E6;" vertex="1" parent="1">
                    <mxGeometry x="-720" y="972.01" width="20" height="20" as="geometry"/>
                </mxCell>
                <mxCell id="557" style="edgeStyle=none;html=1;fontSize=12;fontColor=#E6E6E6;endArrow=none;endFill=0;strokeColor=#E6E6E6;" edge="1" parent="1" source="558" target="556">
                    <mxGeometry relative="1" as="geometry"/>
                </mxCell>
                <mxCell id="558" value="&lt;span style=&quot;font-size: 16px&quot;&gt;&lt;br&gt;&lt;/span&gt;" style="ellipse;whiteSpace=wrap;html=1;aspect=fixed;strokeColor=none;fillColor=#007FFF;verticalAlign=middle;labelPosition=right;verticalLabelPosition=middle;align=left;fontSize=16;fontStyle=1;fontColor=#E6E6E6;" vertex="1" parent="1">
                    <mxGeometry x="-720" y="1002.01" width="20" height="20" as="geometry"/>
                </mxCell>
                <mxCell id="559" value="&lt;span style=&quot;font-size: 16px&quot;&gt;R11&lt;br&gt;&lt;/span&gt;" style="ellipse;whiteSpace=wrap;html=1;aspect=fixed;strokeColor=none;fillColor=#007FFF;verticalAlign=middle;labelPosition=center;verticalLabelPosition=middle;align=center;fontSize=16;fontStyle=1;fontColor=#E6E6E6;" vertex="1" parent="1">
                    <mxGeometry x="-730" y="892.01" width="40" height="40" as="geometry"/>
                </mxCell>
                <mxCell id="562" value="" style="rounded=1;whiteSpace=wrap;html=1;labelBackgroundColor=none;fontSize=12;fontColor=#E6E6E6;strokeColor=#CC0000;fillColor=none;arcSize=8;" vertex="1" parent="1">
                    <mxGeometry x="-650" y="671.25" width="50" height="160" as="geometry"/>
                </mxCell>
                <mxCell id="563" style="edgeStyle=none;html=1;fontSize=12;fontColor=#E6E6E6;endArrow=none;endFill=0;strokeColor=#E6E6E6;" edge="1" parent="1" source="564" target="569">
                    <mxGeometry relative="1" as="geometry"/>
                </mxCell>
                <mxCell id="564" value="&lt;span style=&quot;font-size: 16px&quot;&gt;&lt;br&gt;&lt;/span&gt;" style="ellipse;whiteSpace=wrap;html=1;aspect=fixed;strokeColor=none;fillColor=#007FFF;verticalAlign=middle;labelPosition=right;verticalLabelPosition=middle;align=left;fontSize=16;fontStyle=1;fontColor=#E6E6E6;" vertex="1" parent="1">
                    <mxGeometry x="-635" y="741.25" width="20" height="20" as="geometry"/>
                </mxCell>
                <mxCell id="565" style="edgeStyle=none;html=1;fontSize=12;fontColor=#E6E6E6;endArrow=none;endFill=0;strokeColor=#E6E6E6;" edge="1" parent="1" source="566" target="564">
                    <mxGeometry relative="1" as="geometry"/>
                </mxCell>
                <mxCell id="566" value="&lt;span style=&quot;font-size: 16px&quot;&gt;&lt;br&gt;&lt;/span&gt;" style="ellipse;whiteSpace=wrap;html=1;aspect=fixed;strokeColor=none;fillColor=#007FFF;verticalAlign=middle;labelPosition=right;verticalLabelPosition=middle;align=left;fontSize=16;fontStyle=1;fontColor=#E6E6E6;" vertex="1" parent="1">
                    <mxGeometry x="-635" y="771.25" width="20" height="20" as="geometry"/>
                </mxCell>
                <mxCell id="567" style="edgeStyle=none;html=1;fontSize=12;fontColor=#E6E6E6;endArrow=none;endFill=0;strokeColor=#E6E6E6;" edge="1" parent="1" source="568" target="566">
                    <mxGeometry relative="1" as="geometry"/>
                </mxCell>
                <mxCell id="568" value="&lt;span style=&quot;font-size: 16px&quot;&gt;&lt;br&gt;&lt;/span&gt;" style="ellipse;whiteSpace=wrap;html=1;aspect=fixed;strokeColor=none;fillColor=#007FFF;verticalAlign=middle;labelPosition=right;verticalLabelPosition=middle;align=left;fontSize=16;fontStyle=1;fontColor=#E6E6E6;" vertex="1" parent="1">
                    <mxGeometry x="-635" y="801.25" width="20" height="20" as="geometry"/>
                </mxCell>
                <mxCell id="569" value="&lt;span style=&quot;font-size: 16px&quot;&gt;R11&lt;br&gt;&lt;/span&gt;" style="ellipse;whiteSpace=wrap;html=1;aspect=fixed;strokeColor=none;fillColor=#007FFF;verticalAlign=middle;labelPosition=center;verticalLabelPosition=middle;align=center;fontSize=16;fontStyle=1;fontColor=#E6E6E6;" vertex="1" parent="1">
                    <mxGeometry x="-645" y="691.25" width="40" height="40" as="geometry"/>
                </mxCell>
                <mxCell id="571" value="" style="rounded=1;whiteSpace=wrap;html=1;labelBackgroundColor=none;fontSize=12;fontColor=#E6E6E6;strokeColor=#CC0000;fillColor=none;arcSize=8;" vertex="1" parent="1">
                    <mxGeometry x="-650" y="872.01" width="50" height="160" as="geometry"/>
                </mxCell>
                <mxCell id="572" style="edgeStyle=none;html=1;fontSize=12;fontColor=#E6E6E6;endArrow=none;endFill=0;strokeColor=#E6E6E6;" edge="1" parent="1" source="573" target="578">
                    <mxGeometry relative="1" as="geometry"/>
                </mxCell>
                <mxCell id="573" value="&lt;span style=&quot;font-size: 16px&quot;&gt;&lt;br&gt;&lt;/span&gt;" style="ellipse;whiteSpace=wrap;html=1;aspect=fixed;strokeColor=none;fillColor=#007FFF;verticalAlign=middle;labelPosition=right;verticalLabelPosition=middle;align=left;fontSize=16;fontStyle=1;fontColor=#E6E6E6;" vertex="1" parent="1">
                    <mxGeometry x="-635" y="942.01" width="20" height="20" as="geometry"/>
                </mxCell>
                <mxCell id="574" style="edgeStyle=none;html=1;fontSize=12;fontColor=#E6E6E6;endArrow=none;endFill=0;strokeColor=#E6E6E6;" edge="1" parent="1" source="575" target="573">
                    <mxGeometry relative="1" as="geometry"/>
                </mxCell>
                <mxCell id="575" value="&lt;span style=&quot;font-size: 16px&quot;&gt;&lt;br&gt;&lt;/span&gt;" style="ellipse;whiteSpace=wrap;html=1;aspect=fixed;strokeColor=none;fillColor=#007FFF;verticalAlign=middle;labelPosition=right;verticalLabelPosition=middle;align=left;fontSize=16;fontStyle=1;fontColor=#E6E6E6;" vertex="1" parent="1">
                    <mxGeometry x="-635" y="972.01" width="20" height="20" as="geometry"/>
                </mxCell>
                <mxCell id="576" style="edgeStyle=none;html=1;fontSize=12;fontColor=#E6E6E6;endArrow=none;endFill=0;strokeColor=#E6E6E6;" edge="1" parent="1" source="577" target="575">
                    <mxGeometry relative="1" as="geometry"/>
                </mxCell>
                <mxCell id="577" value="&lt;span style=&quot;font-size: 16px&quot;&gt;&lt;br&gt;&lt;/span&gt;" style="ellipse;whiteSpace=wrap;html=1;aspect=fixed;strokeColor=none;fillColor=#007FFF;verticalAlign=middle;labelPosition=right;verticalLabelPosition=middle;align=left;fontSize=16;fontStyle=1;fontColor=#E6E6E6;" vertex="1" parent="1">
                    <mxGeometry x="-635" y="1002.01" width="20" height="20" as="geometry"/>
                </mxCell>
                <mxCell id="578" value="&lt;span style=&quot;font-size: 16px&quot;&gt;R11&lt;br&gt;&lt;/span&gt;" style="ellipse;whiteSpace=wrap;html=1;aspect=fixed;strokeColor=none;fillColor=#007FFF;verticalAlign=middle;labelPosition=center;verticalLabelPosition=middle;align=center;fontSize=16;fontStyle=1;fontColor=#E6E6E6;" vertex="1" parent="1">
                    <mxGeometry x="-645" y="892.01" width="40" height="40" as="geometry"/>
                </mxCell>
                <mxCell id="581" value="release" style="text;html=1;strokeColor=none;fillColor=none;align=center;verticalAlign=middle;whiteSpace=wrap;rounded=0;labelBackgroundColor=none;fontSize=12;fontColor=#E6E6E6;" vertex="1" parent="1">
                    <mxGeometry x="-815" y="831.25" width="50" height="20" as="geometry"/>
                </mxCell>
                <mxCell id="582" value="delete" style="text;html=1;strokeColor=none;fillColor=none;align=center;verticalAlign=middle;whiteSpace=wrap;rounded=0;labelBackgroundColor=none;fontSize=12;fontColor=#CC0000;" vertex="1" parent="1">
                    <mxGeometry x="-650" y="831.25" width="50" height="20" as="geometry"/>
                </mxCell>
                <mxCell id="583" value="delete" style="text;html=1;strokeColor=none;fillColor=none;align=center;verticalAlign=middle;whiteSpace=wrap;rounded=0;labelBackgroundColor=none;fontSize=12;fontColor=#CC0000;" vertex="1" parent="1">
                    <mxGeometry x="-650" y="1031.59" width="50" height="20" as="geometry"/>
                </mxCell>
                <mxCell id="585" value="&lt;div style=&quot;text-align: left&quot;&gt;&lt;br&gt;&lt;/div&gt;" style="shape=note;whiteSpace=wrap;html=1;backgroundOutline=1;darkOpacity=0.05;fillColor=#990099;size=13;gradientColor=#FF33FF;gradientDirection=south;strokeColor=#990099;fontColor=#E6E6E6;labelPosition=center;verticalLabelPosition=middle;align=center;verticalAlign=middle;" vertex="1" parent="1">
                    <mxGeometry x="-545" y="1072.7800000000002" width="45" height="52.6" as="geometry"/>
                </mxCell>
                <mxCell id="586" value="&lt;div style=&quot;text-align: left&quot;&gt;&lt;br&gt;&lt;/div&gt;" style="shape=note;whiteSpace=wrap;html=1;backgroundOutline=1;darkOpacity=0.05;fillColor=#990099;size=13;gradientColor=#FF33FF;gradientDirection=south;strokeColor=#990099;fontColor=#E6E6E6;labelPosition=center;verticalLabelPosition=middle;align=center;verticalAlign=middle;" vertex="1" parent="1">
                    <mxGeometry x="-945" y="1230.42" width="45" height="52.6" as="geometry"/>
                </mxCell>
                <mxCell id="587" value="&lt;div style=&quot;text-align: left&quot;&gt;&lt;br&gt;&lt;/div&gt;" style="shape=note;whiteSpace=wrap;html=1;backgroundOutline=1;darkOpacity=0.05;fillColor=#990099;size=13;gradientColor=#FF33FF;gradientDirection=south;strokeColor=#990099;fontColor=#E6E6E6;labelPosition=center;verticalLabelPosition=middle;align=center;verticalAlign=middle;" vertex="1" parent="1">
                    <mxGeometry x="-320" y="1162.7800000000002" width="45" height="52.6" as="geometry"/>
                </mxCell>
            </root>
        </mxGraphModel>
    </diagram>
</mxfile>